<?xml version="1.0" encoding="UTF-8" standalone="no"?><svg xmlns="http://www.w3.org/2000/svg" xmlns:xlink="http://www.w3.org/1999/xlink" clip-rule="evenodd" stroke-miterlimit="4.00" viewBox="0 0 637 37"><desc>SVG generated by Keynote</desc><defs></defs><g transform="matrix(1.00, 0.00, -0.00, -1.00, 0.0, 37.0)"><text xml:space="preserve" font-family="Nunito-Light" font-size="36.0" fill="#000000" transform="matrix(1.00, 0.00, -0.00, -1.00, 2.0, 9.0)">T</text><text xml:space="preserve" font-family="Nunito-Light" font-size="36.0" fill="#000000" transform="matrix(1.00, 0.00, -0.00, -1.00, 18.2, 9.0)">o</text><text xml:space="preserve" font-family="Nunito-Light" font-size="36.0" fill="#000000" transform="matrix(1.00, 0.00, -0.00, -1.00, 38.7, 9.0)"> </text><text xml:space="preserve" font-family="Nunito-Light" font-size="36.0" fill="#000000" transform="matrix(1.00, 0.00, -0.00, -1.00, 49.0, 9.0)">m</text><text xml:space="preserve" font-family="Nunito-Light" font-size="36.0" fill="#000000" transform="matrix(1.00, 0.00, -0.00, -1.00, 81.3, 9.0)">a</text><text xml:space="preserve" font-family="Nunito-Light" font-size="36.0" fill="#000000" transform="matrix(1.00, 0.00, -0.00, -1.00, 99.7, 9.0)">k</text><text xml:space="preserve" font-family="Nunito-Light" font-size="36.0" fill="#000000" transform="matrix(1.00, 0.00, -0.00, -1.00, 116.5, 9.0)">e</text><text xml:space="preserve" font-family="Nunito-Light" font-size="36.0" fill="#000000" transform="matrix(1.00, 0.00, -0.00, -1.00, 136.3, 9.0)"> </text><text xml:space="preserve" font-family="Nunito-Light" font-size="36.0" fill="#000000" transform="matrix(1.00, 0.00, -0.00, -1.00, 146.6, 9.0)">p</text><text xml:space="preserve" font-family="Nunito-Light" font-size="36.0" fill="#000000" transform="matrix(1.00, 0.00, -0.00, -1.00, 167.1, 9.0)">r</text><text xml:space="preserve" font-family="Nunito-Light" font-size="36.0" fill="#000000" transform="matrix(1.00, 0.00, -0.00, -1.00, 179.5, 9.0)">o</text><text xml:space="preserve" font-family="Nunito-Light" font-size="36.0" fill="#000000" transform="matrix(1.00, 0.00, -0.00, -1.00, 199.9, 9.0)">g</text><text xml:space="preserve" font-family="Nunito-Light" font-size="36.0" fill="#000000" transform="matrix(1.00, 0.00, -0.00, -1.00, 220.3, 9.0)">r</text><text xml:space="preserve" font-family="Nunito-Light" font-size="36.0" fill="#000000" transform="matrix(1.00, 0.00, -0.00, -1.00, 232.8, 9.0)">a</text><text xml:space="preserve" font-family="Nunito-Light" font-size="36.0" fill="#000000" transform="matrix(1.00, 0.00, -0.00, -1.00, 251.2, 9.0)">m</text><text xml:space="preserve" font-family="Nunito-Light" font-size="36.0" fill="#000000" transform="matrix(1.00, 0.00, -0.00, -1.00, 283.5, 9.0)">m</text><text xml:space="preserve" font-family="Nunito-Light" font-size="36.0" fill="#000000" transform="matrix(1.00, 0.00, -0.00, -1.00, 315.9, 9.0)">i</text><text xml:space="preserve" font-family="Nunito-Light" font-size="36.0" fill="#000000" transform="matrix(1.00, 0.00, -0.00, -1.00, 324.2, 9.0)">n</text><text xml:space="preserve" font-family="Nunito-Light" font-size="36.0" fill="#000000" transform="matrix(1.00, 0.00, -0.00, -1.00, 344.6, 9.0)">g</text><text xml:space="preserve" font-family="Nunito-Light" font-size="36.0" fill="#000000" transform="matrix(1.00, 0.00, -0.00, -1.00, 365.0, 9.0)"> </text><text xml:space="preserve" font-family="Nunito-Light" font-size="36.0" fill="#000000" transform="matrix(1.00, 0.00, -0.00, -1.00, 375.3, 9.0)">m</text><text xml:space="preserve" font-family="Nunito-Light" font-size="36.0" fill="#000000" transform="matrix(1.00, 0.00, -0.00, -1.00, 407.7, 9.0)">o</text><text xml:space="preserve" font-family="Nunito-Light" font-size="36.0" fill="#000000" transform="matrix(1.00, 0.00, -0.00, -1.00, 428.1, 9.0)">r</text><text xml:space="preserve" font-family="Nunito-Light" font-size="36.0" fill="#000000" transform="matrix(1.00, 0.00, -0.00, -1.00, 440.5, 9.0)">e</text><text xml:space="preserve" font-family="Nunito-Light" font-size="36.0" fill="#000000" transform="matrix(1.00, 0.00, -0.00, -1.00, 460.4, 9.0)"> </text><text xml:space="preserve" font-family="Nunito-Light" font-size="36.0" fill="#000000" transform="matrix(1.00, 0.00, -0.00, -1.00, 470.7, 9.0)">a</text><text xml:space="preserve" font-family="Nunito-Light" font-size="36.0" fill="#000000" transform="matrix(1.00, 0.00, -0.00, -1.00, 489.0, 9.0)">c</text><text xml:space="preserve" font-family="Nunito-Light" font-size="36.0" fill="#000000" transform="matrix(1.00, 0.00, -0.00, -1.00, 506.1, 9.0)">c</text><text xml:space="preserve" font-family="Nunito-Light" font-size="36.0" fill="#000000" transform="matrix(1.00, 0.00, -0.00, -1.00, 523.1, 9.0)">e</text><text xml:space="preserve" font-family="Nunito-Light" font-size="36.0" fill="#000000" transform="matrix(1.00, 0.00, -0.00, -1.00, 543.0, 9.0)">s</text><text xml:space="preserve" font-family="Nunito-Light" font-size="36.0" fill="#000000" transform="matrix(1.00, 0.00, -0.00, -1.00, 561.0, 9.0)">s</text><text xml:space="preserve" font-family="Nunito-Light" font-size="36.0" fill="#000000" transform="matrix(1.00, 0.00, -0.00, -1.00, 579.0, 9.0)">i</text><text xml:space="preserve" font-family="Nunito-Light" font-size="36.0" fill="#000000" transform="matrix(1.00, 0.00, -0.00, -1.00, 587.4, 9.0)">b</text><text xml:space="preserve" font-family="Nunito-Light" font-size="36.0" fill="#000000" transform="matrix(1.00, 0.00, -0.00, -1.00, 607.7, 9.0)">l</text><text xml:space="preserve" font-family="Nunito-Light" font-size="36.0" fill="#000000" transform="matrix(1.00, 0.00, -0.00, -1.00, 616.1, 9.0)">e</text></g></svg>