<?xml version="1.0" encoding="UTF-8" standalone="no"?><svg xmlns="http://www.w3.org/2000/svg" xmlns:xlink="http://www.w3.org/1999/xlink" clip-rule="evenodd" stroke-miterlimit="4.00" viewBox="0 0 1024 768"><desc>SVG generated by Keynote</desc><defs></defs><g transform="matrix(1.00, 0.00, -0.00, -1.00, 0.0, 768.0)"><path d="M 0.0 768.0 L 1024.0 768.0 L 1024.0 0.0 L 0.0 0.0 Z M 0.0 768.0 " fill="#FEFFFF"></path><text xml:space="preserve" font-family="Nunito-Bold" font-weight="bold" font-size="40.0" fill="#000000" transform="matrix(1.00, 0.00, -0.00, -1.00, 233.0, 680.0)">E</text><text xml:space="preserve" font-family="Nunito-Bold" font-weight="bold" font-size="40.0" fill="#000000" transform="matrix(1.00, 0.00, -0.00, -1.00, 257.8, 680.0)">l</text><text xml:space="preserve" font-family="Nunito-Bold" font-weight="bold" font-size="40.0" fill="#000000" transform="matrix(1.00, 0.00, -0.00, -1.00, 268.6, 680.0)">m</text><text xml:space="preserve" font-family="Nunito-Bold" font-weight="bold" font-size="40.0" fill="#000000" transform="matrix(1.00, 0.00, -0.00, -1.00, 306.1, 680.0)">’</text><text xml:space="preserve" font-family="Nunito-Bold" font-weight="bold" font-size="40.0" fill="#000000" transform="matrix(1.00, 0.00, -0.00, -1.00, 315.2, 680.0)">s</text><text xml:space="preserve" font-family="Nunito-Regular" font-size="40.0" fill="#000000" transform="matrix(1.00, 0.00, -0.00, -1.00, 336.2, 680.0)"> </text><text xml:space="preserve" font-family="Nunito-Regular" font-size="40.0" fill="#000000" transform="matrix(1.00, 0.00, -0.00, -1.00, 348.2, 680.0)">a</text><text xml:space="preserve" font-family="Nunito-Regular" font-size="40.0" fill="#000000" transform="matrix(1.00, 0.00, -0.00, -1.00, 368.8, 680.0)">w</text><text xml:space="preserve" font-family="Nunito-Regular" font-size="40.0" fill="#000000" transform="matrix(1.00, 0.00, -0.00, -1.00, 402.2, 680.0)">e</text><text xml:space="preserve" font-family="Nunito-Regular" font-size="40.0" fill="#000000" transform="matrix(1.00, 0.00, -0.00, -1.00, 424.8, 680.0)">s</text><text xml:space="preserve" font-family="Nunito-Regular" font-size="40.0" fill="#000000" transform="matrix(1.00, 0.00, -0.00, -1.00, 445.2, 680.0)">o</text><text xml:space="preserve" font-family="Nunito-Regular" font-size="40.0" fill="#000000" transform="matrix(1.00, 0.00, -0.00, -1.00, 468.8, 680.0)">m</text><text xml:space="preserve" font-family="Nunito-Regular" font-size="40.0" fill="#000000" transform="matrix(1.00, 0.00, -0.00, -1.00, 505.4, 680.0)">e</text><text xml:space="preserve" font-family="Nunito-Regular" font-size="40.0" fill="#000000" transform="matrix(1.00, 0.00, -0.00, -1.00, 528.1, 680.0)">n</text><text xml:space="preserve" font-family="Nunito-Regular" font-size="40.0" fill="#000000" transform="matrix(1.00, 0.00, -0.00, -1.00, 551.4, 680.0)">e</text><text xml:space="preserve" font-family="Nunito-Regular" font-size="40.0" fill="#000000" transform="matrix(1.00, 0.00, -0.00, -1.00, 574.0, 680.0)">s</text><text xml:space="preserve" font-family="Nunito-Regular" font-size="40.0" fill="#000000" transform="matrix(1.00, 0.00, -0.00, -1.00, 594.4, 680.0)">s</text></g></svg>