<?xml version="1.0" encoding="UTF-8" standalone="no"?><svg xmlns="http://www.w3.org/2000/svg" xmlns:xlink="http://www.w3.org/1999/xlink" clip-rule="evenodd" stroke-miterlimit="4.00" viewBox="0 0 1024 768"><desc>SVG generated by Keynote</desc><defs></defs><g transform="matrix(1.00, 0.00, -0.00, -1.00, 0.0, 768.0)"><path d="M 0.0 768.0 L 1024.0 768.0 L 1024.0 0.0 L 0.0 0.0 Z M 0.0 768.0 " fill="#FEFFFF"></path><image xlink:href="1A139F02848F119018380FA52277821C.png" width="145.00" height="132.00" transform="matrix(0.99, 0.00, -0.00, -0.99, 203.0, 662.0)"></image><image xlink:href="6B430B5C76F90A2AA44DE55B3AAD2C09.png" width="263.00" height="71.00" transform="matrix(1.00, 0.00, -0.00, -1.00, 677.0, 602.0)"></image><image xlink:href="F58D8ACDAF90F7B0A47C3AB3DFA645D4.png" width="229.00" height="220.00" transform="matrix(1.00, 0.00, -0.00, -1.00, 398.0, 743.0)"></image><g><clipPath id="clip-65"><path d="M 339.0 514.0 L 685.0 514.0 L 685.0 0.0 L 339.0 0.0 Z M 339.4 513.7 "></path></clipPath><g clip-path="url(#clip-65)"><image xlink:href="1E60CC9345BC4D53FE59E5A00B9A0C72.png" width="685.00" height="513.00" transform="matrix(1.00, 0.00, -0.00, -1.00, 154.0, 514.0)"></image></g></g><g><clipPath id="clip-66"><path d="M 621.0 586.0 L 665.0 586.0 L 665.0 540.0 L 621.0 540.0 Z M 621.3 586.2 "></path></clipPath><g clip-path="url(#clip-66)"><image xlink:href="0BA30AAA11A81EC424A2336FC839275D.png" width="142.00" height="106.00" transform="matrix(1.00, 0.00, -0.00, -1.00, 573.0, 617.0)"></image></g></g><g><clipPath id="clip-67"><path d="M 351.0 586.0 L 394.0 586.0 L 394.0 540.0 L 351.0 540.0 Z M 350.6 586.2 "></path></clipPath><g clip-path="url(#clip-67)"><image xlink:href="../../0BCB08C9-0974-4782-B9F2-19C026F641F7/assets/0BA30AAA11A81EC424A2336FC839275D.png" width="142.00" height="106.00" transform="matrix(0.99, 0.00, -0.00, -1.00, 303.0, 617.0)"></image></g></g></g></svg>