<?xml version="1.0" encoding="UTF-8" standalone="no"?><svg xmlns="http://www.w3.org/2000/svg" xmlns:xlink="http://www.w3.org/1999/xlink" clip-rule="evenodd" stroke-miterlimit="4.00" viewBox="0 0 1024 768"><desc>SVG generated by Keynote</desc><defs><pattern id="978C427C-A902-4C67-8053-B7C528C32267" patternUnits="userSpaceOnUse" width="300" height="300" viewBox="0 0 300 300" patternTransform="matrix(1.000000, 0.000000, 0.000000, -1.000000, 106.742200, 502.988300)"><image xlink:href="../../65C5258E-4343-4918-95F0-08BEB32C10EE/assets/90096E66F30E4D38552F9ACA9C23E8B7.jpeg" width="300.00" height="300.00"></image></pattern></defs><g transform="matrix(1.00, 0.00, -0.00, -1.00, 0.0, 768.0)"><path d="M 0.0 768.0 L 1024.0 768.0 L 1024.0 0.0 L 0.0 0.0 Z M 0.0 768.0 " fill="#FEFFFF"></path><text xml:space="preserve" font-family="Nunito-Regular" font-size="36.0" fill="#000000" transform="matrix(1.00, 0.00, -0.00, -1.00, 118.0, 436.0)">M</text><text xml:space="preserve" font-family="Nunito-Regular" font-size="36.0" fill="#000000" transform="matrix(1.00, 0.00, -0.00, -1.00, 153.2, 436.0)">o</text><text xml:space="preserve" font-family="Nunito-Regular" font-size="36.0" fill="#000000" transform="matrix(1.00, 0.00, -0.00, -1.00, 174.4, 436.0)">d</text><text xml:space="preserve" font-family="Nunito-Regular" font-size="36.0" fill="#000000" transform="matrix(1.00, 0.00, -0.00, -1.00, 195.6, 436.0)">e</text><text xml:space="preserve" font-family="Nunito-Regular" font-size="36.0" fill="#000000" transform="matrix(1.00, 0.00, -0.00, -1.00, 216.0, 436.0)">l</text><text xml:space="preserve" font-family="Nunito-Regular" font-size="36.0" fill="#000000" transform="matrix(1.00, 0.00, -0.00, -1.00, 225.0, 436.0)"> </text><text xml:space="preserve" font-family="Nunito-Regular" font-size="36.0" fill="#000000" transform="matrix(1.00, 0.00, -0.00, -1.00, 235.8, 436.0)">-</text><text xml:space="preserve" font-family="Nunito-Regular" font-size="36.0" fill="#000000" transform="matrix(1.00, 0.00, -0.00, -1.00, 247.2, 436.0)"> </text><text xml:space="preserve" font-family="Nunito-Regular" font-size="27.0" fill="#000000" transform="matrix(1.00, 0.00, -0.00, -1.00, 258.0, 436.0)">t</text><text xml:space="preserve" font-family="Nunito-Regular" font-size="27.0" fill="#000000" transform="matrix(1.00, 0.00, -0.00, -1.00, 267.8, 436.0)">h</text><text xml:space="preserve" font-family="Nunito-Regular" font-size="27.0" fill="#000000" transform="matrix(1.00, 0.00, -0.00, -1.00, 283.6, 436.0)">e</text><text xml:space="preserve" font-family="Nunito-Regular" font-size="27.0" fill="#000000" transform="matrix(1.00, 0.00, -0.00, -1.00, 298.8, 436.0)"> </text><text xml:space="preserve" font-family="Nunito-Regular" font-size="27.0" fill="#000000" transform="matrix(1.00, 0.00, -0.00, -1.00, 306.9, 436.0)">s</text><text xml:space="preserve" font-family="Nunito-Regular" font-size="27.0" fill="#000000" transform="matrix(1.00, 0.00, -0.00, -1.00, 320.7, 436.0)">t</text><text xml:space="preserve" font-family="Nunito-Regular" font-size="27.0" fill="#000000" transform="matrix(1.00, 0.00, -0.00, -1.00, 330.9, 436.0)">a</text><text xml:space="preserve" font-family="Nunito-Regular" font-size="27.0" fill="#000000" transform="matrix(1.00, 0.00, -0.00, -1.00, 345.1, 436.0)">t</text><text xml:space="preserve" font-family="Nunito-Regular" font-size="27.0" fill="#000000" transform="matrix(1.00, 0.00, -0.00, -1.00, 354.9, 436.0)">e</text><text xml:space="preserve" font-family="Nunito-Regular" font-size="27.0" fill="#000000" transform="matrix(1.00, 0.00, -0.00, -1.00, 370.2, 436.0)"> </text><text xml:space="preserve" font-family="Nunito-Regular" font-size="27.0" fill="#000000" transform="matrix(1.00, 0.00, -0.00, -1.00, 378.3, 436.0)">o</text><text xml:space="preserve" font-family="Nunito-Regular" font-size="27.0" fill="#000000" transform="matrix(1.00, 0.00, -0.00, -1.00, 394.3, 436.0)">f</text><text xml:space="preserve" font-family="Nunito-Regular" font-size="27.0" fill="#000000" transform="matrix(1.00, 0.00, -0.00, -1.00, 403.8, 436.0)"> </text><text xml:space="preserve" font-family="Nunito-Regular" font-size="27.0" fill="#000000" transform="matrix(1.00, 0.00, -0.00, -1.00, 411.9, 436.0)">y</text><text xml:space="preserve" font-family="Nunito-Regular" font-size="27.0" fill="#000000" transform="matrix(1.00, 0.00, -0.00, -1.00, 425.5, 436.0)">o</text><text xml:space="preserve" font-family="Nunito-Regular" font-size="27.0" fill="#000000" transform="matrix(1.00, 0.00, -0.00, -1.00, 441.4, 436.0)">u</text><text xml:space="preserve" font-family="Nunito-Regular" font-size="27.0" fill="#000000" transform="matrix(1.00, 0.00, -0.00, -1.00, 457.1, 436.0)">r</text><text xml:space="preserve" font-family="Nunito-Regular" font-size="27.0" fill="#000000" transform="matrix(1.00, 0.00, -0.00, -1.00, 467.2, 436.0)"> </text><text xml:space="preserve" font-family="Nunito-Regular" font-size="27.0" fill="#000000" transform="matrix(1.00, 0.00, -0.00, -1.00, 475.3, 436.0)">a</text><text xml:space="preserve" font-family="Nunito-Regular" font-size="27.0" fill="#000000" transform="matrix(1.00, 0.00, -0.00, -1.00, 489.6, 436.0)">p</text><text xml:space="preserve" font-family="Nunito-Regular" font-size="27.0" fill="#000000" transform="matrix(1.00, 0.00, -0.00, -1.00, 505.5, 436.0)">p</text><text xml:space="preserve" font-family="Nunito-Regular" font-size="36.0" fill="#000000" transform="matrix(1.00, 0.00, -0.00, -1.00, 116.0, 256.0)">U</text><text xml:space="preserve" font-family="Nunito-Regular" font-size="36.0" fill="#000000" transform="matrix(1.00, 0.00, -0.00, -1.00, 142.6, 256.0)">p</text><text xml:space="preserve" font-family="Nunito-Regular" font-size="36.0" fill="#000000" transform="matrix(1.00, 0.00, -0.00, -1.00, 163.8, 256.0)">d</text><text xml:space="preserve" font-family="Nunito-Regular" font-size="36.0" fill="#000000" transform="matrix(1.00, 0.00, -0.00, -1.00, 185.1, 256.0)">a</text><text xml:space="preserve" font-family="Nunito-Regular" font-size="36.0" fill="#000000" transform="matrix(1.00, 0.00, -0.00, -1.00, 204.1, 256.0)">t</text><text xml:space="preserve" font-family="Nunito-Regular" font-size="36.0" fill="#000000" transform="matrix(1.00, 0.00, -0.00, -1.00, 217.1, 256.0)">e</text><text xml:space="preserve" font-family="Nunito-Regular" font-size="36.0" fill="#000000" transform="matrix(1.00, 0.00, -0.00, -1.00, 237.5, 256.0)"> </text><text xml:space="preserve" font-family="Nunito-Regular" font-size="36.0" fill="#000000" transform="matrix(1.00, 0.00, -0.00, -1.00, 248.4, 256.0)">-</text><text xml:space="preserve" font-family="Nunito-Regular" font-size="36.0" fill="#000000" transform="matrix(1.00, 0.00, -0.00, -1.00, 259.8, 256.0)"> </text><text xml:space="preserve" font-family="Nunito-Regular" font-size="27.0" fill="#000000" transform="matrix(1.00, 0.00, -0.00, -1.00, 270.5, 256.0)">a</text><text xml:space="preserve" font-family="Nunito-Regular" font-size="27.0" fill="#000000" transform="matrix(1.00, 0.00, -0.00, -1.00, 284.7, 256.0)"> </text><text xml:space="preserve" font-family="Nunito-Regular" font-size="27.0" fill="#000000" transform="matrix(1.00, 0.00, -0.00, -1.00, 292.8, 256.0)">w</text><text xml:space="preserve" font-family="Nunito-Regular" font-size="27.0" fill="#000000" transform="matrix(1.00, 0.00, -0.00, -1.00, 315.4, 256.0)">a</text><text xml:space="preserve" font-family="Nunito-Regular" font-size="27.0" fill="#000000" transform="matrix(1.00, 0.00, -0.00, -1.00, 329.3, 256.0)">y</text><text xml:space="preserve" font-family="Nunito-Regular" font-size="27.0" fill="#000000" transform="matrix(1.00, 0.00, -0.00, -1.00, 343.2, 256.0)"> </text><text xml:space="preserve" font-family="Nunito-Regular" font-size="27.0" fill="#000000" transform="matrix(1.00, 0.00, -0.00, -1.00, 351.3, 256.0)">t</text><text xml:space="preserve" font-family="Nunito-Regular" font-size="27.0" fill="#000000" transform="matrix(1.00, 0.00, -0.00, -1.00, 361.1, 256.0)">o</text><text xml:space="preserve" font-family="Nunito-Regular" font-size="27.0" fill="#000000" transform="matrix(1.00, 0.00, -0.00, -1.00, 377.0, 256.0)"> </text><text xml:space="preserve" font-family="Nunito-Regular" font-size="27.0" fill="#000000" transform="matrix(1.00, 0.00, -0.00, -1.00, 385.1, 256.0)">u</text><text xml:space="preserve" font-family="Nunito-Regular" font-size="27.0" fill="#000000" transform="matrix(1.00, 0.00, -0.00, -1.00, 400.9, 256.0)">p</text><text xml:space="preserve" font-family="Nunito-Regular" font-size="27.0" fill="#000000" transform="matrix(1.00, 0.00, -0.00, -1.00, 416.8, 256.0)">d</text><text xml:space="preserve" font-family="Nunito-Regular" font-size="27.0" fill="#000000" transform="matrix(1.00, 0.00, -0.00, -1.00, 432.7, 256.0)">a</text><text xml:space="preserve" font-family="Nunito-Regular" font-size="27.0" fill="#000000" transform="matrix(1.00, 0.00, -0.00, -1.00, 447.0, 256.0)">t</text><text xml:space="preserve" font-family="Nunito-Regular" font-size="27.0" fill="#000000" transform="matrix(1.00, 0.00, -0.00, -1.00, 456.7, 256.0)">e</text><text xml:space="preserve" font-family="Nunito-Regular" font-size="27.0" fill="#000000" transform="matrix(1.00, 0.00, -0.00, -1.00, 472.0, 256.0)"> </text><text xml:space="preserve" font-family="Nunito-Regular" font-size="27.0" fill="#000000" transform="matrix(1.00, 0.00, -0.00, -1.00, 480.1, 256.0)">y</text><text xml:space="preserve" font-family="Nunito-Regular" font-size="27.0" fill="#000000" transform="matrix(1.00, 0.00, -0.00, -1.00, 493.7, 256.0)">o</text><text xml:space="preserve" font-family="Nunito-Regular" font-size="27.0" fill="#000000" transform="matrix(1.00, 0.00, -0.00, -1.00, 509.6, 256.0)">u</text><text xml:space="preserve" font-family="Nunito-Regular" font-size="27.0" fill="#000000" transform="matrix(1.00, 0.00, -0.00, -1.00, 525.4, 256.0)">r</text><text xml:space="preserve" font-family="Nunito-Regular" font-size="27.0" fill="#000000" transform="matrix(1.00, 0.00, -0.00, -1.00, 535.4, 256.0)"> </text><text xml:space="preserve" font-family="Nunito-Regular" font-size="27.0" fill="#000000" transform="matrix(1.00, 0.00, -0.00, -1.00, 543.5, 256.0)">s</text><text xml:space="preserve" font-family="Nunito-Regular" font-size="27.0" fill="#000000" transform="matrix(1.00, 0.00, -0.00, -1.00, 557.3, 256.0)">t</text><text xml:space="preserve" font-family="Nunito-Regular" font-size="27.0" fill="#000000" transform="matrix(1.00, 0.00, -0.00, -1.00, 567.5, 256.0)">a</text><text xml:space="preserve" font-family="Nunito-Regular" font-size="27.0" fill="#000000" transform="matrix(1.00, 0.00, -0.00, -1.00, 581.7, 256.0)">t</text><text xml:space="preserve" font-family="Nunito-Regular" font-size="27.0" fill="#000000" transform="matrix(1.00, 0.00, -0.00, -1.00, 591.5, 256.0)">e</text><text xml:space="preserve" font-family="Nunito-Regular" font-size="36.0" fill="#000000" transform="matrix(1.00, 0.00, -0.00, -1.00, 117.0, 65.0)">V</text><text xml:space="preserve" font-family="Nunito-Regular" font-size="36.0" fill="#000000" transform="matrix(1.00, 0.00, -0.00, -1.00, 140.3, 65.0)">i</text><text xml:space="preserve" font-family="Nunito-Regular" font-size="36.0" fill="#000000" transform="matrix(1.00, 0.00, -0.00, -1.00, 149.3, 65.0)">e</text><text xml:space="preserve" font-family="Nunito-Regular" font-size="36.0" fill="#000000" transform="matrix(1.00, 0.00, -0.00, -1.00, 169.1, 65.0)">w</text><text xml:space="preserve" font-family="Nunito-Regular" font-size="36.0" fill="#000000" transform="matrix(1.00, 0.00, -0.00, -1.00, 199.7, 65.0)"> </text><text xml:space="preserve" font-family="Nunito-Regular" font-size="36.0" fill="#000000" transform="matrix(1.00, 0.00, -0.00, -1.00, 210.5, 65.0)">-</text><text xml:space="preserve" font-family="Nunito-Regular" font-size="36.0" fill="#000000" transform="matrix(1.00, 0.00, -0.00, -1.00, 221.9, 65.0)"> </text><text xml:space="preserve" font-family="Nunito-Regular" font-size="27.0" fill="#000000" transform="matrix(1.00, 0.00, -0.00, -1.00, 232.8, 65.0)">a</text><text xml:space="preserve" font-family="Nunito-Regular" font-size="27.0" fill="#000000" transform="matrix(1.00, 0.00, -0.00, -1.00, 247.0, 65.0)"> </text><text xml:space="preserve" font-family="Nunito-Regular" font-size="27.0" fill="#000000" transform="matrix(1.00, 0.00, -0.00, -1.00, 255.1, 65.0)">w</text><text xml:space="preserve" font-family="Nunito-Regular" font-size="27.0" fill="#000000" transform="matrix(1.00, 0.00, -0.00, -1.00, 277.7, 65.0)">a</text><text xml:space="preserve" font-family="Nunito-Regular" font-size="27.0" fill="#000000" transform="matrix(1.00, 0.00, -0.00, -1.00, 291.6, 65.0)">y</text><text xml:space="preserve" font-family="Nunito-Regular" font-size="27.0" fill="#000000" transform="matrix(1.00, 0.00, -0.00, -1.00, 305.5, 65.0)"> </text><text xml:space="preserve" font-family="Nunito-Regular" font-size="27.0" fill="#000000" transform="matrix(1.00, 0.00, -0.00, -1.00, 313.6, 65.0)">t</text><text xml:space="preserve" font-family="Nunito-Regular" font-size="27.0" fill="#000000" transform="matrix(1.00, 0.00, -0.00, -1.00, 323.4, 65.0)">o</text><text xml:space="preserve" font-family="Nunito-Regular" font-size="27.0" fill="#000000" transform="matrix(1.00, 0.00, -0.00, -1.00, 339.3, 65.0)"> </text><text xml:space="preserve" font-family="Nunito-Regular" font-size="27.0" fill="#000000" transform="matrix(1.00, 0.00, -0.00, -1.00, 347.5, 65.0)">v</text><text xml:space="preserve" font-family="Nunito-Regular" font-size="27.0" fill="#000000" transform="matrix(1.00, 0.00, -0.00, -1.00, 361.5, 65.0)">i</text><text xml:space="preserve" font-family="Nunito-Regular" font-size="27.0" fill="#000000" transform="matrix(1.00, 0.00, -0.00, -1.00, 368.3, 65.0)">e</text><text xml:space="preserve" font-family="Nunito-Regular" font-size="27.0" fill="#000000" transform="matrix(1.00, 0.00, -0.00, -1.00, 383.2, 65.0)">w</text><text xml:space="preserve" font-family="Nunito-Regular" font-size="27.0" fill="#000000" transform="matrix(1.00, 0.00, -0.00, -1.00, 406.1, 65.0)"> </text><text xml:space="preserve" font-family="Nunito-Regular" font-size="27.0" fill="#000000" transform="matrix(1.00, 0.00, -0.00, -1.00, 414.2, 65.0)">y</text><text xml:space="preserve" font-family="Nunito-Regular" font-size="27.0" fill="#000000" transform="matrix(1.00, 0.00, -0.00, -1.00, 427.8, 65.0)">o</text><text xml:space="preserve" font-family="Nunito-Regular" font-size="27.0" fill="#000000" transform="matrix(1.00, 0.00, -0.00, -1.00, 443.7, 65.0)">u</text><text xml:space="preserve" font-family="Nunito-Regular" font-size="27.0" fill="#000000" transform="matrix(1.00, 0.00, -0.00, -1.00, 459.5, 65.0)">r</text><text xml:space="preserve" font-family="Nunito-Regular" font-size="27.0" fill="#000000" transform="matrix(1.00, 0.00, -0.00, -1.00, 469.5, 65.0)"> </text><text xml:space="preserve" font-family="Nunito-Regular" font-size="27.0" fill="#000000" transform="matrix(1.00, 0.00, -0.00, -1.00, 477.6, 65.0)">s</text><text xml:space="preserve" font-family="Nunito-Regular" font-size="27.0" fill="#000000" transform="matrix(1.00, 0.00, -0.00, -1.00, 491.4, 65.0)">t</text><text xml:space="preserve" font-family="Nunito-Regular" font-size="27.0" fill="#000000" transform="matrix(1.00, 0.00, -0.00, -1.00, 501.6, 65.0)">a</text><text xml:space="preserve" font-family="Nunito-Regular" font-size="27.0" fill="#000000" transform="matrix(1.00, 0.00, -0.00, -1.00, 515.8, 65.0)">t</text><text xml:space="preserve" font-family="Nunito-Regular" font-size="27.0" fill="#000000" transform="matrix(1.00, 0.00, -0.00, -1.00, 525.6, 65.0)">e</text><text xml:space="preserve" font-family="Nunito-Regular" font-size="27.0" fill="#000000" transform="matrix(1.00, 0.00, -0.00, -1.00, 540.9, 65.0)"> </text><text xml:space="preserve" font-family="Nunito-Regular" font-size="27.0" fill="#000000" transform="matrix(1.00, 0.00, -0.00, -1.00, 549.0, 65.0)">a</text><text xml:space="preserve" font-family="Nunito-Regular" font-size="27.0" fill="#000000" transform="matrix(1.00, 0.00, -0.00, -1.00, 563.3, 65.0)">s</text><text xml:space="preserve" font-family="Nunito-Regular" font-size="27.0" fill="#000000" transform="matrix(1.00, 0.00, -0.00, -1.00, 577.1, 65.0)"> </text><text xml:space="preserve" font-family="Nunito-Regular" font-size="27.0" fill="#000000" transform="matrix(1.00, 0.00, -0.00, -1.00, 585.2, 65.0)">H</text><text xml:space="preserve" font-family="Nunito-Regular" font-size="27.0" fill="#000000" transform="matrix(1.00, 0.00, -0.00, -1.00, 604.4, 65.0)">T</text><text xml:space="preserve" font-family="Nunito-Regular" font-size="27.0" fill="#000000" transform="matrix(1.00, 0.00, -0.00, -1.00, 620.2, 65.0)">M</text><text xml:space="preserve" font-family="Nunito-Regular" font-size="27.0" fill="#000000" transform="matrix(1.00, 0.00, -0.00, -1.00, 646.6, 65.0)">L</text><image xlink:href="../../FD83A6B2-2CA8-4263-A4FC-A542A5F5BD7A/assets/8D696DC69B644339D92833FA7D85744F.png" width="230.00" height="540.00" transform="matrix(1.43, 0.00, -0.00, -1.42, 696.0, 768.0)"></image><g opacity="0.20"><g><clipPath id="clip-50"><path d="M 102.0 387.0 L 989.0 387.0 L 989.0 509.0 L 102.0 509.0 Z M 102.0 387.0 "></path></clipPath><g clip-path="url(#clip-50)"><image xlink:href="../../65C5258E-4343-4918-95F0-08BEB32C10EE/assets/985C7EFC3E71234BB58AE07CB994FE64.png" width="883.00" height="115.00" transform="matrix(1.00, 0.00, -0.00, -1.00, 103.7, 504.0)" opacity="0.50"></image></g></g><g><clipPath id="clip-51"><path d="M 106.7 503.0 L 984.1 503.0 L 984.1 393.6 L 106.7 393.6 Z M 106.7 503.0 "></path></clipPath><g clip-path="url(#clip-51)"><g><clipPath id="clip-52"><path d="M 102.0 387.0 L 989.0 387.0 L 989.0 509.0 L 102.0 509.0 Z M 102.0 387.0 "></path></clipPath><g clip-path="url(#clip-52)"><path d="M 106.7 393.6 L 984.1 393.6 L 984.1 503.0 L 106.7 503.0 Z M 106.7 393.6 " fill="url(#978C427C-A902-4C67-8053-B7C528C32267)"></path><path d="M 106.7 503.0 L 984.1 503.0 L 984.1 393.6 L 106.7 393.6 Z M 106.7 503.0 " fill="#FF2A05" fill-opacity="0.50"></path></g></g></g></g></g><g opacity="0.20"><g><clipPath id="clip-53"><path d="M 102.0 142.0 L 989.0 142.0 L 989.0 392.0 L 102.0 392.0 Z M 102.0 142.0 "></path></clipPath><g clip-path="url(#clip-53)"><image xlink:href="../../65C5258E-4343-4918-95F0-08BEB32C10EE/assets/43324AE1D94BEBF1B687519EB959B4A5.png" width="881.00" height="245.00" transform="matrix(1.00, 0.00, -0.00, -1.00, 106.3, 388.4)" opacity="0.79"></image><path d="M 106.7 387.7 L 984.1 387.7 L 984.1 146.6 L 106.7 146.6 Z M 106.7 387.7 " fill="#6FBF40"></path></g></g></g><g opacity="0.20"><g><clipPath id="clip-54"><path d="M 102.0 5.0 L 989.0 5.0 L 989.0 149.0 L 102.0 149.0 Z M 102.0 5.0 "></path></clipPath><g clip-path="url(#clip-54)"><image xlink:href="../../65C5258E-4343-4918-95F0-08BEB32C10EE/assets/070A7650C93E0F1EB490EEC0C8169367.png" width="883.00" height="137.00" transform="matrix(1.00, 0.00, -0.00, -1.00, 103.7, 143.7)" opacity="0.50"></image><path d="M 106.7 142.7 L 984.1 142.7 L 984.1 11.8 L 106.7 11.8 Z M 106.7 142.7 " fill="#A6AAA8"></path></g></g></g><text xml:space="preserve" font-family="Nunito-Regular" font-size="80.0" fill="#000000" transform="matrix(1.00, 0.00, -0.00, -1.00, 104.0, 668.0)">W</text><text xml:space="preserve" font-family="Nunito-Regular" font-size="80.0" fill="#000000" transform="matrix(1.00, 0.00, -0.00, -1.00, 181.7, 668.0)">e</text><text xml:space="preserve" font-family="Nunito-Regular" font-size="80.0" fill="#000000" transform="matrix(1.00, 0.00, -0.00, -1.00, 227.0, 668.0)">l</text><text xml:space="preserve" font-family="Nunito-Regular" font-size="80.0" fill="#000000" transform="matrix(1.00, 0.00, -0.00, -1.00, 246.9, 668.0)">l</text><text xml:space="preserve" font-family="Nunito-Regular" font-size="80.0" fill="#000000" transform="matrix(1.00, 0.00, -0.00, -1.00, 266.9, 668.0)">-</text><text xml:space="preserve" font-family="Nunito-Regular" font-size="80.0" fill="#000000" transform="matrix(1.00, 0.00, -0.00, -1.00, 292.2, 668.0)">O</text><text xml:space="preserve" font-family="Nunito-Regular" font-size="80.0" fill="#000000" transform="matrix(1.00, 0.00, -0.00, -1.00, 354.9, 668.0)">r</text><text xml:space="preserve" font-family="Nunito-Regular" font-size="80.0" fill="#000000" transform="matrix(1.00, 0.00, -0.00, -1.00, 384.7, 668.0)">g</text><text xml:space="preserve" font-family="Nunito-Regular" font-size="80.0" fill="#000000" transform="matrix(1.00, 0.00, -0.00, -1.00, 431.9, 668.0)">a</text><text xml:space="preserve" font-family="Nunito-Regular" font-size="80.0" fill="#000000" transform="matrix(1.00, 0.00, -0.00, -1.00, 474.1, 668.0)">n</text><text xml:space="preserve" font-family="Nunito-Regular" font-size="80.0" fill="#000000" transform="matrix(1.00, 0.00, -0.00, -1.00, 520.9, 668.0)">i</text><text xml:space="preserve" font-family="Nunito-Regular" font-size="80.0" fill="#000000" transform="matrix(1.00, 0.00, -0.00, -1.00, 540.8, 668.0)">s</text><text xml:space="preserve" font-family="Nunito-Regular" font-size="80.0" fill="#000000" transform="matrix(1.00, 0.00, -0.00, -1.00, 581.7, 668.0)">e</text><text xml:space="preserve" font-family="Nunito-Regular" font-size="80.0" fill="#000000" transform="matrix(1.00, 0.00, -0.00, -1.00, 626.9, 668.0)">d</text><text xml:space="preserve" font-family="Nunito-Regular" font-size="80.0" fill="#000000" transform="matrix(1.00, 0.00, -0.00, -1.00, 674.2, 668.0)"> </text><text xml:space="preserve" font-family="Nunito-Regular" font-size="80.0" fill="#000000" transform="matrix(1.00, 0.00, -0.00, -1.00, 291.0, 563.0)">C</text><text xml:space="preserve" font-family="Nunito-Regular" font-size="80.0" fill="#000000" transform="matrix(1.00, 0.00, -0.00, -1.00, 346.6, 563.0)">o</text><text xml:space="preserve" font-family="Nunito-Regular" font-size="80.0" fill="#000000" transform="matrix(1.00, 0.00, -0.00, -1.00, 393.7, 563.0)">d</text><text xml:space="preserve" font-family="Nunito-Regular" font-size="80.0" fill="#000000" transform="matrix(1.00, 0.00, -0.00, -1.00, 440.9, 563.0)">e</text></g></svg>