<?xml version="1.0" encoding="UTF-8" standalone="no"?><svg xmlns="http://www.w3.org/2000/svg" xmlns:xlink="http://www.w3.org/1999/xlink" clip-rule="evenodd" stroke-miterlimit="4.00" viewBox="0 0 403 35"><desc>SVG generated by Keynote</desc><defs></defs><g transform="matrix(1.00, 0.00, -0.00, -1.00, 0.0, 35.0)"><text xml:space="preserve" font-family="Nunito-Regular" font-size="36.0" fill="#000000" transform="matrix(1.00, 0.00, -0.00, -1.00, -1.0, 7.0)">M</text><text xml:space="preserve" font-family="Nunito-Regular" font-size="36.0" fill="#000000" transform="matrix(1.00, 0.00, -0.00, -1.00, 34.2, 7.0)">o</text><text xml:space="preserve" font-family="Nunito-Regular" font-size="36.0" fill="#000000" transform="matrix(1.00, 0.00, -0.00, -1.00, 55.4, 7.0)">d</text><text xml:space="preserve" font-family="Nunito-Regular" font-size="36.0" fill="#000000" transform="matrix(1.00, 0.00, -0.00, -1.00, 76.6, 7.0)">e</text><text xml:space="preserve" font-family="Nunito-Regular" font-size="36.0" fill="#000000" transform="matrix(1.00, 0.00, -0.00, -1.00, 97.0, 7.0)">l</text><text xml:space="preserve" font-family="Nunito-Regular" font-size="36.0" fill="#000000" transform="matrix(1.00, 0.00, -0.00, -1.00, 106.0, 7.0)"> </text><text xml:space="preserve" font-family="Nunito-Regular" font-size="36.0" fill="#000000" transform="matrix(1.00, 0.00, -0.00, -1.00, 116.8, 7.0)">-</text><text xml:space="preserve" font-family="Nunito-Regular" font-size="36.0" fill="#000000" transform="matrix(1.00, 0.00, -0.00, -1.00, 128.2, 7.0)"> </text><text xml:space="preserve" font-family="Nunito-Regular" font-size="27.0" fill="#000000" transform="matrix(1.00, 0.00, -0.00, -1.00, 139.0, 7.0)">t</text><text xml:space="preserve" font-family="Nunito-Regular" font-size="27.0" fill="#000000" transform="matrix(1.00, 0.00, -0.00, -1.00, 148.8, 7.0)">h</text><text xml:space="preserve" font-family="Nunito-Regular" font-size="27.0" fill="#000000" transform="matrix(1.00, 0.00, -0.00, -1.00, 164.6, 7.0)">e</text><text xml:space="preserve" font-family="Nunito-Regular" font-size="27.0" fill="#000000" transform="matrix(1.00, 0.00, -0.00, -1.00, 179.8, 7.0)"> </text><text xml:space="preserve" font-family="Nunito-Regular" font-size="27.0" fill="#000000" transform="matrix(1.00, 0.00, -0.00, -1.00, 187.9, 7.0)">s</text><text xml:space="preserve" font-family="Nunito-Regular" font-size="27.0" fill="#000000" transform="matrix(1.00, 0.00, -0.00, -1.00, 201.7, 7.0)">t</text><text xml:space="preserve" font-family="Nunito-Regular" font-size="27.0" fill="#000000" transform="matrix(1.00, 0.00, -0.00, -1.00, 211.9, 7.0)">a</text><text xml:space="preserve" font-family="Nunito-Regular" font-size="27.0" fill="#000000" transform="matrix(1.00, 0.00, -0.00, -1.00, 226.1, 7.0)">t</text><text xml:space="preserve" font-family="Nunito-Regular" font-size="27.0" fill="#000000" transform="matrix(1.00, 0.00, -0.00, -1.00, 235.9, 7.0)">e</text><text xml:space="preserve" font-family="Nunito-Regular" font-size="27.0" fill="#000000" transform="matrix(1.00, 0.00, -0.00, -1.00, 251.2, 7.0)"> </text><text xml:space="preserve" font-family="Nunito-Regular" font-size="27.0" fill="#000000" transform="matrix(1.00, 0.00, -0.00, -1.00, 259.3, 7.0)">o</text><text xml:space="preserve" font-family="Nunito-Regular" font-size="27.0" fill="#000000" transform="matrix(1.00, 0.00, -0.00, -1.00, 275.3, 7.0)">f</text><text xml:space="preserve" font-family="Nunito-Regular" font-size="27.0" fill="#000000" transform="matrix(1.00, 0.00, -0.00, -1.00, 284.8, 7.0)"> </text><text xml:space="preserve" font-family="Nunito-Regular" font-size="27.0" fill="#000000" transform="matrix(1.00, 0.00, -0.00, -1.00, 292.9, 7.0)">y</text><text xml:space="preserve" font-family="Nunito-Regular" font-size="27.0" fill="#000000" transform="matrix(1.00, 0.00, -0.00, -1.00, 306.5, 7.0)">o</text><text xml:space="preserve" font-family="Nunito-Regular" font-size="27.0" fill="#000000" transform="matrix(1.00, 0.00, -0.00, -1.00, 322.4, 7.0)">u</text><text xml:space="preserve" font-family="Nunito-Regular" font-size="27.0" fill="#000000" transform="matrix(1.00, 0.00, -0.00, -1.00, 338.1, 7.0)">r</text><text xml:space="preserve" font-family="Nunito-Regular" font-size="27.0" fill="#000000" transform="matrix(1.00, 0.00, -0.00, -1.00, 348.2, 7.0)"> </text><text xml:space="preserve" font-family="Nunito-Regular" font-size="27.0" fill="#000000" transform="matrix(1.00, 0.00, -0.00, -1.00, 356.3, 7.0)">a</text><text xml:space="preserve" font-family="Nunito-Regular" font-size="27.0" fill="#000000" transform="matrix(1.00, 0.00, -0.00, -1.00, 370.6, 7.0)">p</text><text xml:space="preserve" font-family="Nunito-Regular" font-size="27.0" fill="#000000" transform="matrix(1.00, 0.00, -0.00, -1.00, 386.5, 7.0)">p</text></g></svg>