<?xml version="1.0" encoding="UTF-8" standalone="no"?><svg xmlns="http://www.w3.org/2000/svg" xmlns:xlink="http://www.w3.org/1999/xlink" clip-rule="evenodd" stroke-miterlimit="4.00" viewBox="0 0 736 143"><desc>SVG generated by Keynote</desc><defs></defs><g transform="matrix(1.00, 0.00, -0.00, -1.00, 0.0, 143.0)"><text xml:space="preserve" font-family="Nunito-Regular" font-size="154.0" fill="#000000" transform="matrix(1.00, 0.00, -0.00, -1.00, -3.0, 31.0)">J</text><text xml:space="preserve" font-family="Nunito-Regular" font-size="154.0" fill="#000000" transform="matrix(1.00, 0.00, -0.00, -1.00, 79.5, 31.0)">a</text><text xml:space="preserve" font-family="Nunito-Regular" font-size="154.0" fill="#000000" transform="matrix(1.00, 0.00, -0.00, -1.00, 158.5, 31.0)">v</text><text xml:space="preserve" font-family="Nunito-Regular" font-size="154.0" fill="#000000" transform="matrix(1.00, 0.00, -0.00, -1.00, 236.7, 31.0)">a</text><text xml:space="preserve" font-family="Nunito-Regular" font-size="154.0" fill="#000000" transform="matrix(1.00, 0.00, -0.00, -1.00, 318.0, 31.0)">S</text><text xml:space="preserve" font-family="Nunito-Regular" font-size="154.0" fill="#000000" transform="matrix(1.00, 0.00, -0.00, -1.00, 417.2, 31.0)">c</text><text xml:space="preserve" font-family="Nunito-Regular" font-size="154.0" fill="#000000" transform="matrix(1.00, 0.00, -0.00, -1.00, 492.3, 31.0)">r</text><text xml:space="preserve" font-family="Nunito-Regular" font-size="154.0" fill="#000000" transform="matrix(1.00, 0.00, -0.00, -1.00, 549.6, 31.0)">i</text><text xml:space="preserve" font-family="Nunito-Regular" font-size="154.0" fill="#000000" transform="matrix(1.00, 0.00, -0.00, -1.00, 587.9, 31.0)">p</text><text xml:space="preserve" font-family="Nunito-Regular" font-size="154.0" fill="#000000" transform="matrix(1.00, 0.00, -0.00, -1.00, 678.7, 31.0)">t</text></g></svg>