<?xml version="1.0" encoding="UTF-8" standalone="no"?><svg xmlns="http://www.w3.org/2000/svg" xmlns:xlink="http://www.w3.org/1999/xlink" clip-rule="evenodd" stroke-miterlimit="4.00" viewBox="0 0 1024 768"><desc>SVG generated by Keynote</desc><defs></defs><g transform="matrix(1.00, 0.00, -0.00, -1.00, 0.0, 768.0)"><path d="M 0.0 768.0 L 1024.0 768.0 L 1024.0 0.0 L 0.0 0.0 Z M 0.0 768.0 " fill="#FEFFFF"></path><image xlink:href="../../0BCB08C9-0974-4782-B9F2-19C026F641F7/assets/1A139F02848F119018380FA52277821C.png" width="145.00" height="132.00" transform="matrix(1.00, 0.00, -0.00, -1.00, 227.0, 718.0)"></image><image xlink:href="../../0BCB08C9-0974-4782-B9F2-19C026F641F7/assets/6B430B5C76F90A2AA44DE55B3AAD2C09.png" width="263.00" height="71.00" transform="matrix(1.00, 0.00, -0.00, -1.00, 607.0, 687.0)"></image><image xlink:href="../../0BCB08C9-0974-4782-B9F2-19C026F641F7/assets/F58D8ACDAF90F7B0A47C3AB3DFA645D4.png" width="229.00" height="220.00" transform="matrix(1.00, 0.00, -0.00, -1.00, 370.0, 706.0)"></image><image xlink:href="../../9DA687A8-CBD3-4FD8-99B4-DA470BF18A3D/assets/75030181A5C0C7DAC3213855594D7E4A.png" width="147.00" height="160.00" transform="matrix(1.00, 0.00, -0.00, -1.00, 197.0, 477.0)"></image><image xlink:href="../../9DA687A8-CBD3-4FD8-99B4-DA470BF18A3D/assets/9E6DF802E8D5EE59AFB73156D6ED93A5.jpeg" width="125.00" height="125.00" transform="matrix(1.00, 0.00, -0.00, -0.99, 649.0, 470.0)"></image><text xml:space="preserve" font-family="Nunito-Light" font-size="44.0" fill="#000000" transform="matrix(1.00, 0.00, -0.00, -1.00, 194.0, 282.0)">A</text><text xml:space="preserve" font-family="Nunito-Light" font-size="44.0" fill="#000000" transform="matrix(1.00, 0.00, -0.00, -1.00, 223.9, 282.0)">n</text><text xml:space="preserve" font-family="Nunito-Light" font-size="44.0" fill="#000000" transform="matrix(1.00, 0.00, -0.00, -1.00, 248.8, 282.0)">g</text><text xml:space="preserve" font-family="Nunito-Light" font-size="44.0" fill="#000000" transform="matrix(1.00, 0.00, -0.00, -1.00, 273.8, 282.0)">u</text><text xml:space="preserve" font-family="Nunito-Light" font-size="44.0" fill="#000000" transform="matrix(1.00, 0.00, -0.00, -1.00, 298.7, 282.0)">l</text><text xml:space="preserve" font-family="Nunito-Light" font-size="44.0" fill="#000000" transform="matrix(1.00, 0.00, -0.00, -1.00, 308.9, 282.0)">a</text><text xml:space="preserve" font-family="Nunito-Light" font-size="44.0" fill="#000000" transform="matrix(1.00, 0.00, -0.00, -1.00, 331.4, 282.0)">r</text><text xml:space="preserve" font-family="Nunito-Light" font-size="44.0" fill="#000000" transform="matrix(1.00, 0.00, -0.00, -1.00, 636.0, 304.0)">C</text><text xml:space="preserve" font-family="Nunito-Light" font-size="44.0" fill="#000000" transform="matrix(1.00, 0.00, -0.00, -1.00, 664.8, 304.0)">y</text><text xml:space="preserve" font-family="Nunito-Light" font-size="44.0" fill="#000000" transform="matrix(1.00, 0.00, -0.00, -1.00, 686.1, 304.0)">c</text><text xml:space="preserve" font-family="Nunito-Light" font-size="44.0" fill="#000000" transform="matrix(1.00, 0.00, -0.00, -1.00, 707.0, 304.0)">l</text><text xml:space="preserve" font-family="Nunito-Light" font-size="44.0" fill="#000000" transform="matrix(1.00, 0.00, -0.00, -1.00, 717.2, 304.0)">e</text><text xml:space="preserve" font-family="Nunito-Light" font-size="44.0" fill="#000000" transform="matrix(1.00, 0.00, -0.00, -1.00, 741.4, 304.0)">.</text><text xml:space="preserve" font-family="Nunito-Light" font-size="44.0" fill="#000000" transform="matrix(1.00, 0.00, -0.00, -1.00, 753.9, 304.0)">j</text><text xml:space="preserve" font-family="Nunito-Light" font-size="44.0" fill="#000000" transform="matrix(1.00, 0.00, -0.00, -1.00, 764.2, 304.0)">s</text><image xlink:href="../../9DA687A8-CBD3-4FD8-99B4-DA470BF18A3D/assets/D30A5D1CD9B0C61223C02CE459AA3823.jpeg" width="155.00" height="147.00" transform="matrix(0.99, 0.00, -0.00, -1.00, 407.0, 447.0)"></image><text xml:space="preserve" font-family="Nunito-Regular" font-size="154.0" fill="#000000" transform="matrix(1.00, 0.00, -0.00, -1.00, 115.0, 103.0)">J</text><text xml:space="preserve" font-family="Nunito-Regular" font-size="154.0" fill="#000000" transform="matrix(1.00, 0.00, -0.00, -1.00, 197.5, 103.0)">a</text><text xml:space="preserve" font-family="Nunito-Regular" font-size="154.0" fill="#000000" transform="matrix(1.00, 0.00, -0.00, -1.00, 276.5, 103.0)">v</text><text xml:space="preserve" font-family="Nunito-Regular" font-size="154.0" fill="#000000" transform="matrix(1.00, 0.00, -0.00, -1.00, 354.7, 103.0)">a</text><text xml:space="preserve" font-family="Nunito-Regular" font-size="154.0" fill="#000000" transform="matrix(1.00, 0.00, -0.00, -1.00, 436.0, 103.0)">S</text><text xml:space="preserve" font-family="Nunito-Regular" font-size="154.0" fill="#000000" transform="matrix(1.00, 0.00, -0.00, -1.00, 535.2, 103.0)">c</text><text xml:space="preserve" font-family="Nunito-Regular" font-size="154.0" fill="#000000" transform="matrix(1.00, 0.00, -0.00, -1.00, 610.3, 103.0)">r</text><text xml:space="preserve" font-family="Nunito-Regular" font-size="154.0" fill="#000000" transform="matrix(1.00, 0.00, -0.00, -1.00, 667.6, 103.0)">i</text><text xml:space="preserve" font-family="Nunito-Regular" font-size="154.0" fill="#000000" transform="matrix(1.00, 0.00, -0.00, -1.00, 705.9, 103.0)">p</text><text xml:space="preserve" font-family="Nunito-Regular" font-size="154.0" fill="#000000" transform="matrix(1.00, 0.00, -0.00, -1.00, 796.7, 103.0)">t</text></g></svg>