<?xml version="1.0" encoding="UTF-8" standalone="no"?><svg xmlns="http://www.w3.org/2000/svg" xmlns:xlink="http://www.w3.org/1999/xlink" clip-rule="evenodd" stroke-miterlimit="4.00" viewBox="0 0 1024 768"><desc>SVG generated by Keynote</desc><defs></defs><g transform="matrix(1.00, 0.00, -0.00, -1.00, 0.0, 768.0)"><path d="M 0.0 768.0 L 1024.0 768.0 L 1024.0 0.0 L 0.0 0.0 Z M 0.0 768.0 " fill="#FEFFFF"></path><text xml:space="preserve" font-family="Nunito-Light" font-size="36.0" fill="#000000" transform="matrix(1.00, 0.00, -0.00, -1.00, 301.0, 655.0)">C</text><text xml:space="preserve" font-family="Nunito-Light" font-size="36.0" fill="#000000" transform="matrix(1.00, 0.00, -0.00, -1.00, 325.4, 655.0)">r</text><text xml:space="preserve" font-family="Nunito-Light" font-size="36.0" fill="#000000" transform="matrix(1.00, 0.00, -0.00, -1.00, 337.8, 655.0)">e</text><text xml:space="preserve" font-family="Nunito-Light" font-size="36.0" fill="#000000" transform="matrix(1.00, 0.00, -0.00, -1.00, 357.6, 655.0)">a</text><text xml:space="preserve" font-family="Nunito-Light" font-size="36.0" fill="#000000" transform="matrix(1.00, 0.00, -0.00, -1.00, 376.0, 655.0)">t</text><text xml:space="preserve" font-family="Nunito-Light" font-size="36.0" fill="#000000" transform="matrix(1.00, 0.00, -0.00, -1.00, 388.4, 655.0)">e</text><text xml:space="preserve" font-family="Nunito-Light" font-size="36.0" fill="#000000" transform="matrix(1.00, 0.00, -0.00, -1.00, 408.2, 655.0)">d</text><text xml:space="preserve" font-family="Nunito-Light" font-size="36.0" fill="#000000" transform="matrix(1.00, 0.00, -0.00, -1.00, 428.7, 655.0)"> </text><text xml:space="preserve" font-family="Nunito-Light" font-size="36.0" fill="#000000" transform="matrix(1.00, 0.00, -0.00, -1.00, 438.9, 655.0)">b</text><text xml:space="preserve" font-family="Nunito-Light" font-size="36.0" fill="#000000" transform="matrix(1.00, 0.00, -0.00, -1.00, 458.6, 655.0)">y</text><text xml:space="preserve" font-family="Nunito-Light" font-size="36.0" fill="#000000" transform="matrix(1.00, 0.00, -0.00, -1.00, 476.7, 655.0)"> </text><text xml:space="preserve" font-family="Nunito-Regular" font-size="36.0" fill="#000000" transform="matrix(1.00, 0.00, -0.00, -1.00, 487.0, 655.0)">E</text><text xml:space="preserve" font-family="Nunito-Regular" font-size="36.0" fill="#000000" transform="matrix(1.00, 0.00, -0.00, -1.00, 509.2, 655.0)">v</text><text xml:space="preserve" font-family="Nunito-Regular" font-size="36.0" fill="#000000" transform="matrix(1.00, 0.00, -0.00, -1.00, 527.5, 655.0)">a</text><text xml:space="preserve" font-family="Nunito-Regular" font-size="36.0" fill="#000000" transform="matrix(1.00, 0.00, -0.00, -1.00, 546.5, 655.0)">n</text><text xml:space="preserve" font-family="Nunito-Regular" font-size="36.0" fill="#000000" transform="matrix(1.00, 0.00, -0.00, -1.00, 567.5, 655.0)"> </text><text xml:space="preserve" font-family="Nunito-Regular" font-size="36.0" fill="#000000" transform="matrix(1.00, 0.00, -0.00, -1.00, 578.4, 655.0)">C</text><text xml:space="preserve" font-family="Nunito-Regular" font-size="36.0" fill="#000000" transform="matrix(1.00, 0.00, -0.00, -1.00, 603.4, 655.0)">z</text><text xml:space="preserve" font-family="Nunito-Regular" font-size="36.0" fill="#000000" transform="matrix(1.00, 0.00, -0.00, -1.00, 620.3, 655.0)">a</text><text xml:space="preserve" font-family="Nunito-Regular" font-size="36.0" fill="#000000" transform="matrix(1.00, 0.00, -0.00, -1.00, 639.4, 655.0)">p</text><text xml:space="preserve" font-family="Nunito-Regular" font-size="36.0" fill="#000000" transform="matrix(1.00, 0.00, -0.00, -1.00, 660.6, 655.0)">l</text><text xml:space="preserve" font-family="Nunito-Regular" font-size="36.0" fill="#000000" transform="matrix(1.00, 0.00, -0.00, -1.00, 669.6, 655.0)">i</text><text xml:space="preserve" font-family="Nunito-Regular" font-size="36.0" fill="#000000" transform="matrix(1.00, 0.00, -0.00, -1.00, 678.5, 655.0)">c</text><text xml:space="preserve" font-family="Nunito-Regular" font-size="36.0" fill="#000000" transform="matrix(1.00, 0.00, -0.00, -1.00, 694.8, 655.0)">k</text><text xml:space="preserve" font-family="Nunito-Regular" font-size="36.0" fill="#000000" transform="matrix(1.00, 0.00, -0.00, -1.00, 713.3, 655.0)">i</text><text xml:space="preserve" font-family="Nunito-Regular" font-size="36.0" fill="#000000" transform="matrix(1.00, 0.00, -0.00, -1.00, 66.0, 506.0)">M</text><text xml:space="preserve" font-family="Nunito-Regular" font-size="36.0" fill="#000000" transform="matrix(1.00, 0.00, -0.00, -1.00, 101.2, 506.0)">i</text><text xml:space="preserve" font-family="Nunito-Regular" font-size="36.0" fill="#000000" transform="matrix(1.00, 0.00, -0.00, -1.00, 110.1, 506.0)">s</text><text xml:space="preserve" font-family="Nunito-Regular" font-size="36.0" fill="#000000" transform="matrix(1.00, 0.00, -0.00, -1.00, 128.5, 506.0)">s</text><text xml:space="preserve" font-family="Nunito-Regular" font-size="36.0" fill="#000000" transform="matrix(1.00, 0.00, -0.00, -1.00, 146.9, 506.0)">i</text><text xml:space="preserve" font-family="Nunito-Regular" font-size="36.0" fill="#000000" transform="matrix(1.00, 0.00, -0.00, -1.00, 155.9, 506.0)">o</text><text xml:space="preserve" font-family="Nunito-Regular" font-size="36.0" fill="#000000" transform="matrix(1.00, 0.00, -0.00, -1.00, 177.1, 506.0)">n</text><text xml:space="preserve" font-family="Nunito-Regular" font-size="36.0" fill="#000000" transform="matrix(1.00, 0.00, -0.00, -1.00, 198.1, 506.0)"> </text><text xml:space="preserve" font-family="Nunito-Regular" font-size="36.0" fill="#000000" transform="matrix(1.00, 0.00, -0.00, -1.00, 208.9, 506.0)">I</text><text xml:space="preserve" font-family="Nunito-Regular" font-size="36.0" fill="#000000" transform="matrix(1.00, 0.00, -0.00, -1.00, 220.1, 506.0)">m</text><text xml:space="preserve" font-family="Nunito-Regular" font-size="36.0" fill="#000000" transform="matrix(1.00, 0.00, -0.00, -1.00, 253.1, 506.0)">p</text><text xml:space="preserve" font-family="Nunito-Regular" font-size="36.0" fill="#000000" transform="matrix(1.00, 0.00, -0.00, -1.00, 274.3, 506.0)">o</text><text xml:space="preserve" font-family="Nunito-Regular" font-size="36.0" fill="#000000" transform="matrix(1.00, 0.00, -0.00, -1.00, 295.6, 506.0)">s</text><text xml:space="preserve" font-family="Nunito-Regular" font-size="36.0" fill="#000000" transform="matrix(1.00, 0.00, -0.00, -1.00, 313.9, 506.0)">s</text><text xml:space="preserve" font-family="Nunito-Regular" font-size="36.0" fill="#000000" transform="matrix(1.00, 0.00, -0.00, -1.00, 332.3, 506.0)">i</text><text xml:space="preserve" font-family="Nunito-Regular" font-size="36.0" fill="#000000" transform="matrix(1.00, 0.00, -0.00, -1.00, 341.3, 506.0)">b</text><text xml:space="preserve" font-family="Nunito-Regular" font-size="36.0" fill="#000000" transform="matrix(1.00, 0.00, -0.00, -1.00, 362.4, 506.0)">l</text><text xml:space="preserve" font-family="Nunito-Regular" font-size="36.0" fill="#000000" transform="matrix(1.00, 0.00, -0.00, -1.00, 371.4, 506.0)">e</text><text xml:space="preserve" font-family="Nunito-Light" font-size="36.0" fill="#000000" transform="matrix(1.00, 0.00, -0.00, -1.00, 64.0, 436.0)">T</text><text xml:space="preserve" font-family="Nunito-Light" font-size="36.0" fill="#000000" transform="matrix(1.00, 0.00, -0.00, -1.00, 80.2, 436.0)">o</text><text xml:space="preserve" font-family="Nunito-Light" font-size="36.0" fill="#000000" transform="matrix(1.00, 0.00, -0.00, -1.00, 100.7, 436.0)"> </text><text xml:space="preserve" font-family="Nunito-Light" font-size="36.0" fill="#000000" transform="matrix(1.00, 0.00, -0.00, -1.00, 111.0, 436.0)">m</text><text xml:space="preserve" font-family="Nunito-Light" font-size="36.0" fill="#000000" transform="matrix(1.00, 0.00, -0.00, -1.00, 143.3, 436.0)">a</text><text xml:space="preserve" font-family="Nunito-Light" font-size="36.0" fill="#000000" transform="matrix(1.00, 0.00, -0.00, -1.00, 161.7, 436.0)">k</text><text xml:space="preserve" font-family="Nunito-Light" font-size="36.0" fill="#000000" transform="matrix(1.00, 0.00, -0.00, -1.00, 178.5, 436.0)">e</text><text xml:space="preserve" font-family="Nunito-Light" font-size="36.0" fill="#000000" transform="matrix(1.00, 0.00, -0.00, -1.00, 198.3, 436.0)"> </text><text xml:space="preserve" font-family="Nunito-Light" font-size="36.0" fill="#000000" transform="matrix(1.00, 0.00, -0.00, -1.00, 208.6, 436.0)">G</text><text xml:space="preserve" font-family="Nunito-Light" font-size="36.0" fill="#000000" transform="matrix(1.00, 0.00, -0.00, -1.00, 235.0, 436.0)">U</text><text xml:space="preserve" font-family="Nunito-Light" font-size="36.0" fill="#000000" transform="matrix(1.00, 0.00, -0.00, -1.00, 261.1, 436.0)">I</text><text xml:space="preserve" font-family="Nunito-Light" font-size="36.0" fill="#000000" transform="matrix(1.00, 0.00, -0.00, -1.00, 271.5, 436.0)"> </text><text xml:space="preserve" font-family="Nunito-Light" font-size="36.0" fill="#000000" transform="matrix(1.00, 0.00, -0.00, -1.00, 281.8, 436.0)">p</text><text xml:space="preserve" font-family="Nunito-Light" font-size="36.0" fill="#000000" transform="matrix(1.00, 0.00, -0.00, -1.00, 302.3, 436.0)">r</text><text xml:space="preserve" font-family="Nunito-Light" font-size="36.0" fill="#000000" transform="matrix(1.00, 0.00, -0.00, -1.00, 314.7, 436.0)">o</text><text xml:space="preserve" font-family="Nunito-Light" font-size="36.0" fill="#000000" transform="matrix(1.00, 0.00, -0.00, -1.00, 335.1, 436.0)">g</text><text xml:space="preserve" font-family="Nunito-Light" font-size="36.0" fill="#000000" transform="matrix(1.00, 0.00, -0.00, -1.00, 355.5, 436.0)">r</text><text xml:space="preserve" font-family="Nunito-Light" font-size="36.0" fill="#000000" transform="matrix(1.00, 0.00, -0.00, -1.00, 368.0, 436.0)">a</text><text xml:space="preserve" font-family="Nunito-Light" font-size="36.0" fill="#000000" transform="matrix(1.00, 0.00, -0.00, -1.00, 386.4, 436.0)">m</text><text xml:space="preserve" font-family="Nunito-Light" font-size="36.0" fill="#000000" transform="matrix(1.00, 0.00, -0.00, -1.00, 418.7, 436.0)">m</text><text xml:space="preserve" font-family="Nunito-Light" font-size="36.0" fill="#000000" transform="matrix(1.00, 0.00, -0.00, -1.00, 451.1, 436.0)">i</text><text xml:space="preserve" font-family="Nunito-Light" font-size="36.0" fill="#000000" transform="matrix(1.00, 0.00, -0.00, -1.00, 459.4, 436.0)">n</text><text xml:space="preserve" font-family="Nunito-Light" font-size="36.0" fill="#000000" transform="matrix(1.00, 0.00, -0.00, -1.00, 479.8, 436.0)">g</text><text xml:space="preserve" font-family="Nunito-Light" font-size="36.0" fill="#000000" transform="matrix(1.00, 0.00, -0.00, -1.00, 500.2, 436.0)"> </text><text xml:space="preserve" font-family="Nunito-Light" font-size="36.0" fill="#000000" transform="matrix(1.00, 0.00, -0.00, -1.00, 510.5, 436.0)">m</text><text xml:space="preserve" font-family="Nunito-Light" font-size="36.0" fill="#000000" transform="matrix(1.00, 0.00, -0.00, -1.00, 542.9, 436.0)">o</text><text xml:space="preserve" font-family="Nunito-Light" font-size="36.0" fill="#000000" transform="matrix(1.00, 0.00, -0.00, -1.00, 563.3, 436.0)">r</text><text xml:space="preserve" font-family="Nunito-Light" font-size="36.0" fill="#000000" transform="matrix(1.00, 0.00, -0.00, -1.00, 575.7, 436.0)">e</text><text xml:space="preserve" font-family="Nunito-Light" font-size="36.0" fill="#000000" transform="matrix(1.00, 0.00, -0.00, -1.00, 595.6, 436.0)"> </text><text xml:space="preserve" font-family="Nunito-Light" font-size="36.0" fill="#000000" transform="matrix(1.00, 0.00, -0.00, -1.00, 605.9, 436.0)">p</text><text xml:space="preserve" font-family="Nunito-Light" font-size="36.0" fill="#000000" transform="matrix(1.00, 0.00, -0.00, -1.00, 626.3, 436.0)">l</text><text xml:space="preserve" font-family="Nunito-Light" font-size="36.0" fill="#000000" transform="matrix(1.00, 0.00, -0.00, -1.00, 634.6, 436.0)">e</text><text xml:space="preserve" font-family="Nunito-Light" font-size="36.0" fill="#000000" transform="matrix(1.00, 0.00, -0.00, -1.00, 654.5, 436.0)">a</text><text xml:space="preserve" font-family="Nunito-Light" font-size="36.0" fill="#000000" transform="matrix(1.00, 0.00, -0.00, -1.00, 672.9, 436.0)">s</text><text xml:space="preserve" font-family="Nunito-Light" font-size="36.0" fill="#000000" transform="matrix(1.00, 0.00, -0.00, -1.00, 690.9, 436.0)">a</text><text xml:space="preserve" font-family="Nunito-Light" font-size="36.0" fill="#000000" transform="matrix(1.00, 0.00, -0.00, -1.00, 709.2, 436.0)">n</text><text xml:space="preserve" font-family="Nunito-Light" font-size="36.0" fill="#000000" transform="matrix(1.00, 0.00, -0.00, -1.00, 729.6, 436.0)">t</text><g><clipPath id="clip-4"><path d="M 81.0 414.0 L 229.0 414.0 L 229.0 337.0 L 81.0 337.0 Z M 80.6 414.5 "></path></clipPath><g clip-path="url(#clip-4)"><image xlink:href="ED60573D413E754B3CE0C98BBD60F57C.png" width="190.00" height="142.00" transform="matrix(0.99, 0.00, -0.00, -1.00, 51.0, 443.0)"></image></g></g><text xml:space="preserve" font-family="Nunito-Light" font-size="36.0" fill="#000000" transform="matrix(1.00, 0.00, -0.00, -1.00, 64.0, 247.0)">T</text><text xml:space="preserve" font-family="Nunito-Light" font-size="36.0" fill="#000000" transform="matrix(1.00, 0.00, -0.00, -1.00, 80.2, 247.0)">o</text><text xml:space="preserve" font-family="Nunito-Light" font-size="36.0" fill="#000000" transform="matrix(1.00, 0.00, -0.00, -1.00, 100.7, 247.0)"> </text><text xml:space="preserve" font-family="Nunito-Light" font-size="36.0" fill="#000000" transform="matrix(1.00, 0.00, -0.00, -1.00, 111.0, 247.0)">m</text><text xml:space="preserve" font-family="Nunito-Light" font-size="36.0" fill="#000000" transform="matrix(1.00, 0.00, -0.00, -1.00, 143.3, 247.0)">a</text><text xml:space="preserve" font-family="Nunito-Light" font-size="36.0" fill="#000000" transform="matrix(1.00, 0.00, -0.00, -1.00, 161.7, 247.0)">k</text><text xml:space="preserve" font-family="Nunito-Light" font-size="36.0" fill="#000000" transform="matrix(1.00, 0.00, -0.00, -1.00, 178.5, 247.0)">e</text><text xml:space="preserve" font-family="Nunito-Light" font-size="36.0" fill="#000000" transform="matrix(1.00, 0.00, -0.00, -1.00, 198.3, 247.0)"> </text><text xml:space="preserve" font-family="Nunito-Light" font-size="36.0" fill="#000000" transform="matrix(1.00, 0.00, -0.00, -1.00, 208.6, 247.0)">p</text><text xml:space="preserve" font-family="Nunito-Light" font-size="36.0" fill="#000000" transform="matrix(1.00, 0.00, -0.00, -1.00, 229.1, 247.0)">r</text><text xml:space="preserve" font-family="Nunito-Light" font-size="36.0" fill="#000000" transform="matrix(1.00, 0.00, -0.00, -1.00, 241.5, 247.0)">o</text><text xml:space="preserve" font-family="Nunito-Light" font-size="36.0" fill="#000000" transform="matrix(1.00, 0.00, -0.00, -1.00, 261.9, 247.0)">g</text><text xml:space="preserve" font-family="Nunito-Light" font-size="36.0" fill="#000000" transform="matrix(1.00, 0.00, -0.00, -1.00, 282.3, 247.0)">r</text><text xml:space="preserve" font-family="Nunito-Light" font-size="36.0" fill="#000000" transform="matrix(1.00, 0.00, -0.00, -1.00, 294.8, 247.0)">a</text><text xml:space="preserve" font-family="Nunito-Light" font-size="36.0" fill="#000000" transform="matrix(1.00, 0.00, -0.00, -1.00, 313.2, 247.0)">m</text><text xml:space="preserve" font-family="Nunito-Light" font-size="36.0" fill="#000000" transform="matrix(1.00, 0.00, -0.00, -1.00, 345.5, 247.0)">m</text><text xml:space="preserve" font-family="Nunito-Light" font-size="36.0" fill="#000000" transform="matrix(1.00, 0.00, -0.00, -1.00, 377.9, 247.0)">i</text><text xml:space="preserve" font-family="Nunito-Light" font-size="36.0" fill="#000000" transform="matrix(1.00, 0.00, -0.00, -1.00, 386.2, 247.0)">n</text><text xml:space="preserve" font-family="Nunito-Light" font-size="36.0" fill="#000000" transform="matrix(1.00, 0.00, -0.00, -1.00, 406.6, 247.0)">g</text><text xml:space="preserve" font-family="Nunito-Light" font-size="36.0" fill="#000000" transform="matrix(1.00, 0.00, -0.00, -1.00, 427.0, 247.0)"> </text><text xml:space="preserve" font-family="Nunito-Light" font-size="36.0" fill="#000000" transform="matrix(1.00, 0.00, -0.00, -1.00, 437.3, 247.0)">m</text><text xml:space="preserve" font-family="Nunito-Light" font-size="36.0" fill="#000000" transform="matrix(1.00, 0.00, -0.00, -1.00, 469.7, 247.0)">o</text><text xml:space="preserve" font-family="Nunito-Light" font-size="36.0" fill="#000000" transform="matrix(1.00, 0.00, -0.00, -1.00, 490.1, 247.0)">r</text><text xml:space="preserve" font-family="Nunito-Light" font-size="36.0" fill="#000000" transform="matrix(1.00, 0.00, -0.00, -1.00, 502.5, 247.0)">e</text><text xml:space="preserve" font-family="Nunito-Light" font-size="36.0" fill="#000000" transform="matrix(1.00, 0.00, -0.00, -1.00, 522.4, 247.0)"> </text><text xml:space="preserve" font-family="Nunito-Light" font-size="36.0" fill="#000000" transform="matrix(1.00, 0.00, -0.00, -1.00, 532.7, 247.0)">a</text><text xml:space="preserve" font-family="Nunito-Light" font-size="36.0" fill="#000000" transform="matrix(1.00, 0.00, -0.00, -1.00, 551.0, 247.0)">c</text><text xml:space="preserve" font-family="Nunito-Light" font-size="36.0" fill="#000000" transform="matrix(1.00, 0.00, -0.00, -1.00, 568.1, 247.0)">c</text><text xml:space="preserve" font-family="Nunito-Light" font-size="36.0" fill="#000000" transform="matrix(1.00, 0.00, -0.00, -1.00, 585.1, 247.0)">e</text><text xml:space="preserve" font-family="Nunito-Light" font-size="36.0" fill="#000000" transform="matrix(1.00, 0.00, -0.00, -1.00, 605.0, 247.0)">s</text><text xml:space="preserve" font-family="Nunito-Light" font-size="36.0" fill="#000000" transform="matrix(1.00, 0.00, -0.00, -1.00, 623.0, 247.0)">s</text><text xml:space="preserve" font-family="Nunito-Light" font-size="36.0" fill="#000000" transform="matrix(1.00, 0.00, -0.00, -1.00, 641.0, 247.0)">i</text><text xml:space="preserve" font-family="Nunito-Light" font-size="36.0" fill="#000000" transform="matrix(1.00, 0.00, -0.00, -1.00, 649.4, 247.0)">b</text><text xml:space="preserve" font-family="Nunito-Light" font-size="36.0" fill="#000000" transform="matrix(1.00, 0.00, -0.00, -1.00, 669.7, 247.0)">l</text><text xml:space="preserve" font-family="Nunito-Light" font-size="36.0" fill="#000000" transform="matrix(1.00, 0.00, -0.00, -1.00, 678.1, 247.0)">e</text><image xlink:href="../../3F447D67-C905-4B33-BB3A-D5A239CC980E/assets/ED60573D413E754B3CE0C98BBD60F57C.png" width="190.00" height="142.00" transform="matrix(0.99, 0.00, -0.00, -1.00, 51.0, 254.0)"></image></g></svg>