<?xml version="1.0" encoding="UTF-8" standalone="no"?><svg xmlns="http://www.w3.org/2000/svg" xmlns:xlink="http://www.w3.org/1999/xlink" clip-rule="evenodd" stroke-miterlimit="4.00" viewBox="0 0 1024 768"><desc>SVG generated by Keynote</desc><defs></defs><g transform="matrix(1.00, 0.00, -0.00, -1.00, 0.0, 768.0)"><path d="M 0.0 768.0 L 1024.0 768.0 L 1024.0 0.0 L 0.0 0.0 Z M 0.0 768.0 " fill="#FEFFFF"></path><text xml:space="preserve" font-family="Nunito-Bold" font-weight="bold" font-size="41.0" fill="#000000" transform="matrix(1.00, 0.00, -0.00, -1.00, 62.0, 647.0)">P</text><text xml:space="preserve" font-family="Nunito-Bold" font-weight="bold" font-size="41.0" fill="#000000" transform="matrix(1.00, 0.00, -0.00, -1.00, 89.3, 647.0)">r</text><text xml:space="preserve" font-family="Nunito-Bold" font-weight="bold" font-size="41.0" fill="#000000" transform="matrix(1.00, 0.00, -0.00, -1.00, 105.6, 647.0)">o</text><text xml:space="preserve" font-family="Nunito-Bold" font-weight="bold" font-size="41.0" fill="#000000" transform="matrix(1.00, 0.00, -0.00, -1.00, 130.8, 647.0)">g</text><text xml:space="preserve" font-family="Nunito-Bold" font-weight="bold" font-size="41.0" fill="#000000" transform="matrix(1.00, 0.00, -0.00, -1.00, 156.0, 647.0)">r</text><text xml:space="preserve" font-family="Nunito-Bold" font-weight="bold" font-size="41.0" fill="#000000" transform="matrix(1.00, 0.00, -0.00, -1.00, 172.5, 647.0)">a</text><text xml:space="preserve" font-family="Nunito-Bold" font-weight="bold" font-size="41.0" fill="#000000" transform="matrix(1.00, 0.00, -0.00, -1.00, 195.0, 647.0)">m</text><text xml:space="preserve" font-family="Nunito-Bold" font-weight="bold" font-size="41.0" fill="#000000" transform="matrix(1.00, 0.00, -0.00, -1.00, 233.4, 647.0)">:</text><text xml:space="preserve" font-family="Nunito-Bold" font-weight="bold" font-size="41.0" fill="#000000" transform="matrix(1.00, 0.00, -0.00, -1.00, 245.9, 647.0)"> </text><text xml:space="preserve" font-family="Nunito-Bold" font-weight="bold" font-size="41.0" fill="#000000" transform="matrix(1.00, 0.00, -0.00, -1.00, 258.9, 647.0)">(</text><text xml:space="preserve" font-family="Nunito-Bold" font-weight="bold" font-size="41.0" fill="#000000" transform="matrix(1.00, 0.00, -0.00, -1.00, 272.7, 647.0)">s</text><text xml:space="preserve" font-family="Nunito-Bold" font-weight="bold" font-size="41.0" fill="#000000" transform="matrix(1.00, 0.00, -0.00, -1.00, 294.1, 647.0)">t</text><text xml:space="preserve" font-family="Nunito-Bold" font-weight="bold" font-size="41.0" fill="#000000" transform="matrix(1.00, 0.00, -0.00, -1.00, 310.5, 647.0)">a</text><text xml:space="preserve" font-family="Nunito-Bold" font-weight="bold" font-size="41.0" fill="#000000" transform="matrix(1.00, 0.00, -0.00, -1.00, 332.4, 647.0)">y</text><text xml:space="preserve" font-family="Nunito-Bold" font-weight="bold" font-size="41.0" fill="#000000" transform="matrix(1.00, 0.00, -0.00, -1.00, 354.2, 647.0)"> </text><text xml:space="preserve" font-family="Nunito-Bold" font-weight="bold" font-size="41.0" fill="#000000" transform="matrix(1.00, 0.00, -0.00, -1.00, 367.2, 647.0)">t</text><text xml:space="preserve" font-family="Nunito-Bold" font-weight="bold" font-size="41.0" fill="#000000" transform="matrix(1.00, 0.00, -0.00, -1.00, 382.2, 647.0)">u</text><text xml:space="preserve" font-family="Nunito-Bold" font-weight="bold" font-size="41.0" fill="#000000" transform="matrix(1.00, 0.00, -0.00, -1.00, 407.0, 647.0)">n</text><text xml:space="preserve" font-family="Nunito-Bold" font-weight="bold" font-size="41.0" fill="#000000" transform="matrix(1.00, 0.00, -0.00, -1.00, 431.8, 647.0)">e</text><text xml:space="preserve" font-family="Nunito-Bold" font-weight="bold" font-size="41.0" fill="#000000" transform="matrix(1.00, 0.00, -0.00, -1.00, 455.5, 647.0)">d</text><text xml:space="preserve" font-family="Nunito-Bold" font-weight="bold" font-size="41.0" fill="#000000" transform="matrix(1.00, 0.00, -0.00, -1.00, 480.7, 647.0)">)</text><text xml:space="preserve" font-family="Nunito-Bold" font-weight="bold" font-size="41.0" fill="#000000" transform="matrix(1.00, 0.00, -0.00, -1.00, 494.6, 647.0)"> </text><text xml:space="preserve" font-family="Nunito-Regular" font-size="41.0" fill="#000000" transform="matrix(1.00, 0.00, -0.00, -1.00, 62.0, 536.0)">1</text><text xml:space="preserve" font-family="Nunito-Regular" font-size="41.0" fill="#000000" transform="matrix(1.00, 0.00, -0.00, -1.00, 82.6, 536.0)">.</text><text xml:space="preserve" font-family="Nunito-Regular" font-size="41.0" fill="#000000" transform="matrix(1.00, 0.00, -0.00, -1.00, 94.4, 536.0)"> </text><text xml:space="preserve" font-family="Nunito-Regular" font-size="41.0" fill="#000000" transform="matrix(1.00, 0.00, -0.00, -1.00, 104.1, 536.0)">W</text><text xml:space="preserve" font-family="Nunito-Regular" font-size="41.0" fill="#000000" transform="matrix(1.00, 0.00, -0.00, -1.00, 144.0, 536.0)">e</text><text xml:space="preserve" font-family="Nunito-Regular" font-size="41.0" fill="#000000" transform="matrix(1.00, 0.00, -0.00, -1.00, 167.2, 536.0)">l</text><text xml:space="preserve" font-family="Nunito-Regular" font-size="41.0" fill="#000000" transform="matrix(1.00, 0.00, -0.00, -1.00, 177.4, 536.0)">c</text><text xml:space="preserve" font-family="Nunito-Regular" font-size="41.0" fill="#000000" transform="matrix(1.00, 0.00, -0.00, -1.00, 197.4, 536.0)">o</text><text xml:space="preserve" font-family="Nunito-Regular" font-size="41.0" fill="#000000" transform="matrix(1.00, 0.00, -0.00, -1.00, 221.6, 536.0)">m</text><text xml:space="preserve" font-family="Nunito-Regular" font-size="41.0" fill="#000000" transform="matrix(1.00, 0.00, -0.00, -1.00, 259.1, 536.0)">e</text><text xml:space="preserve" font-family="Nunito-Regular" font-size="41.0" fill="#000000" transform="matrix(1.00, 0.00, -0.00, -1.00, 282.3, 536.0)"> </text><text xml:space="preserve" font-family="Nunito-Regular" font-size="41.0" fill="#000000" transform="matrix(1.00, 0.00, -0.00, -1.00, 294.6, 536.0)">a</text><text xml:space="preserve" font-family="Nunito-Regular" font-size="41.0" fill="#000000" transform="matrix(1.00, 0.00, -0.00, -1.00, 316.3, 536.0)">n</text><text xml:space="preserve" font-family="Nunito-Regular" font-size="41.0" fill="#000000" transform="matrix(1.00, 0.00, -0.00, -1.00, 340.2, 536.0)">d</text><text xml:space="preserve" font-family="Nunito-Regular" font-size="41.0" fill="#000000" transform="matrix(1.00, 0.00, -0.00, -1.00, 364.4, 536.0)"> </text><text xml:space="preserve" font-family="Nunito-Regular" font-size="41.0" fill="#000000" transform="matrix(1.00, 0.00, -0.00, -1.00, 376.7, 536.0)">I</text><text xml:space="preserve" font-family="Nunito-Regular" font-size="41.0" fill="#000000" transform="matrix(1.00, 0.00, -0.00, -1.00, 389.5, 536.0)">n</text><text xml:space="preserve" font-family="Nunito-Regular" font-size="41.0" fill="#000000" transform="matrix(1.00, 0.00, -0.00, -1.00, 413.4, 536.0)">t</text><text xml:space="preserve" font-family="Nunito-Regular" font-size="41.0" fill="#000000" transform="matrix(1.00, 0.00, -0.00, -1.00, 428.3, 536.0)">r</text><text xml:space="preserve" font-family="Nunito-Regular" font-size="41.0" fill="#000000" transform="matrix(1.00, 0.00, -0.00, -1.00, 443.3, 536.0)">o</text><text xml:space="preserve" font-family="Nunito-Regular" font-size="41.0" fill="#000000" transform="matrix(1.00, 0.00, -0.00, -1.00, 467.5, 536.0)">d</text><text xml:space="preserve" font-family="Nunito-Regular" font-size="41.0" fill="#000000" transform="matrix(1.00, 0.00, -0.00, -1.00, 491.7, 536.0)">u</text><text xml:space="preserve" font-family="Nunito-Regular" font-size="41.0" fill="#000000" transform="matrix(1.00, 0.00, -0.00, -1.00, 515.6, 536.0)">c</text><text xml:space="preserve" font-family="Nunito-Regular" font-size="41.0" fill="#000000" transform="matrix(1.00, 0.00, -0.00, -1.00, 535.6, 536.0)">t</text><text xml:space="preserve" font-family="Nunito-Regular" font-size="41.0" fill="#000000" transform="matrix(1.00, 0.00, -0.00, -1.00, 550.5, 536.0)">i</text><text xml:space="preserve" font-family="Nunito-Regular" font-size="41.0" fill="#000000" transform="matrix(1.00, 0.00, -0.00, -1.00, 560.7, 536.0)">o</text><text xml:space="preserve" font-family="Nunito-Regular" font-size="41.0" fill="#000000" transform="matrix(1.00, 0.00, -0.00, -1.00, 584.9, 536.0)">n</text><text xml:space="preserve" font-family="Nunito-Regular" font-size="41.0" fill="#000000" transform="matrix(1.00, 0.00, -0.00, -1.00, 608.8, 536.0)"> </text><text xml:space="preserve" font-family="Nunito-Regular" font-size="41.0" fill="#000000" transform="matrix(1.00, 0.00, -0.00, -1.00, 621.1, 536.0)">b</text><text xml:space="preserve" font-family="Nunito-Regular" font-size="41.0" fill="#000000" transform="matrix(1.00, 0.00, -0.00, -1.00, 644.7, 536.0)">y</text><text xml:space="preserve" font-family="Nunito-Regular" font-size="41.0" fill="#000000" transform="matrix(1.00, 0.00, -0.00, -1.00, 665.8, 536.0)"> </text><text xml:space="preserve" font-family="Nunito-Regular" font-size="41.0" fill="#000000" transform="matrix(1.00, 0.00, -0.00, -1.00, 678.1, 536.0)">I</text><text xml:space="preserve" font-family="Nunito-Regular" font-size="41.0" fill="#000000" transform="matrix(1.00, 0.00, -0.00, -1.00, 690.9, 536.0)">v</text><text xml:space="preserve" font-family="Nunito-Regular" font-size="41.0" fill="#000000" transform="matrix(1.00, 0.00, -0.00, -1.00, 711.7, 536.0)">a</text><text xml:space="preserve" font-family="Nunito-Regular" font-size="41.0" fill="#000000" transform="matrix(1.00, 0.00, -0.00, -1.00, 733.3, 536.0)">n</text><text xml:space="preserve" font-family="Nunito-Regular" font-size="41.0" fill="#000000" transform="matrix(1.00, 0.00, -0.00, -1.00, 757.3, 536.0)"> </text><text xml:space="preserve" font-family="Nunito-Regular" font-size="41.0" fill="#000000" transform="matrix(1.00, 0.00, -0.00, -1.00, 769.6, 536.0)">&amp;</text><text xml:space="preserve" font-family="Nunito-Regular" font-size="41.0" fill="#000000" transform="matrix(1.00, 0.00, -0.00, -1.00, 801.3, 536.0)"> </text><text xml:space="preserve" font-family="Nunito-Regular" font-size="41.0" fill="#000000" transform="matrix(1.00, 0.00, -0.00, -1.00, 813.6, 536.0)">F</text><text xml:space="preserve" font-family="Nunito-Regular" font-size="41.0" fill="#000000" transform="matrix(1.00, 0.00, -0.00, -1.00, 836.5, 536.0)">a</text><text xml:space="preserve" font-family="Nunito-Regular" font-size="41.0" fill="#000000" transform="matrix(1.00, 0.00, -0.00, -1.00, 858.1, 536.0)">b</text><text xml:space="preserve" font-family="Nunito-Regular" font-size="41.0" fill="#000000" transform="matrix(1.00, 0.00, -0.00, -1.00, 882.2, 536.0)">i</text><text xml:space="preserve" font-family="Nunito-Regular" font-size="41.0" fill="#000000" transform="matrix(1.00, 0.00, -0.00, -1.00, 892.4, 536.0)">o</text><text xml:space="preserve" font-family="Nunito-Regular" font-size="41.0" fill="#000000" transform="matrix(1.00, 0.00, -0.00, -1.00, 916.6, 536.0)"> </text><text xml:space="preserve" font-family="Nunito-Regular" font-size="41.0" fill="#000000" transform="matrix(1.00, 0.00, -0.00, -1.00, 62.0, 426.0)">2</text><text xml:space="preserve" font-family="Nunito-Regular" font-size="41.0" fill="#000000" transform="matrix(1.00, 0.00, -0.00, -1.00, 86.6, 426.0)">.</text><text xml:space="preserve" font-family="Nunito-Regular" font-size="41.0" fill="#000000" transform="matrix(1.00, 0.00, -0.00, -1.00, 98.5, 426.0)"> </text><text xml:space="preserve" font-family="Nunito-Regular" font-size="41.0" fill="#000000" transform="matrix(1.00, 0.00, -0.00, -1.00, 110.8, 426.0)">F</text><text xml:space="preserve" font-family="Nunito-Regular" font-size="41.0" fill="#000000" transform="matrix(1.00, 0.00, -0.00, -1.00, 132.7, 426.0)">u</text><text xml:space="preserve" font-family="Nunito-Regular" font-size="41.0" fill="#000000" transform="matrix(1.00, 0.00, -0.00, -1.00, 156.6, 426.0)">t</text><text xml:space="preserve" font-family="Nunito-Regular" font-size="41.0" fill="#000000" transform="matrix(1.00, 0.00, -0.00, -1.00, 170.8, 426.0)">u</text><text xml:space="preserve" font-family="Nunito-Regular" font-size="41.0" fill="#000000" transform="matrix(1.00, 0.00, -0.00, -1.00, 194.7, 426.0)">r</text><text xml:space="preserve" font-family="Nunito-Regular" font-size="41.0" fill="#000000" transform="matrix(1.00, 0.00, -0.00, -1.00, 209.8, 426.0)">e</text><text xml:space="preserve" font-family="Nunito-Regular" font-size="41.0" fill="#000000" transform="matrix(1.00, 0.00, -0.00, -1.00, 233.0, 426.0)"> </text><text xml:space="preserve" font-family="Nunito-Regular" font-size="41.0" fill="#000000" transform="matrix(1.00, 0.00, -0.00, -1.00, 245.3, 426.0)">e</text><text xml:space="preserve" font-family="Nunito-Regular" font-size="41.0" fill="#000000" transform="matrix(1.00, 0.00, -0.00, -1.00, 267.9, 426.0)">v</text><text xml:space="preserve" font-family="Nunito-Regular" font-size="41.0" fill="#000000" transform="matrix(1.00, 0.00, -0.00, -1.00, 288.7, 426.0)">e</text><text xml:space="preserve" font-family="Nunito-Regular" font-size="41.0" fill="#000000" transform="matrix(1.00, 0.00, -0.00, -1.00, 311.9, 426.0)">n</text><text xml:space="preserve" font-family="Nunito-Regular" font-size="41.0" fill="#000000" transform="matrix(1.00, 0.00, -0.00, -1.00, 335.9, 426.0)">t</text><text xml:space="preserve" font-family="Nunito-Regular" font-size="41.0" fill="#000000" transform="matrix(1.00, 0.00, -0.00, -1.00, 350.7, 426.0)">s</text><text xml:space="preserve" font-family="Nunito-Regular" font-size="41.0" fill="#000000" transform="matrix(1.00, 0.00, -0.00, -1.00, 371.7, 426.0)"> </text><text xml:space="preserve" font-family="Nunito-Regular" font-size="41.0" fill="#000000" transform="matrix(1.00, 0.00, -0.00, -1.00, 384.0, 426.0)">a</text><text xml:space="preserve" font-family="Nunito-Regular" font-size="41.0" fill="#000000" transform="matrix(1.00, 0.00, -0.00, -1.00, 405.6, 426.0)">n</text><text xml:space="preserve" font-family="Nunito-Regular" font-size="41.0" fill="#000000" transform="matrix(1.00, 0.00, -0.00, -1.00, 429.6, 426.0)">d</text><text xml:space="preserve" font-family="Nunito-Regular" font-size="41.0" fill="#000000" transform="matrix(1.00, 0.00, -0.00, -1.00, 453.7, 426.0)"> </text><text xml:space="preserve" font-family="Nunito-Regular" font-size="41.0" fill="#000000" transform="matrix(1.00, 0.00, -0.00, -1.00, 466.1, 426.0)">a</text><text xml:space="preserve" font-family="Nunito-Regular" font-size="41.0" fill="#000000" transform="matrix(1.00, 0.00, -0.00, -1.00, 487.7, 426.0)">c</text><text xml:space="preserve" font-family="Nunito-Regular" font-size="41.0" fill="#000000" transform="matrix(1.00, 0.00, -0.00, -1.00, 507.7, 426.0)">t</text><text xml:space="preserve" font-family="Nunito-Regular" font-size="41.0" fill="#000000" transform="matrix(1.00, 0.00, -0.00, -1.00, 522.6, 426.0)">i</text><text xml:space="preserve" font-family="Nunito-Regular" font-size="41.0" fill="#000000" transform="matrix(1.00, 0.00, -0.00, -1.00, 532.8, 426.0)">v</text><text xml:space="preserve" font-family="Nunito-Regular" font-size="41.0" fill="#000000" transform="matrix(1.00, 0.00, -0.00, -1.00, 554.2, 426.0)">i</text><text xml:space="preserve" font-family="Nunito-Regular" font-size="41.0" fill="#000000" transform="matrix(1.00, 0.00, -0.00, -1.00, 564.4, 426.0)">t</text><text xml:space="preserve" font-family="Nunito-Regular" font-size="41.0" fill="#000000" transform="matrix(1.00, 0.00, -0.00, -1.00, 579.2, 426.0)">i</text><text xml:space="preserve" font-family="Nunito-Regular" font-size="41.0" fill="#000000" transform="matrix(1.00, 0.00, -0.00, -1.00, 589.5, 426.0)">e</text><text xml:space="preserve" font-family="Nunito-Regular" font-size="41.0" fill="#000000" transform="matrix(1.00, 0.00, -0.00, -1.00, 612.7, 426.0)">s</text><text xml:space="preserve" font-family="Nunito-Regular" font-size="41.0" fill="#000000" transform="matrix(1.00, 0.00, -0.00, -1.00, 633.6, 426.0)"> </text><text xml:space="preserve" font-family="Nunito-Regular" font-size="41.0" fill="#000000" transform="matrix(1.00, 0.00, -0.00, -1.00, 645.9, 426.0)">~</text><text xml:space="preserve" font-family="Nunito-Regular" font-size="41.0" fill="#000000" transform="matrix(1.00, 0.00, -0.00, -1.00, 672.2, 426.0)">5</text><text xml:space="preserve" font-family="Nunito-Regular" font-size="41.0" fill="#000000" transform="matrix(1.00, 0.00, -0.00, -1.00, 696.8, 426.0)">m</text><text xml:space="preserve" font-family="Nunito-Regular" font-size="41.0" fill="#000000" transform="matrix(1.00, 0.00, -0.00, -1.00, 734.4, 426.0)">i</text><text xml:space="preserve" font-family="Nunito-Regular" font-size="41.0" fill="#000000" transform="matrix(1.00, 0.00, -0.00, -1.00, 744.6, 426.0)">n</text><text xml:space="preserve" font-family="Nunito-Regular" font-size="41.0" fill="#000000" transform="matrix(1.00, 0.00, -0.00, -1.00, 768.6, 426.0)"> </text><text xml:space="preserve" font-family="Nunito-Regular" font-size="41.0" fill="#000000" transform="matrix(1.00, 0.00, -0.00, -1.00, 780.9, 426.0)">b</text><text xml:space="preserve" font-family="Nunito-Regular" font-size="41.0" fill="#000000" transform="matrix(1.00, 0.00, -0.00, -1.00, 804.4, 426.0)">y</text><text xml:space="preserve" font-family="Nunito-Regular" font-size="41.0" fill="#000000" transform="matrix(1.00, 0.00, -0.00, -1.00, 825.6, 426.0)"> </text><text xml:space="preserve" font-family="Nunito-Regular" font-size="41.0" fill="#000000" transform="matrix(1.00, 0.00, -0.00, -1.00, 837.9, 426.0)">F</text><text xml:space="preserve" font-family="Nunito-Regular" font-size="41.0" fill="#000000" transform="matrix(1.00, 0.00, -0.00, -1.00, 860.8, 426.0)">a</text><text xml:space="preserve" font-family="Nunito-Regular" font-size="41.0" fill="#000000" transform="matrix(1.00, 0.00, -0.00, -1.00, 882.4, 426.0)">b</text><text xml:space="preserve" font-family="Nunito-Regular" font-size="41.0" fill="#000000" transform="matrix(1.00, 0.00, -0.00, -1.00, 906.5, 426.0)">i</text><text xml:space="preserve" font-family="Nunito-Regular" font-size="41.0" fill="#000000" transform="matrix(1.00, 0.00, -0.00, -1.00, 916.7, 426.0)">o</text><text xml:space="preserve" font-family="Nunito-Regular" font-size="41.0" fill="#000000" transform="matrix(1.00, 0.00, -0.00, -1.00, 940.9, 426.0)"> </text><text xml:space="preserve" font-family="Nunito-Regular" font-size="41.0" fill="#000000" transform="matrix(1.00, 0.00, -0.00, -1.00, 62.0, 316.0)">3</text><text xml:space="preserve" font-family="Nunito-Regular" font-size="41.0" fill="#000000" transform="matrix(1.00, 0.00, -0.00, -1.00, 86.6, 316.0)">.</text><text xml:space="preserve" font-family="Nunito-Regular" font-size="41.0" fill="#000000" transform="matrix(1.00, 0.00, -0.00, -1.00, 98.5, 316.0)"> </text><text xml:space="preserve" font-family="Nunito-Bold" font-weight="bold" font-size="41.0" fill="#000000" transform="matrix(1.00, 0.00, -0.00, -1.00, 110.8, 316.0)">I</text><text xml:space="preserve" font-family="Nunito-Bold" font-weight="bold" font-size="41.0" fill="#000000" transform="matrix(1.00, 0.00, -0.00, -1.00, 124.6, 316.0)">n</text><text xml:space="preserve" font-family="Nunito-Bold" font-weight="bold" font-size="41.0" fill="#000000" transform="matrix(1.00, 0.00, -0.00, -1.00, 149.4, 316.0)">t</text><text xml:space="preserve" font-family="Nunito-Bold" font-weight="bold" font-size="41.0" fill="#000000" transform="matrix(1.00, 0.00, -0.00, -1.00, 165.1, 316.0)">r</text><text xml:space="preserve" font-family="Nunito-Bold" font-weight="bold" font-size="41.0" fill="#000000" transform="matrix(1.00, 0.00, -0.00, -1.00, 181.4, 316.0)">o</text><text xml:space="preserve" font-family="Nunito-Bold" font-weight="bold" font-size="41.0" fill="#000000" transform="matrix(1.00, 0.00, -0.00, -1.00, 206.6, 316.0)">d</text><text xml:space="preserve" font-family="Nunito-Bold" font-weight="bold" font-size="41.0" fill="#000000" transform="matrix(1.00, 0.00, -0.00, -1.00, 231.8, 316.0)">u</text><text xml:space="preserve" font-family="Nunito-Bold" font-weight="bold" font-size="41.0" fill="#000000" transform="matrix(1.00, 0.00, -0.00, -1.00, 256.6, 316.0)">c</text><text xml:space="preserve" font-family="Nunito-Bold" font-weight="bold" font-size="41.0" fill="#000000" transform="matrix(1.00, 0.00, -0.00, -1.00, 277.3, 316.0)">t</text><text xml:space="preserve" font-family="Nunito-Bold" font-weight="bold" font-size="41.0" fill="#000000" transform="matrix(1.00, 0.00, -0.00, -1.00, 293.0, 316.0)">i</text><text xml:space="preserve" font-family="Nunito-Bold" font-weight="bold" font-size="41.0" fill="#000000" transform="matrix(1.00, 0.00, -0.00, -1.00, 304.1, 316.0)">o</text><text xml:space="preserve" font-family="Nunito-Bold" font-weight="bold" font-size="41.0" fill="#000000" transform="matrix(1.00, 0.00, -0.00, -1.00, 329.3, 316.0)">n</text><text xml:space="preserve" font-family="Nunito-Bold" font-weight="bold" font-size="41.0" fill="#000000" transform="matrix(1.00, 0.00, -0.00, -1.00, 354.1, 316.0)"> </text><text xml:space="preserve" font-family="Nunito-Bold" font-weight="bold" font-size="41.0" fill="#000000" transform="matrix(1.00, 0.00, -0.00, -1.00, 367.1, 316.0)">t</text><text xml:space="preserve" font-family="Nunito-Bold" font-weight="bold" font-size="41.0" fill="#000000" transform="matrix(1.00, 0.00, -0.00, -1.00, 382.8, 316.0)">o</text><text xml:space="preserve" font-family="Nunito-Bold" font-weight="bold" font-size="41.0" fill="#000000" transform="matrix(1.00, 0.00, -0.00, -1.00, 408.0, 316.0)"> </text><text xml:space="preserve" font-family="Nunito-Bold" font-weight="bold" font-size="41.0" fill="#000000" transform="matrix(1.00, 0.00, -0.00, -1.00, 421.0, 316.0)">E</text><text xml:space="preserve" font-family="Nunito-Bold" font-weight="bold" font-size="41.0" fill="#000000" transform="matrix(1.00, 0.00, -0.00, -1.00, 446.4, 316.0)">l</text><text xml:space="preserve" font-family="Nunito-Bold" font-weight="bold" font-size="41.0" fill="#000000" transform="matrix(1.00, 0.00, -0.00, -1.00, 457.5, 316.0)">m</text><text xml:space="preserve" font-family="Nunito-Regular" font-size="41.0" fill="#000000" transform="matrix(1.00, 0.00, -0.00, -1.00, 495.8, 316.0)"> </text><text xml:space="preserve" font-family="Nunito-Regular" font-size="41.0" fill="#000000" transform="matrix(1.00, 0.00, -0.00, -1.00, 508.1, 316.0)">~</text><text xml:space="preserve" font-family="Nunito-Regular" font-size="41.0" fill="#000000" transform="matrix(1.00, 0.00, -0.00, -1.00, 534.4, 316.0)">2</text><text xml:space="preserve" font-family="Nunito-Regular" font-size="41.0" fill="#000000" transform="matrix(1.00, 0.00, -0.00, -1.00, 559.0, 316.0)">0</text><text xml:space="preserve" font-family="Nunito-Regular" font-size="41.0" fill="#000000" transform="matrix(1.00, 0.00, -0.00, -1.00, 583.6, 316.0)">m</text><text xml:space="preserve" font-family="Nunito-Regular" font-size="41.0" fill="#000000" transform="matrix(1.00, 0.00, -0.00, -1.00, 621.2, 316.0)">i</text><text xml:space="preserve" font-family="Nunito-Regular" font-size="41.0" fill="#000000" transform="matrix(1.00, 0.00, -0.00, -1.00, 631.4, 316.0)">n</text><text xml:space="preserve" font-family="Nunito-Regular" font-size="41.0" fill="#000000" transform="matrix(1.00, 0.00, -0.00, -1.00, 655.3, 316.0)"> </text><text xml:space="preserve" font-family="Nunito-Regular" font-size="41.0" fill="#000000" transform="matrix(1.00, 0.00, -0.00, -1.00, 667.6, 316.0)">b</text><text xml:space="preserve" font-family="Nunito-Regular" font-size="41.0" fill="#000000" transform="matrix(1.00, 0.00, -0.00, -1.00, 691.2, 316.0)">y</text><text xml:space="preserve" font-family="Nunito-Regular" font-size="41.0" fill="#000000" transform="matrix(1.00, 0.00, -0.00, -1.00, 712.3, 316.0)"> </text><text xml:space="preserve" font-family="Nunito-Regular" font-size="41.0" fill="#000000" transform="matrix(1.00, 0.00, -0.00, -1.00, 724.6, 316.0)">F</text><text xml:space="preserve" font-family="Nunito-Regular" font-size="41.0" fill="#000000" transform="matrix(1.00, 0.00, -0.00, -1.00, 747.5, 316.0)">a</text><text xml:space="preserve" font-family="Nunito-Regular" font-size="41.0" fill="#000000" transform="matrix(1.00, 0.00, -0.00, -1.00, 769.2, 316.0)">b</text><text xml:space="preserve" font-family="Nunito-Regular" font-size="41.0" fill="#000000" transform="matrix(1.00, 0.00, -0.00, -1.00, 793.3, 316.0)">i</text><text xml:space="preserve" font-family="Nunito-Regular" font-size="41.0" fill="#000000" transform="matrix(1.00, 0.00, -0.00, -1.00, 803.5, 316.0)">o</text><text xml:space="preserve" font-family="Nunito-Regular" font-size="41.0" fill="#000000" transform="matrix(1.00, 0.00, -0.00, -1.00, 827.7, 316.0)"> </text><text xml:space="preserve" font-family="Nunito-Regular" font-size="41.0" fill="#000000" transform="matrix(1.00, 0.00, -0.00, -1.00, 62.0, 205.0)">4</text><text xml:space="preserve" font-family="Nunito-Regular" font-size="41.0" fill="#000000" transform="matrix(1.00, 0.00, -0.00, -1.00, 86.6, 205.0)">.</text><text xml:space="preserve" font-family="Nunito-Regular" font-size="41.0" fill="#000000" transform="matrix(1.00, 0.00, -0.00, -1.00, 98.5, 205.0)"> </text><text xml:space="preserve" font-family="Nunito-Bold" font-weight="bold" font-size="41.0" fill="#000000" transform="matrix(1.00, 0.00, -0.00, -1.00, 110.8, 205.0)">A</text><text xml:space="preserve" font-family="Nunito-Bold" font-weight="bold" font-size="41.0" fill="#000000" transform="matrix(1.00, 0.00, -0.00, -1.00, 140.9, 205.0)"> </text><text xml:space="preserve" font-family="Nunito-Bold" font-weight="bold" font-size="41.0" fill="#000000" transform="matrix(1.00, 0.00, -0.00, -1.00, 153.9, 205.0)">l</text><text xml:space="preserve" font-family="Nunito-Bold" font-weight="bold" font-size="41.0" fill="#000000" transform="matrix(1.00, 0.00, -0.00, -1.00, 165.0, 205.0)">o</text><text xml:space="preserve" font-family="Nunito-Bold" font-weight="bold" font-size="41.0" fill="#000000" transform="matrix(1.00, 0.00, -0.00, -1.00, 190.2, 205.0)">o</text><text xml:space="preserve" font-family="Nunito-Bold" font-weight="bold" font-size="41.0" fill="#000000" transform="matrix(1.00, 0.00, -0.00, -1.00, 215.4, 205.0)">k</text><text xml:space="preserve" font-family="Nunito-Bold" font-weight="bold" font-size="41.0" fill="#000000" transform="matrix(1.00, 0.00, -0.00, -1.00, 237.6, 205.0)"> </text><text xml:space="preserve" font-family="Nunito-Bold" font-weight="bold" font-size="41.0" fill="#000000" transform="matrix(1.00, 0.00, -0.00, -1.00, 250.6, 205.0)">a</text><text xml:space="preserve" font-family="Nunito-Bold" font-weight="bold" font-size="41.0" fill="#000000" transform="matrix(1.00, 0.00, -0.00, -1.00, 273.1, 205.0)">t</text><text xml:space="preserve" font-family="Nunito-Bold" font-weight="bold" font-size="41.0" fill="#000000" transform="matrix(1.00, 0.00, -0.00, -1.00, 288.8, 205.0)"> </text><text xml:space="preserve" font-family="Nunito-Bold" font-weight="bold" font-size="41.0" fill="#000000" transform="matrix(1.00, 0.00, -0.00, -1.00, 301.8, 205.0)">E</text><text xml:space="preserve" font-family="Nunito-Bold" font-weight="bold" font-size="41.0" fill="#000000" transform="matrix(1.00, 0.00, -0.00, -1.00, 327.3, 205.0)">l</text><text xml:space="preserve" font-family="Nunito-Bold" font-weight="bold" font-size="41.0" fill="#000000" transform="matrix(1.00, 0.00, -0.00, -1.00, 338.4, 205.0)">m</text><text xml:space="preserve" font-family="Nunito-Bold" font-weight="bold" font-size="41.0" fill="#000000" transform="matrix(1.00, 0.00, -0.00, -1.00, 376.8, 205.0)">-</text><text xml:space="preserve" font-family="Nunito-Bold" font-weight="bold" font-size="41.0" fill="#000000" transform="matrix(1.00, 0.00, -0.00, -1.00, 391.0, 205.0)">C</text><text xml:space="preserve" font-family="Nunito-Bold" font-weight="bold" font-size="41.0" fill="#000000" transform="matrix(1.00, 0.00, -0.00, -1.00, 420.3, 205.0)">s</text><text xml:space="preserve" font-family="Nunito-Bold" font-weight="bold" font-size="41.0" fill="#000000" transform="matrix(1.00, 0.00, -0.00, -1.00, 441.7, 205.0)">s</text><text xml:space="preserve" font-family="Nunito-Regular" font-size="41.0" fill="#000000" transform="matrix(1.00, 0.00, -0.00, -1.00, 463.2, 205.0)">~</text><text xml:space="preserve" font-family="Nunito-Regular" font-size="41.0" fill="#000000" transform="matrix(1.00, 0.00, -0.00, -1.00, 489.5, 205.0)">3</text><text xml:space="preserve" font-family="Nunito-Regular" font-size="41.0" fill="#000000" transform="matrix(1.00, 0.00, -0.00, -1.00, 514.1, 205.0)">0</text><text xml:space="preserve" font-family="Nunito-Regular" font-size="41.0" fill="#000000" transform="matrix(1.00, 0.00, -0.00, -1.00, 538.7, 205.0)">m</text><text xml:space="preserve" font-family="Nunito-Regular" font-size="41.0" fill="#000000" transform="matrix(1.00, 0.00, -0.00, -1.00, 576.2, 205.0)">i</text><text xml:space="preserve" font-family="Nunito-Regular" font-size="41.0" fill="#000000" transform="matrix(1.00, 0.00, -0.00, -1.00, 586.4, 205.0)">n</text><text xml:space="preserve" font-family="Nunito-Regular" font-size="41.0" fill="#000000" transform="matrix(1.00, 0.00, -0.00, -1.00, 610.3, 205.0)"> </text><text xml:space="preserve" font-family="Nunito-Regular" font-size="41.0" fill="#000000" transform="matrix(1.00, 0.00, -0.00, -1.00, 622.6, 205.0)">b</text><text xml:space="preserve" font-family="Nunito-Regular" font-size="41.0" fill="#000000" transform="matrix(1.00, 0.00, -0.00, -1.00, 646.1, 205.0)">y</text><text xml:space="preserve" font-family="Nunito-Regular" font-size="41.0" fill="#000000" transform="matrix(1.00, 0.00, -0.00, -1.00, 667.3, 205.0)"> </text><text xml:space="preserve" font-family="Nunito-Regular" font-size="41.0" fill="#000000" transform="matrix(1.00, 0.00, -0.00, -1.00, 679.6, 205.0)">J</text><text xml:space="preserve" font-family="Nunito-Regular" font-size="41.0" fill="#000000" transform="matrix(1.00, 0.00, -0.00, -1.00, 701.5, 205.0)">a</text><text xml:space="preserve" font-family="Nunito-Regular" font-size="41.0" fill="#000000" transform="matrix(1.00, 0.00, -0.00, -1.00, 723.2, 205.0)">s</text><text xml:space="preserve" font-family="Nunito-Regular" font-size="41.0" fill="#000000" transform="matrix(1.00, 0.00, -0.00, -1.00, 744.1, 205.0)">p</text><text xml:space="preserve" font-family="Nunito-Regular" font-size="41.0" fill="#000000" transform="matrix(1.00, 0.00, -0.00, -1.00, 768.3, 205.0)">e</text><text xml:space="preserve" font-family="Nunito-Regular" font-size="41.0" fill="#000000" transform="matrix(1.00, 0.00, -0.00, -1.00, 791.5, 205.0)">r</text><text xml:space="preserve" font-family="Nunito-Regular" font-size="41.0" fill="#000000" transform="matrix(1.00, 0.00, -0.00, -1.00, 806.7, 205.0)"> </text><text xml:space="preserve" font-family="Nunito-Regular" font-size="41.0" fill="#000000" transform="matrix(1.00, 0.00, -0.00, -1.00, 62.0, 95.0)">5</text><text xml:space="preserve" font-family="Nunito-Regular" font-size="41.0" fill="#000000" transform="matrix(1.00, 0.00, -0.00, -1.00, 86.6, 95.0)">.</text><text xml:space="preserve" font-family="Nunito-Regular" font-size="41.0" fill="#000000" transform="matrix(1.00, 0.00, -0.00, -1.00, 98.5, 95.0)"> </text><text xml:space="preserve" font-family="Nunito-Bold" font-weight="bold" font-size="41.0" fill="#000000" transform="matrix(1.00, 0.00, -0.00, -1.00, 110.8, 95.0)">E</text><text xml:space="preserve" font-family="Nunito-Bold" font-weight="bold" font-size="41.0" fill="#000000" transform="matrix(1.00, 0.00, -0.00, -1.00, 136.3, 95.0)">x</text><text xml:space="preserve" font-family="Nunito-Bold" font-weight="bold" font-size="41.0" fill="#000000" transform="matrix(1.00, 0.00, -0.00, -1.00, 158.8, 95.0)">p</text><text xml:space="preserve" font-family="Nunito-Bold" font-weight="bold" font-size="41.0" fill="#000000" transform="matrix(1.00, 0.00, -0.00, -1.00, 184.0, 95.0)">l</text><text xml:space="preserve" font-family="Nunito-Bold" font-weight="bold" font-size="41.0" fill="#000000" transform="matrix(1.00, 0.00, -0.00, -1.00, 195.0, 95.0)">o</text><text xml:space="preserve" font-family="Nunito-Bold" font-weight="bold" font-size="41.0" fill="#000000" transform="matrix(1.00, 0.00, -0.00, -1.00, 220.2, 95.0)">r</text><text xml:space="preserve" font-family="Nunito-Bold" font-weight="bold" font-size="41.0" fill="#000000" transform="matrix(1.00, 0.00, -0.00, -1.00, 236.5, 95.0)">e</text><text xml:space="preserve" font-family="Nunito-Bold" font-weight="bold" font-size="41.0" fill="#000000" transform="matrix(1.00, 0.00, -0.00, -1.00, 259.9, 95.0)">,</text><text xml:space="preserve" font-family="Nunito-Bold" font-weight="bold" font-size="41.0" fill="#000000" transform="matrix(1.00, 0.00, -0.00, -1.00, 272.5, 95.0)"> </text><text xml:space="preserve" font-family="Nunito-Bold" font-weight="bold" font-size="41.0" fill="#000000" transform="matrix(1.00, 0.00, -0.00, -1.00, 285.5, 95.0)">l</text><text xml:space="preserve" font-family="Nunito-Bold" font-weight="bold" font-size="41.0" fill="#000000" transform="matrix(1.00, 0.00, -0.00, -1.00, 296.5, 95.0)">e</text><text xml:space="preserve" font-family="Nunito-Bold" font-weight="bold" font-size="41.0" fill="#000000" transform="matrix(1.00, 0.00, -0.00, -1.00, 320.3, 95.0)">a</text><text xml:space="preserve" font-family="Nunito-Bold" font-weight="bold" font-size="41.0" fill="#000000" transform="matrix(1.00, 0.00, -0.00, -1.00, 342.7, 95.0)">r</text><text xml:space="preserve" font-family="Nunito-Bold" font-weight="bold" font-size="41.0" fill="#000000" transform="matrix(1.00, 0.00, -0.00, -1.00, 359.5, 95.0)">n</text><text xml:space="preserve" font-family="Nunito-Bold" font-weight="bold" font-size="41.0" fill="#000000" transform="matrix(1.00, 0.00, -0.00, -1.00, 384.3, 95.0)">,</text><text xml:space="preserve" font-family="Nunito-Bold" font-weight="bold" font-size="41.0" fill="#000000" transform="matrix(1.00, 0.00, -0.00, -1.00, 396.8, 95.0)"> </text><text xml:space="preserve" font-family="Nunito-Bold" font-weight="bold" font-size="41.0" fill="#000000" transform="matrix(1.00, 0.00, -0.00, -1.00, 409.8, 95.0)">s</text><text xml:space="preserve" font-family="Nunito-Bold" font-weight="bold" font-size="41.0" fill="#000000" transform="matrix(1.00, 0.00, -0.00, -1.00, 431.3, 95.0)">h</text><text xml:space="preserve" font-family="Nunito-Bold" font-weight="bold" font-size="41.0" fill="#000000" transform="matrix(1.00, 0.00, -0.00, -1.00, 456.0, 95.0)">a</text><text xml:space="preserve" font-family="Nunito-Bold" font-weight="bold" font-size="41.0" fill="#000000" transform="matrix(1.00, 0.00, -0.00, -1.00, 478.5, 95.0)">r</text><text xml:space="preserve" font-family="Nunito-Bold" font-weight="bold" font-size="41.0" fill="#000000" transform="matrix(1.00, 0.00, -0.00, -1.00, 494.8, 95.0)">e</text></g></svg>