<?xml version="1.0" encoding="UTF-8" standalone="no"?><svg xmlns="http://www.w3.org/2000/svg" xmlns:xlink="http://www.w3.org/1999/xlink" clip-rule="evenodd" stroke-miterlimit="4.00" viewBox="0 0 281 45"><desc>SVG generated by Keynote</desc><defs></defs><g transform="matrix(1.00, 0.00, -0.00, -1.00, 0.0, 45.0)"><text xml:space="preserve" font-family="Nunito-Regular" font-size="45.0" fill="#000000" transform="matrix(1.00, 0.00, -0.00, -1.00, -1.0, 11.0)">p</text><text xml:space="preserve" font-family="Nunito-Regular" font-size="45.0" fill="#000000" transform="matrix(1.00, 0.00, -0.00, -1.00, 25.5, 11.0)">r</text><text xml:space="preserve" font-family="Nunito-Regular" font-size="45.0" fill="#000000" transform="matrix(1.00, 0.00, -0.00, -1.00, 42.1, 11.0)">o</text><text xml:space="preserve" font-family="Nunito-Regular" font-size="45.0" fill="#000000" transform="matrix(1.00, 0.00, -0.00, -1.00, 68.6, 11.0)">g</text><text xml:space="preserve" font-family="Nunito-Regular" font-size="45.0" fill="#000000" transform="matrix(1.00, 0.00, -0.00, -1.00, 95.1, 11.0)">r</text><text xml:space="preserve" font-family="Nunito-Regular" font-size="45.0" fill="#000000" transform="matrix(1.00, 0.00, -0.00, -1.00, 111.9, 11.0)">a</text><text xml:space="preserve" font-family="Nunito-Regular" font-size="45.0" fill="#000000" transform="matrix(1.00, 0.00, -0.00, -1.00, 135.6, 11.0)">m</text><text xml:space="preserve" font-family="Nunito-Regular" font-size="45.0" fill="#000000" transform="matrix(1.00, 0.00, -0.00, -1.00, 176.8, 11.0)">m</text><text xml:space="preserve" font-family="Nunito-Regular" font-size="45.0" fill="#000000" transform="matrix(1.00, 0.00, -0.00, -1.00, 218.0, 11.0)">i</text><text xml:space="preserve" font-family="Nunito-Regular" font-size="45.0" fill="#000000" transform="matrix(1.00, 0.00, -0.00, -1.00, 229.2, 11.0)">n</text><text xml:space="preserve" font-family="Nunito-Regular" font-size="45.0" fill="#000000" transform="matrix(1.00, 0.00, -0.00, -1.00, 255.5, 11.0)">g</text></g></svg>