<?xml version="1.0" encoding="UTF-8" standalone="no"?><svg xmlns="http://www.w3.org/2000/svg" xmlns:xlink="http://www.w3.org/1999/xlink" clip-rule="evenodd" stroke-miterlimit="4.00" viewBox="0 0 1024 768"><desc>SVG generated by Keynote</desc><defs></defs><g transform="matrix(1.00, 0.00, -0.00, -1.00, 0.0, 768.0)"><path d="M 0.0 768.0 L 1024.0 768.0 L 1024.0 0.0 L 0.0 0.0 Z M 0.0 768.0 " fill="#FEFFFF"></path><text xml:space="preserve" font-family="Nunito-Bold" font-weight="bold" font-size="36.0" fill="#000000" transform="matrix(1.00, 0.00, -0.00, -1.00, 290.0, 259.0)">N</text><text xml:space="preserve" font-family="Nunito-Bold" font-weight="bold" font-size="36.0" fill="#000000" transform="matrix(1.00, 0.00, -0.00, -1.00, 318.1, 259.0)">o</text><text xml:space="preserve" font-family="Nunito-Regular" font-size="36.0" fill="#000000" transform="matrix(1.00, 0.00, -0.00, -1.00, 340.2, 259.0)"> </text><text xml:space="preserve" font-family="Nunito-Regular" font-size="36.0" fill="#000000" transform="matrix(1.00, 0.00, -0.00, -1.00, 349.4, 259.0)">“</text><text xml:space="preserve" font-family="Nunito-Regular" font-size="36.0" fill="#000000" transform="matrix(1.00, 0.00, -0.00, -1.00, 369.8, 259.0)">r</text><text xml:space="preserve" font-family="Nunito-Regular" font-size="36.0" fill="#000000" transform="matrix(1.00, 0.00, -0.00, -1.00, 382.6, 259.0)">u</text><text xml:space="preserve" font-family="Nunito-Regular" font-size="36.0" fill="#000000" transform="matrix(1.00, 0.00, -0.00, -1.00, 403.6, 259.0)">n</text><text xml:space="preserve" font-family="Nunito-Regular" font-size="36.0" fill="#000000" transform="matrix(1.00, 0.00, -0.00, -1.00, 424.6, 259.0)">t</text><text xml:space="preserve" font-family="Nunito-Regular" font-size="36.0" fill="#000000" transform="matrix(1.00, 0.00, -0.00, -1.00, 437.7, 259.0)">i</text><text xml:space="preserve" font-family="Nunito-Regular" font-size="36.0" fill="#000000" transform="matrix(1.00, 0.00, -0.00, -1.00, 446.6, 259.0)">m</text><text xml:space="preserve" font-family="Nunito-Regular" font-size="36.0" fill="#000000" transform="matrix(1.00, 0.00, -0.00, -1.00, 479.6, 259.0)">e</text><text xml:space="preserve" font-family="Nunito-Regular" font-size="36.0" fill="#000000" transform="matrix(1.00, 0.00, -0.00, -1.00, 500.0, 259.0)"> </text><text xml:space="preserve" font-family="Nunito-Regular" font-size="36.0" fill="#000000" transform="matrix(1.00, 0.00, -0.00, -1.00, 510.8, 259.0)">e</text><text xml:space="preserve" font-family="Nunito-Regular" font-size="36.0" fill="#000000" transform="matrix(1.00, 0.00, -0.00, -1.00, 531.2, 259.0)">r</text><text xml:space="preserve" font-family="Nunito-Regular" font-size="36.0" fill="#000000" transform="matrix(1.00, 0.00, -0.00, -1.00, 544.3, 259.0)">r</text><text xml:space="preserve" font-family="Nunito-Regular" font-size="36.0" fill="#000000" transform="matrix(1.00, 0.00, -0.00, -1.00, 557.5, 259.0)">o</text><text xml:space="preserve" font-family="Nunito-Regular" font-size="36.0" fill="#000000" transform="matrix(1.00, 0.00, -0.00, -1.00, 578.7, 259.0)">r</text><text xml:space="preserve" font-family="Nunito-Regular" font-size="36.0" fill="#000000" transform="matrix(1.00, 0.00, -0.00, -1.00, 592.1, 259.0)">s</text><text xml:space="preserve" font-family="Nunito-Regular" font-size="36.0" fill="#000000" transform="matrix(1.00, 0.00, -0.00, -1.00, 610.5, 259.0)">”</text><text xml:space="preserve" font-family="Nunito-Bold" font-weight="bold" font-size="36.0" fill="#000000" transform="matrix(1.00, 0.00, -0.00, -1.00, 290.0, 138.0)">N</text><text xml:space="preserve" font-family="Nunito-Bold" font-weight="bold" font-size="36.0" fill="#000000" transform="matrix(1.00, 0.00, -0.00, -1.00, 318.1, 138.0)">o</text><text xml:space="preserve" font-family="Nunito-Regular" font-size="36.0" fill="#000000" transform="matrix(1.00, 0.00, -0.00, -1.00, 340.2, 138.0)"> </text><text xml:space="preserve" font-family="Nunito-Regular" font-size="36.0" fill="#000000" transform="matrix(1.00, 0.00, -0.00, -1.00, 349.4, 138.0)">“</text><text xml:space="preserve" font-family="Nunito-Regular" font-size="36.0" fill="#000000" transform="matrix(1.00, 0.00, -0.00, -1.00, 369.8, 138.0)">u</text><text xml:space="preserve" font-family="Nunito-Regular" font-size="36.0" fill="#000000" transform="matrix(1.00, 0.00, -0.00, -1.00, 390.8, 138.0)">n</text><text xml:space="preserve" font-family="Nunito-Regular" font-size="36.0" fill="#000000" transform="matrix(1.00, 0.00, -0.00, -1.00, 411.8, 138.0)">d</text><text xml:space="preserve" font-family="Nunito-Regular" font-size="36.0" fill="#000000" transform="matrix(1.00, 0.00, -0.00, -1.00, 433.1, 138.0)">e</text><text xml:space="preserve" font-family="Nunito-Regular" font-size="36.0" fill="#000000" transform="matrix(1.00, 0.00, -0.00, -1.00, 453.4, 138.0)">f</text><text xml:space="preserve" font-family="Nunito-Regular" font-size="36.0" fill="#000000" transform="matrix(1.00, 0.00, -0.00, -1.00, 466.1, 138.0)">i</text><text xml:space="preserve" font-family="Nunito-Regular" font-size="36.0" fill="#000000" transform="matrix(1.00, 0.00, -0.00, -1.00, 475.1, 138.0)">n</text><text xml:space="preserve" font-family="Nunito-Regular" font-size="36.0" fill="#000000" transform="matrix(1.00, 0.00, -0.00, -1.00, 496.1, 138.0)">e</text><text xml:space="preserve" font-family="Nunito-Regular" font-size="36.0" fill="#000000" transform="matrix(1.00, 0.00, -0.00, -1.00, 516.5, 138.0)">d</text><text xml:space="preserve" font-family="Nunito-Regular" font-size="36.0" fill="#000000" transform="matrix(1.00, 0.00, -0.00, -1.00, 537.7, 138.0)"> </text><text xml:space="preserve" font-family="Nunito-Regular" font-size="36.0" fill="#000000" transform="matrix(1.00, 0.00, -0.00, -1.00, 548.5, 138.0)">i</text><text xml:space="preserve" font-family="Nunito-Regular" font-size="36.0" fill="#000000" transform="matrix(1.00, 0.00, -0.00, -1.00, 557.5, 138.0)">s</text><text xml:space="preserve" font-family="Nunito-Regular" font-size="36.0" fill="#000000" transform="matrix(1.00, 0.00, -0.00, -1.00, 575.9, 138.0)"> </text><text xml:space="preserve" font-family="Nunito-Regular" font-size="36.0" fill="#000000" transform="matrix(1.00, 0.00, -0.00, -1.00, 586.7, 138.0)">n</text><text xml:space="preserve" font-family="Nunito-Regular" font-size="36.0" fill="#000000" transform="matrix(1.00, 0.00, -0.00, -1.00, 607.7, 138.0)">o</text><text xml:space="preserve" font-family="Nunito-Regular" font-size="36.0" fill="#000000" transform="matrix(1.00, 0.00, -0.00, -1.00, 629.0, 138.0)">t</text><text xml:space="preserve" font-family="Nunito-Regular" font-size="36.0" fill="#000000" transform="matrix(1.00, 0.00, -0.00, -1.00, 642.0, 138.0)"> </text><text xml:space="preserve" font-family="Nunito-Regular" font-size="36.0" fill="#000000" transform="matrix(1.00, 0.00, -0.00, -1.00, 652.8, 138.0)">a</text><text xml:space="preserve" font-family="Nunito-Regular" font-size="36.0" fill="#000000" transform="matrix(1.00, 0.00, -0.00, -1.00, 671.8, 138.0)"> </text><text xml:space="preserve" font-family="Nunito-Regular" font-size="36.0" fill="#000000" transform="matrix(1.00, 0.00, -0.00, -1.00, 682.7, 138.0)">f</text><text xml:space="preserve" font-family="Nunito-Regular" font-size="36.0" fill="#000000" transform="matrix(1.00, 0.00, -0.00, -1.00, 695.4, 138.0)">u</text><text xml:space="preserve" font-family="Nunito-Regular" font-size="36.0" fill="#000000" transform="matrix(1.00, 0.00, -0.00, -1.00, 716.4, 138.0)">n</text><text xml:space="preserve" font-family="Nunito-Regular" font-size="36.0" fill="#000000" transform="matrix(1.00, 0.00, -0.00, -1.00, 737.4, 138.0)">c</text><text xml:space="preserve" font-family="Nunito-Regular" font-size="36.0" fill="#000000" transform="matrix(1.00, 0.00, -0.00, -1.00, 755.0, 138.0)">t</text><text xml:space="preserve" font-family="Nunito-Regular" font-size="36.0" fill="#000000" transform="matrix(1.00, 0.00, -0.00, -1.00, 768.0, 138.0)">i</text><text xml:space="preserve" font-family="Nunito-Regular" font-size="36.0" fill="#000000" transform="matrix(1.00, 0.00, -0.00, -1.00, 777.0, 138.0)">o</text><text xml:space="preserve" font-family="Nunito-Regular" font-size="36.0" fill="#000000" transform="matrix(1.00, 0.00, -0.00, -1.00, 798.2, 138.0)">n</text><text xml:space="preserve" font-family="Nunito-Regular" font-size="36.0" fill="#000000" transform="matrix(1.00, 0.00, -0.00, -1.00, 817.3, 138.0)">”</text><text xml:space="preserve" font-family="Nunito-Bold" font-weight="bold" font-size="36.0" fill="#000000" transform="matrix(1.00, 0.00, -0.00, -1.00, 291.0, 198.0)">N</text><text xml:space="preserve" font-family="Nunito-Bold" font-weight="bold" font-size="36.0" fill="#000000" transform="matrix(1.00, 0.00, -0.00, -1.00, 319.1, 198.0)">o</text><text xml:space="preserve" font-family="Nunito-Regular" font-size="36.0" fill="#000000" transform="matrix(1.00, 0.00, -0.00, -1.00, 341.2, 198.0)"> </text><text xml:space="preserve" font-family="Nunito-Regular" font-size="36.0" fill="#000000" transform="matrix(1.00, 0.00, -0.00, -1.00, 350.4, 198.0)">“</text><text xml:space="preserve" font-family="Nunito-Regular" font-size="36.0" fill="#000000" transform="matrix(1.00, 0.00, -0.00, -1.00, 370.8, 198.0)">n</text><text xml:space="preserve" font-family="Nunito-Regular" font-size="36.0" fill="#000000" transform="matrix(1.00, 0.00, -0.00, -1.00, 391.8, 198.0)">u</text><text xml:space="preserve" font-family="Nunito-Regular" font-size="36.0" fill="#000000" transform="matrix(1.00, 0.00, -0.00, -1.00, 412.8, 198.0)">l</text><text xml:space="preserve" font-family="Nunito-Regular" font-size="36.0" fill="#000000" transform="matrix(1.00, 0.00, -0.00, -1.00, 421.8, 198.0)">l</text><text xml:space="preserve" font-family="Nunito-Regular" font-size="36.0" fill="#000000" transform="matrix(1.00, 0.00, -0.00, -1.00, 430.8, 198.0)">”</text><text xml:space="preserve" font-family="Nunito-Regular" font-size="36.0" fill="#000000" transform="matrix(1.00, 0.00, -0.00, -1.00, 450.7, 198.0)"> </text><text xml:space="preserve" font-family="Nunito-Regular" font-size="63.0" fill="#000000" transform="matrix(1.00, 0.00, -0.00, -1.00, 298.0, 401.0)">s</text><text xml:space="preserve" font-family="Nunito-Regular" font-size="63.0" fill="#000000" transform="matrix(1.00, 0.00, -0.00, -1.00, 330.2, 401.0)">t</text><text xml:space="preserve" font-family="Nunito-Regular" font-size="63.0" fill="#000000" transform="matrix(1.00, 0.00, -0.00, -1.00, 353.9, 401.0)">a</text><text xml:space="preserve" font-family="Nunito-Regular" font-size="63.0" fill="#000000" transform="matrix(1.00, 0.00, -0.00, -1.00, 387.1, 401.0)">t</text><text xml:space="preserve" font-family="Nunito-Regular" font-size="63.0" fill="#000000" transform="matrix(1.00, 0.00, -0.00, -1.00, 410.0, 401.0)">i</text><text xml:space="preserve" font-family="Nunito-Regular" font-size="63.0" fill="#000000" transform="matrix(1.00, 0.00, -0.00, -1.00, 425.7, 401.0)">c</text><text xml:space="preserve" font-family="Nunito-Regular" font-size="63.0" fill="#000000" transform="matrix(1.00, 0.00, -0.00, -1.00, 456.4, 401.0)">a</text><text xml:space="preserve" font-family="Nunito-Regular" font-size="63.0" fill="#000000" transform="matrix(1.00, 0.00, -0.00, -1.00, 489.7, 401.0)">l</text><text xml:space="preserve" font-family="Nunito-Regular" font-size="63.0" fill="#000000" transform="matrix(1.00, 0.00, -0.00, -1.00, 505.4, 401.0)">l</text><text xml:space="preserve" font-family="Nunito-Regular" font-size="63.0" fill="#000000" transform="matrix(1.00, 0.00, -0.00, -1.00, 521.1, 401.0)">y</text><text xml:space="preserve" font-family="Nunito-Regular" font-size="63.0" fill="#000000" transform="matrix(1.00, 0.00, -0.00, -1.00, 553.6, 401.0)"> </text><text xml:space="preserve" font-family="Nunito-Regular" font-size="63.0" fill="#000000" transform="matrix(1.00, 0.00, -0.00, -1.00, 572.6, 401.0)">t</text><text xml:space="preserve" font-family="Nunito-Regular" font-size="63.0" fill="#000000" transform="matrix(1.00, 0.00, -0.00, -1.00, 596.3, 401.0)">y</text><text xml:space="preserve" font-family="Nunito-Regular" font-size="63.0" fill="#000000" transform="matrix(1.00, 0.00, -0.00, -1.00, 628.8, 401.0)">p</text><text xml:space="preserve" font-family="Nunito-Regular" font-size="63.0" fill="#000000" transform="matrix(1.00, 0.00, -0.00, -1.00, 666.0, 401.0)">e</text><text xml:space="preserve" font-family="Nunito-Regular" font-size="63.0" fill="#000000" transform="matrix(1.00, 0.00, -0.00, -1.00, 701.6, 401.0)">d</text><text xml:space="preserve" font-family="Nunito-Regular" font-size="169.0" fill="#000000" transform="matrix(1.00, 0.00, -0.00, -1.00, 126.0, 604.0)">f</text><text xml:space="preserve" font-family="Nunito-Regular" font-size="169.0" fill="#000000" transform="matrix(1.00, 0.00, -0.00, -1.00, 185.7, 604.0)">u</text><text xml:space="preserve" font-family="Nunito-Regular" font-size="169.0" fill="#000000" transform="matrix(1.00, 0.00, -0.00, -1.00, 284.4, 604.0)">n</text><text xml:space="preserve" font-family="Nunito-Regular" font-size="169.0" fill="#000000" transform="matrix(1.00, 0.00, -0.00, -1.00, 383.1, 604.0)">c</text><text xml:space="preserve" font-family="Nunito-Regular" font-size="169.0" fill="#000000" transform="matrix(1.00, 0.00, -0.00, -1.00, 465.5, 604.0)">t</text><text xml:space="preserve" font-family="Nunito-Regular" font-size="169.0" fill="#000000" transform="matrix(1.00, 0.00, -0.00, -1.00, 526.7, 604.0)">i</text><text xml:space="preserve" font-family="Nunito-Regular" font-size="169.0" fill="#000000" transform="matrix(1.00, 0.00, -0.00, -1.00, 568.8, 604.0)">o</text><text xml:space="preserve" font-family="Nunito-Regular" font-size="169.0" fill="#000000" transform="matrix(1.00, 0.00, -0.00, -1.00, 668.5, 604.0)">n</text><text xml:space="preserve" font-family="Nunito-Regular" font-size="169.0" fill="#000000" transform="matrix(1.00, 0.00, -0.00, -1.00, 767.2, 604.0)">a</text><text xml:space="preserve" font-family="Nunito-Regular" font-size="169.0" fill="#000000" transform="matrix(1.00, 0.00, -0.00, -1.00, 856.4, 604.0)">l</text><text xml:space="preserve" font-family="Nunito-Regular" font-size="45.0" fill="#000000" transform="matrix(1.00, 0.00, -0.00, -1.00, 370.0, 555.0)">p</text><text xml:space="preserve" font-family="Nunito-Regular" font-size="45.0" fill="#000000" transform="matrix(1.00, 0.00, -0.00, -1.00, 396.5, 555.0)">r</text><text xml:space="preserve" font-family="Nunito-Regular" font-size="45.0" fill="#000000" transform="matrix(1.00, 0.00, -0.00, -1.00, 413.1, 555.0)">o</text><text xml:space="preserve" font-family="Nunito-Regular" font-size="45.0" fill="#000000" transform="matrix(1.00, 0.00, -0.00, -1.00, 439.6, 555.0)">g</text><text xml:space="preserve" font-family="Nunito-Regular" font-size="45.0" fill="#000000" transform="matrix(1.00, 0.00, -0.00, -1.00, 466.1, 555.0)">r</text><text xml:space="preserve" font-family="Nunito-Regular" font-size="45.0" fill="#000000" transform="matrix(1.00, 0.00, -0.00, -1.00, 482.9, 555.0)">a</text><text xml:space="preserve" font-family="Nunito-Regular" font-size="45.0" fill="#000000" transform="matrix(1.00, 0.00, -0.00, -1.00, 506.6, 555.0)">m</text><text xml:space="preserve" font-family="Nunito-Regular" font-size="45.0" fill="#000000" transform="matrix(1.00, 0.00, -0.00, -1.00, 547.8, 555.0)">m</text><text xml:space="preserve" font-family="Nunito-Regular" font-size="45.0" fill="#000000" transform="matrix(1.00, 0.00, -0.00, -1.00, 589.0, 555.0)">i</text><text xml:space="preserve" font-family="Nunito-Regular" font-size="45.0" fill="#000000" transform="matrix(1.00, 0.00, -0.00, -1.00, 600.2, 555.0)">n</text><text xml:space="preserve" font-family="Nunito-Regular" font-size="45.0" fill="#000000" transform="matrix(1.00, 0.00, -0.00, -1.00, 626.5, 555.0)">g</text><text xml:space="preserve" font-family="Nunito-Regular" font-size="25.0" fill="#000000" transform="matrix(1.00, 0.00, -0.00, -1.00, 152.0, 349.0)">E</text><text xml:space="preserve" font-family="Nunito-Regular" font-size="25.0" fill="#000000" transform="matrix(1.00, 0.00, -0.00, -1.00, 167.4, 349.0)">l</text><text xml:space="preserve" font-family="Nunito-Regular" font-size="25.0" fill="#000000" transform="matrix(1.00, 0.00, -0.00, -1.00, 173.6, 349.0)">m</text><text xml:space="preserve" font-family="Nunito-Regular" font-size="25.0" fill="#000000" transform="matrix(1.00, 0.00, -0.00, -1.00, 196.5, 349.0)"> </text><text xml:space="preserve" font-family="Nunito-Regular" font-size="25.0" fill="#000000" transform="matrix(1.00, 0.00, -0.00, -1.00, 204.1, 349.0)">e</text><text xml:space="preserve" font-family="Nunito-Regular" font-size="25.0" fill="#000000" transform="matrix(1.00, 0.00, -0.00, -1.00, 218.2, 349.0)">n</text><text xml:space="preserve" font-family="Nunito-Regular" font-size="25.0" fill="#000000" transform="matrix(1.00, 0.00, -0.00, -1.00, 232.8, 349.0)">f</text><text xml:space="preserve" font-family="Nunito-Regular" font-size="25.0" fill="#000000" transform="matrix(1.00, 0.00, -0.00, -1.00, 241.3, 349.0)">o</text><text xml:space="preserve" font-family="Nunito-Regular" font-size="25.0" fill="#000000" transform="matrix(1.00, 0.00, -0.00, -1.00, 256.0, 349.0)">r</text><text xml:space="preserve" font-family="Nunito-Regular" font-size="25.0" fill="#000000" transform="matrix(1.00, 0.00, -0.00, -1.00, 265.2, 349.0)">c</text><text xml:space="preserve" font-family="Nunito-Regular" font-size="25.0" fill="#000000" transform="matrix(1.00, 0.00, -0.00, -1.00, 277.4, 349.0)">e</text><text xml:space="preserve" font-family="Nunito-Regular" font-size="25.0" fill="#000000" transform="matrix(1.00, 0.00, -0.00, -1.00, 291.5, 349.0)">s</text><text xml:space="preserve" font-family="Nunito-Regular" font-size="25.0" fill="#000000" transform="matrix(1.00, 0.00, -0.00, -1.00, 304.3, 349.0)"> </text><text xml:space="preserve" font-family="Nunito-Regular" font-size="25.0" fill="#000000" transform="matrix(1.00, 0.00, -0.00, -1.00, 311.8, 349.0)">s</text><text xml:space="preserve" font-family="Nunito-Regular" font-size="25.0" fill="#000000" transform="matrix(1.00, 0.00, -0.00, -1.00, 324.6, 349.0)">a</text><text xml:space="preserve" font-family="Nunito-Regular" font-size="25.0" fill="#000000" transform="matrix(1.00, 0.00, -0.00, -1.00, 337.8, 349.0)">f</text><text xml:space="preserve" font-family="Nunito-Regular" font-size="25.0" fill="#000000" transform="matrix(1.00, 0.00, -0.00, -1.00, 345.9, 349.0)">e</text><text xml:space="preserve" font-family="Nunito-Regular" font-size="25.0" fill="#000000" transform="matrix(1.00, 0.00, -0.00, -1.00, 360.1, 349.0)"> </text><text xml:space="preserve" font-family="Nunito-Regular" font-size="25.0" fill="#000000" transform="matrix(1.00, 0.00, -0.00, -1.00, 367.6, 349.0)">p</text><text xml:space="preserve" font-family="Nunito-Regular" font-size="25.0" fill="#000000" transform="matrix(1.00, 0.00, -0.00, -1.00, 382.3, 349.0)">r</text><text xml:space="preserve" font-family="Nunito-Regular" font-size="25.0" fill="#000000" transform="matrix(1.00, 0.00, -0.00, -1.00, 391.5, 349.0)">o</text><text xml:space="preserve" font-family="Nunito-Regular" font-size="25.0" fill="#000000" transform="matrix(1.00, 0.00, -0.00, -1.00, 406.2, 349.0)">g</text><text xml:space="preserve" font-family="Nunito-Regular" font-size="25.0" fill="#000000" transform="matrix(1.00, 0.00, -0.00, -1.00, 421.0, 349.0)">r</text><text xml:space="preserve" font-family="Nunito-Regular" font-size="25.0" fill="#000000" transform="matrix(1.00, 0.00, -0.00, -1.00, 430.3, 349.0)">a</text><text xml:space="preserve" font-family="Nunito-Regular" font-size="25.0" fill="#000000" transform="matrix(1.00, 0.00, -0.00, -1.00, 443.5, 349.0)">m</text><text xml:space="preserve" font-family="Nunito-Regular" font-size="25.0" fill="#000000" transform="matrix(1.00, 0.00, -0.00, -1.00, 466.4, 349.0)">m</text><text xml:space="preserve" font-family="Nunito-Regular" font-size="25.0" fill="#000000" transform="matrix(1.00, 0.00, -0.00, -1.00, 489.3, 349.0)">i</text><text xml:space="preserve" font-family="Nunito-Regular" font-size="25.0" fill="#000000" transform="matrix(1.00, 0.00, -0.00, -1.00, 495.5, 349.0)">n</text><text xml:space="preserve" font-family="Nunito-Regular" font-size="25.0" fill="#000000" transform="matrix(1.00, 0.00, -0.00, -1.00, 510.2, 349.0)">g</text><text xml:space="preserve" font-family="Nunito-Regular" font-size="25.0" fill="#000000" transform="matrix(1.00, 0.00, -0.00, -1.00, 524.9, 349.0)"> </text><text xml:space="preserve" font-family="Nunito-Regular" font-size="25.0" fill="#000000" transform="matrix(1.00, 0.00, -0.00, -1.00, 532.4, 349.0)">p</text><text xml:space="preserve" font-family="Nunito-Regular" font-size="25.0" fill="#000000" transform="matrix(1.00, 0.00, -0.00, -1.00, 547.2, 349.0)">r</text><text xml:space="preserve" font-family="Nunito-Regular" font-size="25.0" fill="#000000" transform="matrix(1.00, 0.00, -0.00, -1.00, 556.5, 349.0)">a</text><text xml:space="preserve" font-family="Nunito-Regular" font-size="25.0" fill="#000000" transform="matrix(1.00, 0.00, -0.00, -1.00, 569.7, 349.0)">c</text><text xml:space="preserve" font-family="Nunito-Regular" font-size="25.0" fill="#000000" transform="matrix(1.00, 0.00, -0.00, -1.00, 581.9, 349.0)">t</text><text xml:space="preserve" font-family="Nunito-Regular" font-size="25.0" fill="#000000" transform="matrix(1.00, 0.00, -0.00, -1.00, 590.9, 349.0)">i</text><text xml:space="preserve" font-family="Nunito-Regular" font-size="25.0" fill="#000000" transform="matrix(1.00, 0.00, -0.00, -1.00, 597.2, 349.0)">c</text><text xml:space="preserve" font-family="Nunito-Regular" font-size="25.0" fill="#000000" transform="matrix(1.00, 0.00, -0.00, -1.00, 609.4, 349.0)">e</text><text xml:space="preserve" font-family="Nunito-Regular" font-size="25.0" fill="#000000" transform="matrix(1.00, 0.00, -0.00, -1.00, 623.5, 349.0)">s</text><text xml:space="preserve" font-family="Nunito-Regular" font-size="25.0" fill="#000000" transform="matrix(1.00, 0.00, -0.00, -1.00, 636.3, 349.0)"> </text><text xml:space="preserve" font-family="Nunito-Regular" font-size="25.0" fill="#000000" transform="matrix(1.00, 0.00, -0.00, -1.00, 643.8, 349.0)">a</text><text xml:space="preserve" font-family="Nunito-Regular" font-size="25.0" fill="#000000" transform="matrix(1.00, 0.00, -0.00, -1.00, 657.0, 349.0)">t</text><text xml:space="preserve" font-family="Nunito-Regular" font-size="25.0" fill="#000000" transform="matrix(1.00, 0.00, -0.00, -1.00, 666.1, 349.0)"> </text><text xml:space="preserve" font-family="Nunito-Regular" font-size="25.0" fill="#000000" transform="matrix(1.00, 0.00, -0.00, -1.00, 673.6, 349.0)">t</text><text xml:space="preserve" font-family="Nunito-Regular" font-size="25.0" fill="#000000" transform="matrix(1.00, 0.00, -0.00, -1.00, 682.6, 349.0)">h</text><text xml:space="preserve" font-family="Nunito-Regular" font-size="25.0" fill="#000000" transform="matrix(1.00, 0.00, -0.00, -1.00, 697.2, 349.0)">e</text><text xml:space="preserve" font-family="Nunito-Regular" font-size="25.0" fill="#000000" transform="matrix(1.00, 0.00, -0.00, -1.00, 711.4, 349.0)"> </text><text xml:space="preserve" font-family="Nunito-Regular" font-size="25.0" fill="#000000" transform="matrix(1.00, 0.00, -0.00, -1.00, 718.9, 349.0)">l</text><text xml:space="preserve" font-family="Nunito-Regular" font-size="25.0" fill="#000000" transform="matrix(1.00, 0.00, -0.00, -1.00, 725.2, 349.0)">a</text><text xml:space="preserve" font-family="Nunito-Regular" font-size="25.0" fill="#000000" transform="matrix(1.00, 0.00, -0.00, -1.00, 738.4, 349.0)">n</text><text xml:space="preserve" font-family="Nunito-Regular" font-size="25.0" fill="#000000" transform="matrix(1.00, 0.00, -0.00, -1.00, 753.0, 349.0)">g</text><text xml:space="preserve" font-family="Nunito-Regular" font-size="25.0" fill="#000000" transform="matrix(1.00, 0.00, -0.00, -1.00, 767.7, 349.0)">u</text><text xml:space="preserve" font-family="Nunito-Regular" font-size="25.0" fill="#000000" transform="matrix(1.00, 0.00, -0.00, -1.00, 782.3, 349.0)">a</text><text xml:space="preserve" font-family="Nunito-Regular" font-size="25.0" fill="#000000" transform="matrix(1.00, 0.00, -0.00, -1.00, 795.5, 349.0)">g</text><text xml:space="preserve" font-family="Nunito-Regular" font-size="25.0" fill="#000000" transform="matrix(1.00, 0.00, -0.00, -1.00, 810.3, 349.0)">e</text><text xml:space="preserve" font-family="Nunito-Regular" font-size="25.0" fill="#000000" transform="matrix(1.00, 0.00, -0.00, -1.00, 824.4, 349.0)"> </text><text xml:space="preserve" font-family="Nunito-Regular" font-size="25.0" fill="#000000" transform="matrix(1.00, 0.00, -0.00, -1.00, 832.0, 349.0)">l</text><text xml:space="preserve" font-family="Nunito-Regular" font-size="25.0" fill="#000000" transform="matrix(1.00, 0.00, -0.00, -1.00, 838.2, 349.0)">e</text><text xml:space="preserve" font-family="Nunito-Regular" font-size="25.0" fill="#000000" transform="matrix(1.00, 0.00, -0.00, -1.00, 852.0, 349.0)">v</text><text xml:space="preserve" font-family="Nunito-Regular" font-size="25.0" fill="#000000" transform="matrix(1.00, 0.00, -0.00, -1.00, 864.7, 349.0)">e</text><text xml:space="preserve" font-family="Nunito-Regular" font-size="25.0" fill="#000000" transform="matrix(1.00, 0.00, -0.00, -1.00, 878.8, 349.0)">l</text><text xml:space="preserve" font-family="Nunito-Regular" font-size="25.0" fill="#000000" transform="matrix(1.00, 0.00, -0.00, -1.00, 885.1, 349.0)">.</text><text xml:space="preserve" font-family="Nunito-Regular" font-size="27.0" fill="#000000" transform="matrix(1.00, 0.00, -0.00, -1.00, 11.0, 14.0)">h</text><text xml:space="preserve" font-family="Nunito-Regular" font-size="27.0" fill="#000000" transform="matrix(1.00, 0.00, -0.00, -1.00, 26.8, 14.0)">e</text><text xml:space="preserve" font-family="Nunito-Regular" font-size="27.0" fill="#000000" transform="matrix(1.00, 0.00, -0.00, -1.00, 42.0, 14.0)">l</text><text xml:space="preserve" font-family="Nunito-Regular" font-size="27.0" fill="#000000" transform="matrix(1.00, 0.00, -0.00, -1.00, 48.8, 14.0)">l</text><text xml:space="preserve" font-family="Nunito-Regular" font-size="27.0" fill="#000000" transform="matrix(1.00, 0.00, -0.00, -1.00, 55.5, 14.0)"> </text><text xml:space="preserve" font-family="Nunito-Regular" font-size="27.0" fill="#000000" transform="matrix(1.00, 0.00, -0.00, -1.00, 63.6, 14.0)">y</text><text xml:space="preserve" font-family="Nunito-Regular" font-size="27.0" fill="#000000" transform="matrix(1.00, 0.00, -0.00, -1.00, 77.2, 14.0)">e</text><text xml:space="preserve" font-family="Nunito-Regular" font-size="27.0" fill="#000000" transform="matrix(1.00, 0.00, -0.00, -1.00, 92.5, 14.0)">a</text><text xml:space="preserve" font-family="Nunito-Regular" font-size="27.0" fill="#000000" transform="matrix(1.00, 0.00, -0.00, -1.00, 106.7, 14.0)">h</text><text xml:space="preserve" font-family="Nunito-Regular" font-size="27.0" fill="#000000" transform="matrix(1.00, 0.00, -0.00, -1.00, 122.5, 14.0)"> </text><text xml:space="preserve" font-family="Nunito-Regular" font-size="27.0" fill="#000000" transform="matrix(1.00, 0.00, -0.00, -1.00, 130.6, 14.0)">:</text><text xml:space="preserve" font-family="Nunito-Regular" font-size="27.0" fill="#000000" transform="matrix(1.00, 0.00, -0.00, -1.00, 138.7, 14.0)">]</text><text xml:space="preserve" font-family="Nunito-Regular" font-size="27.0" fill="#000000" transform="matrix(1.00, 0.00, -0.00, -1.00, 147.8, 14.0)"> </text><text xml:space="preserve" font-family="Nunito-Regular" font-size="27.0" fill="#000000" transform="matrix(1.00, 0.00, -0.00, -1.00, 155.9, 14.0)">m</text><text xml:space="preserve" font-family="Nunito-Regular" font-size="27.0" fill="#000000" transform="matrix(1.00, 0.00, -0.00, -1.00, 180.6, 14.0)">o</text><text xml:space="preserve" font-family="Nunito-Regular" font-size="27.0" fill="#000000" transform="matrix(1.00, 0.00, -0.00, -1.00, 196.6, 14.0)">r</text><text xml:space="preserve" font-family="Nunito-Regular" font-size="27.0" fill="#000000" transform="matrix(1.00, 0.00, -0.00, -1.00, 206.5, 14.0)">e</text><text xml:space="preserve" font-family="Nunito-Regular" font-size="27.0" fill="#000000" transform="matrix(1.00, 0.00, -0.00, -1.00, 221.7, 14.0)"> </text><text xml:space="preserve" font-family="Nunito-Regular" font-size="27.0" fill="#000000" transform="matrix(1.00, 0.00, -0.00, -1.00, 229.9, 14.0)">p</text><text xml:space="preserve" font-family="Nunito-Regular" font-size="27.0" fill="#000000" transform="matrix(1.00, 0.00, -0.00, -1.00, 245.8, 14.0)">l</text><text xml:space="preserve" font-family="Nunito-Regular" font-size="27.0" fill="#000000" transform="matrix(1.00, 0.00, -0.00, -1.00, 252.5, 14.0)">e</text><text xml:space="preserve" font-family="Nunito-Regular" font-size="27.0" fill="#000000" transform="matrix(1.00, 0.00, -0.00, -1.00, 267.8, 14.0)">a</text><text xml:space="preserve" font-family="Nunito-Regular" font-size="27.0" fill="#000000" transform="matrix(1.00, 0.00, -0.00, -1.00, 282.0, 14.0)">s</text><text xml:space="preserve" font-family="Nunito-Regular" font-size="27.0" fill="#000000" transform="matrix(1.00, 0.00, -0.00, -1.00, 295.8, 14.0)">a</text><text xml:space="preserve" font-family="Nunito-Regular" font-size="27.0" fill="#000000" transform="matrix(1.00, 0.00, -0.00, -1.00, 310.0, 14.0)">n</text><text xml:space="preserve" font-family="Nunito-Regular" font-size="27.0" fill="#000000" transform="matrix(1.00, 0.00, -0.00, -1.00, 325.8, 14.0)">t</text><text xml:space="preserve" font-family="Nunito-Regular" font-size="27.0" fill="#000000" transform="matrix(1.00, 0.00, -0.00, -1.00, 335.6, 14.0)">!</text><text xml:space="preserve" font-family="Nunito-Regular" font-size="27.0" fill="#000000" transform="matrix(1.00, 0.00, -0.00, -1.00, 345.9, 14.0)">!</text><text xml:space="preserve" font-family="Nunito-Regular" font-size="30.0" fill="#000000" transform="matrix(1.00, 0.00, -0.00, -1.00, 499.0, 464.0)">i</text><text xml:space="preserve" font-family="Nunito-Regular" font-size="30.0" fill="#000000" transform="matrix(1.00, 0.00, -0.00, -1.00, 506.5, 464.0)">t</text><text xml:space="preserve" font-family="Nunito-Regular" font-size="30.0" fill="#000000" transform="matrix(1.00, 0.00, -0.00, -1.00, 517.3, 464.0)">’</text><text xml:space="preserve" font-family="Nunito-Regular" font-size="30.0" fill="#000000" transform="matrix(1.00, 0.00, -0.00, -1.00, 523.7, 464.0)">s</text><text xml:space="preserve" font-family="Nunito-Light" font-size="21.0" fill="#000000" transform="matrix(1.00, 0.00, -0.00, -1.00, 614.0, 16.0)">d</text><text xml:space="preserve" font-family="Nunito-Light" font-size="21.0" fill="#000000" transform="matrix(1.00, 0.00, -0.00, -1.00, 625.9, 16.0)">o</text><text xml:space="preserve" font-family="Nunito-Light" font-size="21.0" fill="#000000" transform="matrix(1.00, 0.00, -0.00, -1.00, 637.8, 16.0)">n</text><text xml:space="preserve" font-family="Nunito-Light" font-size="21.0" fill="#000000" transform="matrix(1.00, 0.00, -0.00, -1.00, 648.7, 16.0)">’</text><text xml:space="preserve" font-family="Nunito-Light" font-size="21.0" fill="#000000" transform="matrix(1.00, 0.00, -0.00, -1.00, 654.3, 16.0)">t</text><text xml:space="preserve" font-family="Nunito-Light" font-size="21.0" fill="#000000" transform="matrix(1.00, 0.00, -0.00, -1.00, 661.5, 16.0)"> </text><text xml:space="preserve" font-family="Nunito-Light" font-size="21.0" fill="#000000" transform="matrix(1.00, 0.00, -0.00, -1.00, 667.5, 16.0)">f</text><text xml:space="preserve" font-family="Nunito-Light" font-size="21.0" fill="#000000" transform="matrix(1.00, 0.00, -0.00, -1.00, 674.2, 16.0)">o</text><text xml:space="preserve" font-family="Nunito-Light" font-size="21.0" fill="#000000" transform="matrix(1.00, 0.00, -0.00, -1.00, 686.1, 16.0)">r</text><text xml:space="preserve" font-family="Nunito-Light" font-size="21.0" fill="#000000" transform="matrix(1.00, 0.00, -0.00, -1.00, 693.4, 16.0)">g</text><text xml:space="preserve" font-family="Nunito-Light" font-size="21.0" fill="#000000" transform="matrix(1.00, 0.00, -0.00, -1.00, 705.4, 16.0)">e</text><text xml:space="preserve" font-family="Nunito-Light" font-size="21.0" fill="#000000" transform="matrix(1.00, 0.00, -0.00, -1.00, 716.9, 16.0)">t</text><text xml:space="preserve" font-family="Nunito-Light" font-size="21.0" fill="#000000" transform="matrix(1.00, 0.00, -0.00, -1.00, 724.2, 16.0)"> </text><text xml:space="preserve" font-family="Nunito-Regular" font-size="21.0" fill="#000000" transform="matrix(1.00, 0.00, -0.00, -1.00, 730.1, 16.0)">i</text><text xml:space="preserve" font-family="Nunito-Regular" font-size="21.0" fill="#000000" transform="matrix(1.00, 0.00, -0.00, -1.00, 735.4, 16.0)">m</text><text xml:space="preserve" font-family="Nunito-Regular" font-size="21.0" fill="#000000" transform="matrix(1.00, 0.00, -0.00, -1.00, 754.6, 16.0)">m</text><text xml:space="preserve" font-family="Nunito-Regular" font-size="21.0" fill="#000000" transform="matrix(1.00, 0.00, -0.00, -1.00, 773.8, 16.0)">u</text><text xml:space="preserve" font-family="Nunito-Regular" font-size="21.0" fill="#000000" transform="matrix(1.00, 0.00, -0.00, -1.00, 786.1, 16.0)">t</text><text xml:space="preserve" font-family="Nunito-Regular" font-size="21.0" fill="#000000" transform="matrix(1.00, 0.00, -0.00, -1.00, 794.0, 16.0)">a</text><text xml:space="preserve" font-family="Nunito-Regular" font-size="21.0" fill="#000000" transform="matrix(1.00, 0.00, -0.00, -1.00, 805.1, 16.0)">b</text><text xml:space="preserve" font-family="Nunito-Regular" font-size="21.0" fill="#000000" transform="matrix(1.00, 0.00, -0.00, -1.00, 817.4, 16.0)">i</text><text xml:space="preserve" font-family="Nunito-Regular" font-size="21.0" fill="#000000" transform="matrix(1.00, 0.00, -0.00, -1.00, 822.7, 16.0)">l</text><text xml:space="preserve" font-family="Nunito-Regular" font-size="21.0" fill="#000000" transform="matrix(1.00, 0.00, -0.00, -1.00, 827.9, 16.0)">i</text><text xml:space="preserve" font-family="Nunito-Regular" font-size="21.0" fill="#000000" transform="matrix(1.00, 0.00, -0.00, -1.00, 833.1, 16.0)">t</text><text xml:space="preserve" font-family="Nunito-Regular" font-size="21.0" fill="#000000" transform="matrix(1.00, 0.00, -0.00, -1.00, 841.0, 16.0)">y</text><text xml:space="preserve" font-family="Nunito-Regular" font-size="21.0" fill="#000000" transform="matrix(1.00, 0.00, -0.00, -1.00, 851.9, 16.0)"> </text><text xml:space="preserve" font-family="Nunito-Regular" font-size="21.0" fill="#000000" transform="matrix(1.00, 0.00, -0.00, -1.00, 858.2, 16.0)">/</text><text xml:space="preserve" font-family="Nunito-Regular" font-size="21.0" fill="#000000" transform="matrix(1.00, 0.00, -0.00, -1.00, 864.6, 16.0)"> </text><text xml:space="preserve" font-family="Nunito-Regular" font-size="21.0" fill="#000000" transform="matrix(1.00, 0.00, -0.00, -1.00, 870.9, 16.0)">p</text><text xml:space="preserve" font-family="Nunito-Regular" font-size="21.0" fill="#000000" transform="matrix(1.00, 0.00, -0.00, -1.00, 883.3, 16.0)">u</text><text xml:space="preserve" font-family="Nunito-Regular" font-size="21.0" fill="#000000" transform="matrix(1.00, 0.00, -0.00, -1.00, 895.6, 16.0)">r</text><text xml:space="preserve" font-family="Nunito-Regular" font-size="21.0" fill="#000000" transform="matrix(1.00, 0.00, -0.00, -1.00, 903.3, 16.0)">e</text><text xml:space="preserve" font-family="Nunito-Regular" font-size="21.0" fill="#000000" transform="matrix(1.00, 0.00, -0.00, -1.00, 915.2, 16.0)"> </text><text xml:space="preserve" font-family="Nunito-Regular" font-size="21.0" fill="#000000" transform="matrix(1.00, 0.00, -0.00, -1.00, 921.5, 16.0)">f</text><text xml:space="preserve" font-family="Nunito-Regular" font-size="21.0" fill="#000000" transform="matrix(1.00, 0.00, -0.00, -1.00, 928.9, 16.0)">u</text><text xml:space="preserve" font-family="Nunito-Regular" font-size="21.0" fill="#000000" transform="matrix(1.00, 0.00, -0.00, -1.00, 941.1, 16.0)">n</text><text xml:space="preserve" font-family="Nunito-Regular" font-size="21.0" fill="#000000" transform="matrix(1.00, 0.00, -0.00, -1.00, 953.4, 16.0)">c</text><text xml:space="preserve" font-family="Nunito-Regular" font-size="21.0" fill="#000000" transform="matrix(1.00, 0.00, -0.00, -1.00, 963.7, 16.0)">t</text><text xml:space="preserve" font-family="Nunito-Regular" font-size="21.0" fill="#000000" transform="matrix(1.00, 0.00, -0.00, -1.00, 971.3, 16.0)">i</text><text xml:space="preserve" font-family="Nunito-Regular" font-size="21.0" fill="#000000" transform="matrix(1.00, 0.00, -0.00, -1.00, 976.5, 16.0)">o</text><text xml:space="preserve" font-family="Nunito-Regular" font-size="21.0" fill="#000000" transform="matrix(1.00, 0.00, -0.00, -1.00, 988.9, 16.0)">n</text><text xml:space="preserve" font-family="Nunito-Regular" font-size="21.0" fill="#000000" transform="matrix(1.00, 0.00, -0.00, -1.00, 1001.1, 16.0)">s</text></g></svg>