<?xml version="1.0" encoding="UTF-8" standalone="no"?><svg xmlns="http://www.w3.org/2000/svg" xmlns:xlink="http://www.w3.org/1999/xlink" clip-rule="evenodd" stroke-miterlimit="4.00" viewBox="0 0 1024 768"><desc>SVG generated by Keynote</desc><defs></defs><g transform="matrix(1.00, 0.00, -0.00, -1.00, 0.0, 768.0)"><path d="M 0.0 768.0 L 1024.0 768.0 L 1024.0 0.0 L 0.0 0.0 Z M 0.0 768.0 " fill="#FEFFFF"></path><image xlink:href="../../F1348A02-C8A4-4CAB-80D5-5978697D1517/assets/C1570E94534BAE56969A9903C2E18052.png" width="736.00" height="540.00" transform="matrix(1.37, 0.00, -0.00, -1.37, 10.0, 753.0)"></image><path d="M 354.6 694.5 L 637.5 694.5 L 637.5 607.5 L 354.6 607.5 Z M 354.6 694.5 " fill="#FEFFFF"></path><g><clipPath id="clip-14"><path d="M 338.8 591.7 L 653.3 591.7 L 653.3 710.2 L 338.8 710.2 Z M 338.8 591.7 "></path></clipPath><g clip-path="url(#clip-14)"><text xml:space="preserve" font-family="Nunito-Bold" font-weight="bold" font-size="58.0" fill="#000000" transform="matrix(1.00, 0.00, -0.00, -1.00, 359.0, 632.0)">A</text><text xml:space="preserve" font-family="Nunito-Bold" font-weight="bold" font-size="58.0" fill="#000000" transform="matrix(1.00, 0.00, -0.00, -1.00, 400.8, 632.0)">c</text><text xml:space="preserve" font-family="Nunito-Bold" font-weight="bold" font-size="58.0" fill="#000000" transform="matrix(1.00, 0.00, -0.00, -1.00, 430.0, 632.0)">a</text><text xml:space="preserve" font-family="Nunito-Bold" font-weight="bold" font-size="58.0" fill="#000000" transform="matrix(1.00, 0.00, -0.00, -1.00, 461.8, 632.0)">d</text><text xml:space="preserve" font-family="Nunito-Bold" font-weight="bold" font-size="58.0" fill="#000000" transform="matrix(1.00, 0.00, -0.00, -1.00, 497.5, 632.0)">e</text><text xml:space="preserve" font-family="Nunito-Bold" font-weight="bold" font-size="58.0" fill="#000000" transform="matrix(1.00, 0.00, -0.00, -1.00, 531.1, 632.0)">m</text><text xml:space="preserve" font-family="Nunito-Bold" font-weight="bold" font-size="58.0" fill="#000000" transform="matrix(1.00, 0.00, -0.00, -1.00, 585.4, 632.0)">i</text><text xml:space="preserve" font-family="Nunito-Bold" font-weight="bold" font-size="58.0" fill="#000000" transform="matrix(1.00, 0.00, -0.00, -1.00, 601.1, 632.0)">a</text></g></g><path d="M 33.4 293.6 L 429.9 293.6 L 429.9 236.6 L 33.4 236.6 Z M 33.4 293.6 " fill="#FEFFFF"></path><g><clipPath id="clip-15"><path d="M 25.1 228.3 L 438.1 228.3 L 438.1 301.9 L 25.1 301.9 Z M 25.1 228.3 "></path></clipPath><g clip-path="url(#clip-15)"><text xml:space="preserve" font-family="Nunito-Bold" font-weight="bold" font-size="36.0" fill="#000000" transform="matrix(1.00, 0.00, -0.00, -1.00, 38.0, 253.0)">e</text><text xml:space="preserve" font-family="Nunito-Bold" font-weight="bold" font-size="36.0" fill="#000000" transform="matrix(1.00, 0.00, -0.00, -1.00, 58.9, 253.0)">n</text><text xml:space="preserve" font-family="Nunito-Bold" font-weight="bold" font-size="36.0" fill="#000000" transform="matrix(1.00, 0.00, -0.00, -1.00, 80.6, 253.0)">c</text><text xml:space="preserve" font-family="Nunito-Bold" font-weight="bold" font-size="36.0" fill="#000000" transform="matrix(1.00, 0.00, -0.00, -1.00, 98.8, 253.0)">r</text><text xml:space="preserve" font-family="Nunito-Bold" font-weight="bold" font-size="36.0" fill="#000000" transform="matrix(1.00, 0.00, -0.00, -1.00, 114.3, 253.0)">y</text><text xml:space="preserve" font-family="Nunito-Bold" font-weight="bold" font-size="36.0" fill="#000000" transform="matrix(1.00, 0.00, -0.00, -1.00, 133.4, 253.0)">p</text><text xml:space="preserve" font-family="Nunito-Bold" font-weight="bold" font-size="36.0" fill="#000000" transform="matrix(1.00, 0.00, -0.00, -1.00, 155.6, 253.0)">t</text><text xml:space="preserve" font-family="Nunito-Bold" font-weight="bold" font-size="36.0" fill="#000000" transform="matrix(1.00, 0.00, -0.00, -1.00, 169.4, 253.0)">e</text><text xml:space="preserve" font-family="Nunito-Bold" font-weight="bold" font-size="36.0" fill="#000000" transform="matrix(1.00, 0.00, -0.00, -1.00, 190.2, 253.0)">d</text><text xml:space="preserve" font-family="Nunito-Bold" font-weight="bold" font-size="36.0" fill="#000000" transform="matrix(1.00, 0.00, -0.00, -1.00, 212.3, 253.0)"> </text><text xml:space="preserve" font-family="Nunito-Bold" font-weight="bold" font-size="36.0" fill="#000000" transform="matrix(1.00, 0.00, -0.00, -1.00, 223.7, 253.0)">i</text><text xml:space="preserve" font-family="Nunito-Bold" font-weight="bold" font-size="36.0" fill="#000000" transform="matrix(1.00, 0.00, -0.00, -1.00, 233.5, 253.0)">n</text><text xml:space="preserve" font-family="Nunito-Bold" font-weight="bold" font-size="36.0" fill="#000000" transform="matrix(1.00, 0.00, -0.00, -1.00, 255.2, 253.0)">f</text><text xml:space="preserve" font-family="Nunito-Bold" font-weight="bold" font-size="36.0" fill="#000000" transform="matrix(1.00, 0.00, -0.00, -1.00, 268.0, 253.0)">o</text><text xml:space="preserve" font-family="Nunito-Bold" font-weight="bold" font-size="36.0" fill="#000000" transform="matrix(1.00, 0.00, -0.00, -1.00, 290.1, 253.0)">r</text><text xml:space="preserve" font-family="Nunito-Bold" font-weight="bold" font-size="36.0" fill="#000000" transform="matrix(1.00, 0.00, -0.00, -1.00, 304.6, 253.0)">m</text><text xml:space="preserve" font-family="Nunito-Bold" font-weight="bold" font-size="36.0" fill="#000000" transform="matrix(1.00, 0.00, -0.00, -1.00, 338.3, 253.0)">a</text><text xml:space="preserve" font-family="Nunito-Bold" font-weight="bold" font-size="36.0" fill="#000000" transform="matrix(1.00, 0.00, -0.00, -1.00, 358.1, 253.0)">t</text><text xml:space="preserve" font-family="Nunito-Bold" font-weight="bold" font-size="36.0" fill="#000000" transform="matrix(1.00, 0.00, -0.00, -1.00, 371.9, 253.0)">i</text><text xml:space="preserve" font-family="Nunito-Bold" font-weight="bold" font-size="36.0" fill="#000000" transform="matrix(1.00, 0.00, -0.00, -1.00, 381.6, 253.0)">o</text><text xml:space="preserve" font-family="Nunito-Bold" font-weight="bold" font-size="36.0" fill="#000000" transform="matrix(1.00, 0.00, -0.00, -1.00, 403.8, 253.0)">n</text></g></g><path d="M 182.8 519.8 L 385.3 519.8 L 385.3 462.8 L 182.8 462.8 Z M 182.8 519.8 " fill="#FEFFFF"></path><g><clipPath id="clip-16"><path d="M 174.5 454.5 L 393.6 454.5 L 393.6 528.0 L 174.5 528.0 Z M 174.5 454.5 "></path></clipPath><g clip-path="url(#clip-16)"><text xml:space="preserve" font-family="Nunito-Bold" font-weight="bold" font-size="36.0" fill="#000000" transform="matrix(1.00, 0.00, -0.00, -1.00, 187.0, 479.0)">g</text><text xml:space="preserve" font-family="Nunito-Bold" font-weight="bold" font-size="36.0" fill="#000000" transform="matrix(1.00, 0.00, -0.00, -1.00, 209.1, 479.0)">r</text><text xml:space="preserve" font-family="Nunito-Bold" font-weight="bold" font-size="36.0" fill="#000000" transform="matrix(1.00, 0.00, -0.00, -1.00, 223.4, 479.0)">e</text><text xml:space="preserve" font-family="Nunito-Bold" font-weight="bold" font-size="36.0" fill="#000000" transform="matrix(1.00, 0.00, -0.00, -1.00, 244.3, 479.0)">a</text><text xml:space="preserve" font-family="Nunito-Bold" font-weight="bold" font-size="36.0" fill="#000000" transform="matrix(1.00, 0.00, -0.00, -1.00, 264.0, 479.0)">t</text><text xml:space="preserve" font-family="Nunito-Bold" font-weight="bold" font-size="36.0" fill="#000000" transform="matrix(1.00, 0.00, -0.00, -1.00, 277.8, 479.0)"> </text><text xml:space="preserve" font-family="Nunito-Bold" font-weight="bold" font-size="36.0" fill="#000000" transform="matrix(1.00, 0.00, -0.00, -1.00, 289.3, 479.0)">i</text><text xml:space="preserve" font-family="Nunito-Bold" font-weight="bold" font-size="36.0" fill="#000000" transform="matrix(1.00, 0.00, -0.00, -1.00, 299.0, 479.0)">d</text><text xml:space="preserve" font-family="Nunito-Bold" font-weight="bold" font-size="36.0" fill="#000000" transform="matrix(1.00, 0.00, -0.00, -1.00, 321.1, 479.0)">e</text><text xml:space="preserve" font-family="Nunito-Bold" font-weight="bold" font-size="36.0" fill="#000000" transform="matrix(1.00, 0.00, -0.00, -1.00, 341.9, 479.0)">a</text><text xml:space="preserve" font-family="Nunito-Bold" font-weight="bold" font-size="36.0" fill="#000000" transform="matrix(1.00, 0.00, -0.00, -1.00, 361.7, 479.0)">s</text></g></g><path d="M 651.4 341.7 L 924.3 341.7 L 924.3 284.7 L 651.4 284.7 Z M 651.4 341.7 " fill="#FEFFFF"></path><g><clipPath id="clip-17"><path d="M 643.1 276.4 L 932.5 276.4 L 932.5 350.0 L 643.1 350.0 Z M 643.1 276.4 "></path></clipPath><g clip-path="url(#clip-17)"><text xml:space="preserve" font-family="Nunito-Regular" font-size="36.0" fill="#000000" transform="matrix(1.00, 0.00, -0.00, -1.00, 656.0, 301.0)">V</text><text xml:space="preserve" font-family="Nunito-Regular" font-size="36.0" fill="#000000" transform="matrix(1.00, 0.00, -0.00, -1.00, 680.0, 301.0)">I</text><text xml:space="preserve" font-family="Nunito-Regular" font-size="36.0" fill="#000000" transform="matrix(1.00, 0.00, -0.00, -1.00, 691.2, 301.0)">P</text><text xml:space="preserve" font-family="Nunito-Regular" font-size="36.0" fill="#000000" transform="matrix(1.00, 0.00, -0.00, -1.00, 714.6, 301.0)"> </text><text xml:space="preserve" font-family="Nunito-Bold" font-weight="bold" font-size="36.0" fill="#000000" transform="matrix(1.00, 0.00, -0.00, -1.00, 725.4, 301.0)">c</text><text xml:space="preserve" font-family="Nunito-Bold" font-weight="bold" font-size="36.0" fill="#000000" transform="matrix(1.00, 0.00, -0.00, -1.00, 743.5, 301.0)">o</text><text xml:space="preserve" font-family="Nunito-Bold" font-weight="bold" font-size="36.0" fill="#000000" transform="matrix(1.00, 0.00, -0.00, -1.00, 765.7, 301.0)">m</text><text xml:space="preserve" font-family="Nunito-Bold" font-weight="bold" font-size="36.0" fill="#000000" transform="matrix(1.00, 0.00, -0.00, -1.00, 799.4, 301.0)">m</text><text xml:space="preserve" font-family="Nunito-Bold" font-weight="bold" font-size="36.0" fill="#000000" transform="matrix(1.00, 0.00, -0.00, -1.00, 833.1, 301.0)">u</text><text xml:space="preserve" font-family="Nunito-Bold" font-weight="bold" font-size="36.0" fill="#000000" transform="matrix(1.00, 0.00, -0.00, -1.00, 854.9, 301.0)">n</text><text xml:space="preserve" font-family="Nunito-Bold" font-weight="bold" font-size="36.0" fill="#000000" transform="matrix(1.00, 0.00, -0.00, -1.00, 876.7, 301.0)">i</text><text xml:space="preserve" font-family="Nunito-Bold" font-weight="bold" font-size="36.0" fill="#000000" transform="matrix(1.00, 0.00, -0.00, -1.00, 886.4, 301.0)">t</text><text xml:space="preserve" font-family="Nunito-Bold" font-weight="bold" font-size="36.0" fill="#000000" transform="matrix(1.00, 0.00, -0.00, -1.00, 900.7, 301.0)">y</text></g></g><path d="M 557.3 482.0 L 783.2 482.0 L 783.2 425.0 L 557.3 425.0 Z M 557.3 482.0 " fill="#FEFFFF"></path><g><clipPath id="clip-18"><path d="M 549.0 416.7 L 791.5 416.7 L 791.5 490.3 L 549.0 490.3 Z M 549.0 416.7 "></path></clipPath><g clip-path="url(#clip-18)"><text xml:space="preserve" font-family="Nunito-Bold" font-weight="bold" font-size="36.0" fill="#000000" transform="matrix(1.00, 0.00, -0.00, -1.00, 562.0, 442.0)">t</text><text xml:space="preserve" font-family="Nunito-Bold" font-weight="bold" font-size="36.0" fill="#000000" transform="matrix(1.00, 0.00, -0.00, -1.00, 575.8, 442.0)">o</text><text xml:space="preserve" font-family="Nunito-Bold" font-weight="bold" font-size="36.0" fill="#000000" transform="matrix(1.00, 0.00, -0.00, -1.00, 597.9, 442.0)">p</text><text xml:space="preserve" font-family="Nunito-Bold" font-weight="bold" font-size="36.0" fill="#000000" transform="matrix(1.00, 0.00, -0.00, -1.00, 620.1, 442.0)"> </text><text xml:space="preserve" font-family="Nunito-Bold" font-weight="bold" font-size="36.0" fill="#000000" transform="matrix(1.00, 0.00, -0.00, -1.00, 631.5, 442.0)">r</text><text xml:space="preserve" font-family="Nunito-Bold" font-weight="bold" font-size="36.0" fill="#000000" transform="matrix(1.00, 0.00, -0.00, -1.00, 645.8, 442.0)">e</text><text xml:space="preserve" font-family="Nunito-Bold" font-weight="bold" font-size="36.0" fill="#000000" transform="matrix(1.00, 0.00, -0.00, -1.00, 666.6, 442.0)">s</text><text xml:space="preserve" font-family="Nunito-Bold" font-weight="bold" font-size="36.0" fill="#000000" transform="matrix(1.00, 0.00, -0.00, -1.00, 685.5, 442.0)">e</text><text xml:space="preserve" font-family="Nunito-Bold" font-weight="bold" font-size="36.0" fill="#000000" transform="matrix(1.00, 0.00, -0.00, -1.00, 706.3, 442.0)">a</text><text xml:space="preserve" font-family="Nunito-Bold" font-weight="bold" font-size="36.0" fill="#000000" transform="matrix(1.00, 0.00, -0.00, -1.00, 726.1, 442.0)">r</text><text xml:space="preserve" font-family="Nunito-Bold" font-weight="bold" font-size="36.0" fill="#000000" transform="matrix(1.00, 0.00, -0.00, -1.00, 740.4, 442.0)">c</text><text xml:space="preserve" font-family="Nunito-Bold" font-weight="bold" font-size="36.0" fill="#000000" transform="matrix(1.00, 0.00, -0.00, -1.00, 757.2, 442.0)">h</text></g></g><path d="M 0.0 0.0 L 100.0 0.0 L 100.0 100.0 L 0.0 100.0 Z M 0.0 0.0 " fill="none" stroke="#85878C" stroke-width="2.00" transform="matrix(1.00, 0.00, 0.00, -1.00, 472.0, 424.0)"></path></g></svg>