<?xml version="1.0" encoding="UTF-8" standalone="no"?><svg xmlns="http://www.w3.org/2000/svg" xmlns:xlink="http://www.w3.org/1999/xlink" clip-rule="evenodd" stroke-miterlimit="4.00" viewBox="0 0 654 59"><desc>SVG generated by Keynote</desc><defs></defs><g transform="matrix(1.00, 0.00, -0.00, -1.00, 0.0, 59.0)"><text xml:space="preserve" font-family="Nunito-Regular" font-size="60.0" fill="#000000" transform="matrix(1.00, 0.00, -0.00, -1.00, 1.0, 15.0)">f</text><text xml:space="preserve" font-family="Nunito-Regular" font-size="60.0" fill="#000000" transform="matrix(1.00, 0.00, -0.00, -1.00, 22.2, 15.0)">u</text><text xml:space="preserve" font-family="Nunito-Regular" font-size="60.0" fill="#000000" transform="matrix(1.00, 0.00, -0.00, -1.00, 57.2, 15.0)">n</text><text xml:space="preserve" font-family="Nunito-Regular" font-size="60.0" fill="#000000" transform="matrix(1.00, 0.00, -0.00, -1.00, 92.3, 15.0)">c</text><text xml:space="preserve" font-family="Nunito-Regular" font-size="60.0" fill="#000000" transform="matrix(1.00, 0.00, -0.00, -1.00, 121.5, 15.0)">t</text><text xml:space="preserve" font-family="Nunito-Regular" font-size="60.0" fill="#000000" transform="matrix(1.00, 0.00, -0.00, -1.00, 143.3, 15.0)">i</text><text xml:space="preserve" font-family="Nunito-Regular" font-size="60.0" fill="#000000" transform="matrix(1.00, 0.00, -0.00, -1.00, 158.2, 15.0)">o</text><text xml:space="preserve" font-family="Nunito-Regular" font-size="60.0" fill="#000000" transform="matrix(1.00, 0.00, -0.00, -1.00, 193.6, 15.0)">n</text><text xml:space="preserve" font-family="Nunito-Regular" font-size="60.0" fill="#000000" transform="matrix(1.00, 0.00, -0.00, -1.00, 228.6, 15.0)">a</text><text xml:space="preserve" font-family="Nunito-Regular" font-size="60.0" fill="#000000" transform="matrix(1.00, 0.00, -0.00, -1.00, 260.3, 15.0)">l</text><text xml:space="preserve" font-family="Nunito-Light" font-size="60.0" fill="#000000" transform="matrix(1.00, 0.00, -0.00, -1.00, 275.2, 15.0)"> </text><text xml:space="preserve" font-family="Nunito-Light" font-size="60.0" fill="#000000" transform="matrix(1.00, 0.00, -0.00, -1.00, 292.3, 15.0)">p</text><text xml:space="preserve" font-family="Nunito-Light" font-size="60.0" fill="#000000" transform="matrix(1.00, 0.00, -0.00, -1.00, 326.4, 15.0)">r</text><text xml:space="preserve" font-family="Nunito-Light" font-size="60.0" fill="#000000" transform="matrix(1.00, 0.00, -0.00, -1.00, 347.0, 15.0)">o</text><text xml:space="preserve" font-family="Nunito-Light" font-size="60.0" fill="#000000" transform="matrix(1.00, 0.00, -0.00, -1.00, 381.1, 15.0)">g</text><text xml:space="preserve" font-family="Nunito-Light" font-size="60.0" fill="#000000" transform="matrix(1.00, 0.00, -0.00, -1.00, 415.1, 15.0)">r</text><text xml:space="preserve" font-family="Nunito-Light" font-size="60.0" fill="#000000" transform="matrix(1.00, 0.00, -0.00, -1.00, 435.9, 15.0)">a</text><text xml:space="preserve" font-family="Nunito-Light" font-size="60.0" fill="#000000" transform="matrix(1.00, 0.00, -0.00, -1.00, 466.5, 15.0)">m</text><text xml:space="preserve" font-family="Nunito-Light" font-size="60.0" fill="#000000" transform="matrix(1.00, 0.00, -0.00, -1.00, 520.4, 15.0)">m</text><text xml:space="preserve" font-family="Nunito-Light" font-size="60.0" fill="#000000" transform="matrix(1.00, 0.00, -0.00, -1.00, 574.3, 15.0)">i</text><text xml:space="preserve" font-family="Nunito-Light" font-size="60.0" fill="#000000" transform="matrix(1.00, 0.00, -0.00, -1.00, 588.2, 15.0)">n</text><text xml:space="preserve" font-family="Nunito-Light" font-size="60.0" fill="#000000" transform="matrix(1.00, 0.00, -0.00, -1.00, 622.2, 15.0)">g</text></g></svg>