<?xml version="1.0" encoding="UTF-8" standalone="no"?><svg xmlns="http://www.w3.org/2000/svg" xmlns:xlink="http://www.w3.org/1999/xlink" clip-rule="evenodd" stroke-miterlimit="4.00" viewBox="0 0 105 61"><desc>SVG generated by Keynote</desc><defs></defs><g transform="matrix(1.00, 0.00, -0.00, -1.00, 0.0, 61.0)"><image xlink:href="E2C35D91EE7F733BAAF83E3EE1912F7D.png" width="102.00" height="54.00" transform="matrix(1.00, 0.00, -0.00, -1.00, 1.4, 55.7)" opacity="0.50"></image><g><clipPath id="clip-27"><path d="M 4.4 54.7 L 100.7 54.7 L 100.7 6.7 L 4.4 6.7 Z M 4.4 54.7 "></path></clipPath><g clip-path="url(#clip-27)"><image xlink:href="../../37B45055-17AD-4102-A9E8-2800BB567785/assets/70BBA00CB67D0473B20A6F63945FCA18.jpeg" width="464.00" height="464.00" transform="matrix(0.65, 0.00, -0.00, -0.65, 4.4, 54.7)"></image><path d="M 4.4 54.7 L 100.7 54.7 L 100.7 6.7 L 4.4 6.7 Z M 4.4 54.7 " fill="#00D026" fill-opacity="0.50"></path></g></g><g><clipPath id="clip-28"><path d="M 0.1 2.4 L 104.9 2.4 L 104.9 58.9 L 0.1 58.9 Z M 0.1 2.4 "></path></clipPath><g clip-path="url(#clip-28)"><text xml:space="preserve" font-family="Helvetica-Light" font-size="33.0" fill="#FEFFFE" transform="matrix(1.00, 0.00, -0.00, -1.00, 8.0, 18.0)">s</text><text xml:space="preserve" font-family="Helvetica-Light" font-size="33.0" fill="#FEFFFE" transform="matrix(1.00, 0.00, -0.00, -1.00, 24.5, 18.0)">i</text><text xml:space="preserve" font-family="Helvetica-Light" font-size="33.0" fill="#FEFFFE" transform="matrix(1.00, 0.00, -0.00, -1.00, 31.8, 18.0)">n</text><text xml:space="preserve" font-family="Helvetica-Light" font-size="33.0" fill="#FEFFFE" transform="matrix(1.00, 0.00, -0.00, -1.00, 50.2, 18.0)">(</text><text xml:space="preserve" font-family="Helvetica-Light" font-size="33.0" fill="#FEFFFE" transform="matrix(1.00, 0.00, -0.00, -1.00, 61.2, 18.0)">)</text></g></g></g></svg>