<?xml version="1.0" encoding="UTF-8" standalone="no"?><svg xmlns="http://www.w3.org/2000/svg" xmlns:xlink="http://www.w3.org/1999/xlink" clip-rule="evenodd" stroke-miterlimit="4.00" viewBox="0 0 1024 768"><desc>SVG generated by Keynote</desc><defs><pattern id="B28B6599-A3D2-484C-AB27-5F127062BBA9" patternUnits="userSpaceOnUse" width="464" height="464" viewBox="0 0 464 464" patternTransform="matrix(0.646552, 0.000000, 0.000000, -0.646552, 69.510600, 547.212600)"><image xlink:href="../../37B45055-17AD-4102-A9E8-2800BB567785/assets/70BBA00CB67D0473B20A6F63945FCA18.jpeg" width="464.00" height="464.00"></image></pattern><pattern id="9280D299-1790-4616-8317-5DC4FF7E3B0A" patternUnits="userSpaceOnUse" width="464" height="464" viewBox="0 0 464 464" patternTransform="matrix(0.646552, 0.000000, 0.000000, -0.646552, 70.962400, 428.007000)"><image xlink:href="../../37B45055-17AD-4102-A9E8-2800BB567785/assets/70BBA00CB67D0473B20A6F63945FCA18.jpeg" width="464.00" height="464.00"></image></pattern><pattern id="2FA4A810-D8CB-437C-AA7E-5FDF16D760AC" patternUnits="userSpaceOnUse" width="464" height="464" viewBox="0 0 464 464" patternTransform="matrix(0.646552, 0.000000, 0.000000, -0.646552, 70.962400, 298.959800)"><image xlink:href="../../37B45055-17AD-4102-A9E8-2800BB567785/assets/70BBA00CB67D0473B20A6F63945FCA18.jpeg" width="464.00" height="464.00"></image></pattern></defs><g transform="matrix(1.00, 0.00, -0.00, -1.00, 0.0, 768.0)"><path d="M 0.0 768.0 L 1024.0 768.0 L 1024.0 0.0 L 0.0 0.0 Z M 0.0 768.0 " fill="#FEFFFF"></path><text xml:space="preserve" font-family="Nunito-Regular" font-size="60.0" fill="#000000" transform="matrix(1.00, 0.00, -0.00, -1.00, 184.0, 658.0)">f</text><text xml:space="preserve" font-family="Nunito-Regular" font-size="60.0" fill="#000000" transform="matrix(1.00, 0.00, -0.00, -1.00, 205.2, 658.0)">u</text><text xml:space="preserve" font-family="Nunito-Regular" font-size="60.0" fill="#000000" transform="matrix(1.00, 0.00, -0.00, -1.00, 240.2, 658.0)">n</text><text xml:space="preserve" font-family="Nunito-Regular" font-size="60.0" fill="#000000" transform="matrix(1.00, 0.00, -0.00, -1.00, 275.3, 658.0)">c</text><text xml:space="preserve" font-family="Nunito-Regular" font-size="60.0" fill="#000000" transform="matrix(1.00, 0.00, -0.00, -1.00, 304.5, 658.0)">t</text><text xml:space="preserve" font-family="Nunito-Regular" font-size="60.0" fill="#000000" transform="matrix(1.00, 0.00, -0.00, -1.00, 326.3, 658.0)">i</text><text xml:space="preserve" font-family="Nunito-Regular" font-size="60.0" fill="#000000" transform="matrix(1.00, 0.00, -0.00, -1.00, 341.2, 658.0)">o</text><text xml:space="preserve" font-family="Nunito-Regular" font-size="60.0" fill="#000000" transform="matrix(1.00, 0.00, -0.00, -1.00, 376.6, 658.0)">n</text><text xml:space="preserve" font-family="Nunito-Regular" font-size="60.0" fill="#000000" transform="matrix(1.00, 0.00, -0.00, -1.00, 411.6, 658.0)">a</text><text xml:space="preserve" font-family="Nunito-Regular" font-size="60.0" fill="#000000" transform="matrix(1.00, 0.00, -0.00, -1.00, 443.3, 658.0)">l</text><text xml:space="preserve" font-family="Nunito-Light" font-size="60.0" fill="#000000" transform="matrix(1.00, 0.00, -0.00, -1.00, 458.2, 658.0)"> </text><text xml:space="preserve" font-family="Nunito-Light" font-size="60.0" fill="#000000" transform="matrix(1.00, 0.00, -0.00, -1.00, 475.3, 658.0)">p</text><text xml:space="preserve" font-family="Nunito-Light" font-size="60.0" fill="#000000" transform="matrix(1.00, 0.00, -0.00, -1.00, 509.4, 658.0)">r</text><text xml:space="preserve" font-family="Nunito-Light" font-size="60.0" fill="#000000" transform="matrix(1.00, 0.00, -0.00, -1.00, 530.0, 658.0)">o</text><text xml:space="preserve" font-family="Nunito-Light" font-size="60.0" fill="#000000" transform="matrix(1.00, 0.00, -0.00, -1.00, 564.1, 658.0)">g</text><text xml:space="preserve" font-family="Nunito-Light" font-size="60.0" fill="#000000" transform="matrix(1.00, 0.00, -0.00, -1.00, 598.1, 658.0)">r</text><text xml:space="preserve" font-family="Nunito-Light" font-size="60.0" fill="#000000" transform="matrix(1.00, 0.00, -0.00, -1.00, 618.9, 658.0)">a</text><text xml:space="preserve" font-family="Nunito-Light" font-size="60.0" fill="#000000" transform="matrix(1.00, 0.00, -0.00, -1.00, 649.5, 658.0)">m</text><text xml:space="preserve" font-family="Nunito-Light" font-size="60.0" fill="#000000" transform="matrix(1.00, 0.00, -0.00, -1.00, 703.4, 658.0)">m</text><text xml:space="preserve" font-family="Nunito-Light" font-size="60.0" fill="#000000" transform="matrix(1.00, 0.00, -0.00, -1.00, 757.3, 658.0)">i</text><text xml:space="preserve" font-family="Nunito-Light" font-size="60.0" fill="#000000" transform="matrix(1.00, 0.00, -0.00, -1.00, 771.2, 658.0)">n</text><text xml:space="preserve" font-family="Nunito-Light" font-size="60.0" fill="#000000" transform="matrix(1.00, 0.00, -0.00, -1.00, 805.2, 658.0)">g</text><image xlink:href="../../37B45055-17AD-4102-A9E8-2800BB567785/assets/D3393B5DE1DA7DACE04627DBE9AD2154.png" width="469.00" height="94.00" transform="matrix(1.00, 0.00, -0.00, -1.00, 66.5, 548.2)" opacity="0.50"></image><g><clipPath id="clip-32"><path d="M 69.5 547.2 L 532.5 547.2 L 532.5 459.2 L 69.5 459.2 Z M 69.5 547.2 "></path></clipPath><g clip-path="url(#clip-32)"><path d="M 69.5 459.2 L 532.5 459.2 L 532.5 547.2 L 69.5 547.2 Z M 69.5 459.2 " fill="url(#B28B6599-A3D2-484C-AB27-5F127062BBA9)"></path><path d="M 69.5 547.2 L 532.5 547.2 L 532.5 459.2 L 69.5 459.2 Z M 69.5 547.2 " fill="#009BFC" fill-opacity="0.50"></path></g></g><g><clipPath id="clip-33"><path d="M 65.3 455.0 L 536.7 455.0 L 536.7 551.5 L 65.3 551.5 Z M 65.3 455.0 "></path></clipPath><g clip-path="url(#clip-33)"><text xml:space="preserve" font-family="Helvetica-Light" font-size="33.0" fill="#FEFFFE" transform="matrix(1.00, 0.00, -0.00, -1.00, 74.0, 511.0)">i</text><text xml:space="preserve" font-family="Helvetica-Light" font-size="33.0" fill="#FEFFFE" transform="matrix(1.00, 0.00, -0.00, -1.00, 81.3, 511.0)">s</text><text xml:space="preserve" font-family="Helvetica-Light" font-size="33.0" fill="#FEFFFE" transform="matrix(1.00, 0.00, -0.00, -1.00, 97.8, 511.0)">P</text><text xml:space="preserve" font-family="Helvetica-Light" font-size="33.0" fill="#FEFFFE" transform="matrix(1.00, 0.00, -0.00, -1.00, 118.0, 511.0)">o</text><text xml:space="preserve" font-family="Helvetica-Light" font-size="33.0" fill="#FEFFFE" transform="matrix(1.00, 0.00, -0.00, -1.00, 136.3, 511.0)">s</text><text xml:space="preserve" font-family="Helvetica-Light" font-size="33.0" fill="#FEFFFE" transform="matrix(1.00, 0.00, -0.00, -1.00, 152.8, 511.0)">i</text><text xml:space="preserve" font-family="Helvetica-Light" font-size="33.0" fill="#FEFFFE" transform="matrix(1.00, 0.00, -0.00, -1.00, 160.2, 511.0)">t</text><text xml:space="preserve" font-family="Helvetica-Light" font-size="33.0" fill="#FEFFFE" transform="matrix(1.00, 0.00, -0.00, -1.00, 169.3, 511.0)">i</text><text xml:space="preserve" font-family="Helvetica-Light" font-size="33.0" fill="#FEFFFE" transform="matrix(1.00, 0.00, -0.00, -1.00, 176.7, 511.0)">v</text><text xml:space="preserve" font-family="Helvetica-Light" font-size="33.0" fill="#FEFFFE" transform="matrix(1.00, 0.00, -0.00, -1.00, 193.2, 511.0)">e</text><text xml:space="preserve" font-family="Helvetica-Light" font-size="33.0" fill="#FEFFFE" transform="matrix(1.00, 0.00, -0.00, -1.00, 211.5, 511.0)"> </text><text xml:space="preserve" font-family="Helvetica-Light" font-size="33.0" fill="#FEFFFE" transform="matrix(1.00, 0.00, -0.00, -1.00, 220.7, 511.0)">n</text><text xml:space="preserve" font-family="Helvetica-Light" font-size="33.0" fill="#FEFFFE" transform="matrix(1.00, 0.00, -0.00, -1.00, 239.0, 511.0)"> </text><text xml:space="preserve" font-family="Helvetica-Light" font-size="33.0" fill="#FEFFFE" transform="matrix(1.00, 0.00, -0.00, -1.00, 248.2, 511.0)">=</text><text xml:space="preserve" font-family="Helvetica-Light" font-size="33.0" fill="#FEFFFE" transform="matrix(1.00, 0.00, -0.00, -1.00, 270.0, 511.0)"> </text><text xml:space="preserve" font-family="Helvetica-Light" font-size="33.0" fill="#FEFFFE" transform="matrix(1.00, 0.00, -0.00, -1.00, 74.0, 471.0)"> </text><text xml:space="preserve" font-family="Helvetica-Light" font-size="33.0" fill="#FEFFFE" transform="matrix(1.00, 0.00, -0.00, -1.00, 83.2, 471.0)"> </text><text xml:space="preserve" font-family="Helvetica-Light" font-size="33.0" fill="#FEFFFE" transform="matrix(1.00, 0.00, -0.00, -1.00, 92.3, 471.0)">i</text><text xml:space="preserve" font-family="Helvetica-Light" font-size="33.0" fill="#FEFFFE" transform="matrix(1.00, 0.00, -0.00, -1.00, 99.7, 471.0)">f</text><text xml:space="preserve" font-family="Helvetica-Light" font-size="33.0" fill="#FEFFFE" transform="matrix(1.00, 0.00, -0.00, -1.00, 108.8, 471.0)"> </text><text xml:space="preserve" font-family="Helvetica-Light" font-size="33.0" fill="#FEFFFE" transform="matrix(1.00, 0.00, -0.00, -1.00, 118.0, 471.0)">n</text><text xml:space="preserve" font-family="Helvetica-Light" font-size="33.0" fill="#FEFFFE" transform="matrix(1.00, 0.00, -0.00, -1.00, 136.4, 471.0)"> </text><text xml:space="preserve" font-family="Helvetica-Light" font-size="33.0" fill="#FEFFFE" transform="matrix(1.00, 0.00, -0.00, -1.00, 145.5, 471.0)">&gt;</text><text xml:space="preserve" font-family="Helvetica-Light" font-size="33.0" fill="#FEFFFE" transform="matrix(1.00, 0.00, -0.00, -1.00, 167.3, 471.0)"> </text><text xml:space="preserve" font-family="Helvetica-Light" font-size="33.0" fill="#FEFFFE" transform="matrix(1.00, 0.00, -0.00, -1.00, 176.5, 471.0)">0</text><text xml:space="preserve" font-family="Helvetica-Light" font-size="33.0" fill="#FEFFFE" transform="matrix(1.00, 0.00, -0.00, -1.00, 194.8, 471.0)"> </text><text xml:space="preserve" font-family="Helvetica-Light" font-size="33.0" fill="#FEFFFE" transform="matrix(1.00, 0.00, -0.00, -1.00, 204.0, 471.0)">t</text><text xml:space="preserve" font-family="Helvetica-Light" font-size="33.0" fill="#FEFFFE" transform="matrix(1.00, 0.00, -0.00, -1.00, 213.2, 471.0)">h</text><text xml:space="preserve" font-family="Helvetica-Light" font-size="33.0" fill="#FEFFFE" transform="matrix(1.00, 0.00, -0.00, -1.00, 231.5, 471.0)">e</text><text xml:space="preserve" font-family="Helvetica-Light" font-size="33.0" fill="#FEFFFE" transform="matrix(1.00, 0.00, -0.00, -1.00, 249.9, 471.0)">n</text><text xml:space="preserve" font-family="Helvetica-Light" font-size="33.0" fill="#FEFFFE" transform="matrix(1.00, 0.00, -0.00, -1.00, 268.2, 471.0)"> </text><text xml:space="preserve" font-family="Helvetica-Light" font-size="33.0" fill="#FEFFFE" transform="matrix(1.00, 0.00, -0.00, -1.00, 277.4, 471.0)">“</text><text xml:space="preserve" font-family="Helvetica-Light" font-size="33.0" fill="#FEFFFE" transform="matrix(1.00, 0.00, -0.00, -1.00, 290.2, 471.0)">j</text><text xml:space="preserve" font-family="Helvetica-Light" font-size="33.0" fill="#FEFFFE" transform="matrix(1.00, 0.00, -0.00, -1.00, 297.6, 471.0)">e</text><text xml:space="preserve" font-family="Helvetica-Light" font-size="33.0" fill="#FEFFFE" transform="matrix(1.00, 0.00, -0.00, -1.00, 315.9, 471.0)">p</text><text xml:space="preserve" font-family="Helvetica-Light" font-size="33.0" fill="#FEFFFE" transform="matrix(1.00, 0.00, -0.00, -1.00, 336.1, 471.0)">”</text><text xml:space="preserve" font-family="Helvetica-Light" font-size="33.0" fill="#FEFFFE" transform="matrix(1.00, 0.00, -0.00, -1.00, 348.9, 471.0)"> </text><text xml:space="preserve" font-family="Helvetica-Light" font-size="33.0" fill="#FEFFFE" transform="matrix(1.00, 0.00, -0.00, -1.00, 358.1, 471.0)">e</text><text xml:space="preserve" font-family="Helvetica-Light" font-size="33.0" fill="#FEFFFE" transform="matrix(1.00, 0.00, -0.00, -1.00, 376.4, 471.0)">l</text><text xml:space="preserve" font-family="Helvetica-Light" font-size="33.0" fill="#FEFFFE" transform="matrix(1.00, 0.00, -0.00, -1.00, 383.8, 471.0)">s</text><text xml:space="preserve" font-family="Helvetica-Light" font-size="33.0" fill="#FEFFFE" transform="matrix(1.00, 0.00, -0.00, -1.00, 400.3, 471.0)">e</text><text xml:space="preserve" font-family="Helvetica-Light" font-size="33.0" fill="#FEFFFE" transform="matrix(1.00, 0.00, -0.00, -1.00, 418.6, 471.0)"> </text><text xml:space="preserve" font-family="Helvetica-Light" font-size="33.0" fill="#FEFFFE" transform="matrix(1.00, 0.00, -0.00, -1.00, 427.8, 471.0)">“</text><text xml:space="preserve" font-family="Helvetica-Light" font-size="33.0" fill="#FEFFFE" transform="matrix(1.00, 0.00, -0.00, -1.00, 440.6, 471.0)">n</text><text xml:space="preserve" font-family="Helvetica-Light" font-size="33.0" fill="#FEFFFE" transform="matrix(1.00, 0.00, -0.00, -1.00, 459.0, 471.0)">o</text><text xml:space="preserve" font-family="Helvetica-Light" font-size="33.0" fill="#FEFFFE" transform="matrix(1.00, 0.00, -0.00, -1.00, 477.3, 471.0)">p</text><text xml:space="preserve" font-family="Helvetica-Light" font-size="33.0" fill="#FEFFFE" transform="matrix(1.00, 0.00, -0.00, -1.00, 497.5, 471.0)">”</text></g></g><image xlink:href="../../37B45055-17AD-4102-A9E8-2800BB567785/assets/D513D730A1B32A209B0701B79FFABC51.png" width="324.00" height="54.00" transform="matrix(1.00, 0.00, -0.00, -1.00, 68.0, 429.0)" opacity="0.50"></image><g><clipPath id="clip-34"><path d="M 71.0 428.0 L 388.7 428.0 L 388.7 380.0 L 71.0 380.0 Z M 71.0 428.0 "></path></clipPath><g clip-path="url(#clip-34)"><path d="M 71.0 380.0 L 388.7 380.0 L 388.7 428.0 L 71.0 428.0 Z M 71.0 380.0 " fill="url(#9280D299-1790-4616-8317-5DC4FF7E3B0A)"></path><path d="M 71.0 428.0 L 388.7 428.0 L 388.7 380.0 L 71.0 380.0 Z M 71.0 428.0 " fill="#009BFC" fill-opacity="0.50"></path></g></g><g><clipPath id="clip-35"><path d="M 66.7 375.8 L 393.0 375.8 L 393.0 432.3 L 66.7 432.3 Z M 66.7 375.8 "></path></clipPath><g clip-path="url(#clip-35)"><text xml:space="preserve" font-family="Helvetica-Light" font-size="33.0" fill="#FEFFFE" transform="matrix(1.00, 0.00, -0.00, -1.00, 75.0, 392.0)">i</text><text xml:space="preserve" font-family="Helvetica-Light" font-size="33.0" fill="#FEFFFE" transform="matrix(1.00, 0.00, -0.00, -1.00, 82.3, 392.0)">s</text><text xml:space="preserve" font-family="Helvetica-Light" font-size="33.0" fill="#FEFFFE" transform="matrix(1.00, 0.00, -0.00, -1.00, 98.8, 392.0)">P</text><text xml:space="preserve" font-family="Helvetica-Light" font-size="33.0" fill="#FEFFFE" transform="matrix(1.00, 0.00, -0.00, -1.00, 119.0, 392.0)">o</text><text xml:space="preserve" font-family="Helvetica-Light" font-size="33.0" fill="#FEFFFE" transform="matrix(1.00, 0.00, -0.00, -1.00, 137.3, 392.0)">s</text><text xml:space="preserve" font-family="Helvetica-Light" font-size="33.0" fill="#FEFFFE" transform="matrix(1.00, 0.00, -0.00, -1.00, 153.8, 392.0)">i</text><text xml:space="preserve" font-family="Helvetica-Light" font-size="33.0" fill="#FEFFFE" transform="matrix(1.00, 0.00, -0.00, -1.00, 161.2, 392.0)">t</text><text xml:space="preserve" font-family="Helvetica-Light" font-size="33.0" fill="#FEFFFE" transform="matrix(1.00, 0.00, -0.00, -1.00, 170.3, 392.0)">i</text><text xml:space="preserve" font-family="Helvetica-Light" font-size="33.0" fill="#FEFFFE" transform="matrix(1.00, 0.00, -0.00, -1.00, 177.7, 392.0)">v</text><text xml:space="preserve" font-family="Helvetica-Light" font-size="33.0" fill="#FEFFFE" transform="matrix(1.00, 0.00, -0.00, -1.00, 194.2, 392.0)">e</text><text xml:space="preserve" font-family="Helvetica-Light" font-size="33.0" fill="#FEFFFE" transform="matrix(1.00, 0.00, -0.00, -1.00, 212.5, 392.0)"> </text><text xml:space="preserve" font-family="Helvetica-Light" font-size="33.0" fill="#FEFFFE" transform="matrix(1.00, 0.00, -0.00, -1.00, 221.7, 392.0)">7</text></g></g><image xlink:href="../../37B45055-17AD-4102-A9E8-2800BB567785/assets/8B26CA2DF29E81B749308DED366BD168.png" width="324.00" height="54.00" transform="matrix(1.00, 0.00, -0.00, -1.00, 68.0, 377.4)" opacity="0.50"></image><path d="M 71.0 376.4 L 388.7 376.4 L 388.7 328.4 L 71.0 328.4 Z M 71.0 376.4 " fill="#51A7F9"></path><g><clipPath id="clip-36"><path d="M 66.7 324.1 L 393.0 324.1 L 393.0 380.6 L 66.7 380.6 Z M 66.7 324.1 "></path></clipPath><g clip-path="url(#clip-36)"><text xml:space="preserve" font-family="Helvetica-Light" font-size="33.0" fill="#FEFFFE" transform="matrix(1.00, 0.00, -0.00, -1.00, 75.0, 340.0)">j</text><text xml:space="preserve" font-family="Helvetica-Light" font-size="33.0" fill="#FEFFFE" transform="matrix(1.00, 0.00, -0.00, -1.00, 82.3, 340.0)">e</text><text xml:space="preserve" font-family="Helvetica-Light" font-size="33.0" fill="#FEFFFE" transform="matrix(1.00, 0.00, -0.00, -1.00, 100.7, 340.0)">p</text></g></g><image xlink:href="../../37B45055-17AD-4102-A9E8-2800BB567785/assets/D513D730A1B32A209B0701B79FFABC51.png" width="324.00" height="54.00" transform="matrix(1.00, 0.00, -0.00, -1.00, 68.0, 300.0)" opacity="0.50"></image><g><clipPath id="clip-37"><path d="M 71.0 299.0 L 388.7 299.0 L 388.7 251.0 L 71.0 251.0 Z M 71.0 299.0 "></path></clipPath><g clip-path="url(#clip-37)"><path d="M 71.0 251.0 L 388.7 251.0 L 388.7 299.0 L 71.0 299.0 Z M 71.0 251.0 " fill="url(#2FA4A810-D8CB-437C-AA7E-5FDF16D760AC)"></path><path d="M 71.0 299.0 L 388.7 299.0 L 388.7 251.0 L 71.0 251.0 Z M 71.0 299.0 " fill="#009BFC" fill-opacity="0.50"></path></g></g><g><clipPath id="clip-38"><path d="M 66.7 246.7 L 393.0 246.7 L 393.0 303.2 L 66.7 303.2 Z M 66.7 246.7 "></path></clipPath><g clip-path="url(#clip-38)"><text xml:space="preserve" font-family="Helvetica-Light" font-size="33.0" fill="#FEFFFE" transform="matrix(1.00, 0.00, -0.00, -1.00, 75.0, 263.0)">i</text><text xml:space="preserve" font-family="Helvetica-Light" font-size="33.0" fill="#FEFFFE" transform="matrix(1.00, 0.00, -0.00, -1.00, 82.3, 263.0)">s</text><text xml:space="preserve" font-family="Helvetica-Light" font-size="33.0" fill="#FEFFFE" transform="matrix(1.00, 0.00, -0.00, -1.00, 98.8, 263.0)">P</text><text xml:space="preserve" font-family="Helvetica-Light" font-size="33.0" fill="#FEFFFE" transform="matrix(1.00, 0.00, -0.00, -1.00, 119.0, 263.0)">o</text><text xml:space="preserve" font-family="Helvetica-Light" font-size="33.0" fill="#FEFFFE" transform="matrix(1.00, 0.00, -0.00, -1.00, 137.3, 263.0)">s</text><text xml:space="preserve" font-family="Helvetica-Light" font-size="33.0" fill="#FEFFFE" transform="matrix(1.00, 0.00, -0.00, -1.00, 153.8, 263.0)">i</text><text xml:space="preserve" font-family="Helvetica-Light" font-size="33.0" fill="#FEFFFE" transform="matrix(1.00, 0.00, -0.00, -1.00, 161.2, 263.0)">t</text><text xml:space="preserve" font-family="Helvetica-Light" font-size="33.0" fill="#FEFFFE" transform="matrix(1.00, 0.00, -0.00, -1.00, 170.3, 263.0)">i</text><text xml:space="preserve" font-family="Helvetica-Light" font-size="33.0" fill="#FEFFFE" transform="matrix(1.00, 0.00, -0.00, -1.00, 177.7, 263.0)">v</text><text xml:space="preserve" font-family="Helvetica-Light" font-size="33.0" fill="#FEFFFE" transform="matrix(1.00, 0.00, -0.00, -1.00, 194.2, 263.0)">e</text><text xml:space="preserve" font-family="Helvetica-Light" font-size="33.0" fill="#FEFFFE" transform="matrix(1.00, 0.00, -0.00, -1.00, 212.5, 263.0)"> </text><text xml:space="preserve" font-family="Helvetica-Light" font-size="33.0" fill="#FEFFFE" transform="matrix(1.00, 0.00, -0.00, -1.00, 221.7, 263.0)">-</text><text xml:space="preserve" font-family="Helvetica-Light" font-size="33.0" fill="#FEFFFE" transform="matrix(1.00, 0.00, -0.00, -1.00, 232.7, 263.0)">7</text></g></g><image xlink:href="../../37B45055-17AD-4102-A9E8-2800BB567785/assets/8B26CA2DF29E81B749308DED366BD168.png" width="324.00" height="54.00" transform="matrix(1.00, 0.00, -0.00, -1.00, 68.0, 246.6)" opacity="0.50"></image><path d="M 71.0 245.6 L 388.7 245.6 L 388.7 197.6 L 71.0 197.6 Z M 71.0 245.6 " fill="#51A7F9"></path><g><clipPath id="clip-39"><path d="M 66.7 193.3 L 393.0 193.3 L 393.0 249.8 L 66.7 249.8 Z M 66.7 193.3 "></path></clipPath><g clip-path="url(#clip-39)"><text xml:space="preserve" font-family="Helvetica-Light" font-size="33.0" fill="#FEFFFE" transform="matrix(1.00, 0.00, -0.00, -1.00, 75.0, 209.0)">n</text><text xml:space="preserve" font-family="Helvetica-Light" font-size="33.0" fill="#FEFFFE" transform="matrix(1.00, 0.00, -0.00, -1.00, 93.3, 209.0)">o</text><text xml:space="preserve" font-family="Helvetica-Light" font-size="33.0" fill="#FEFFFE" transform="matrix(1.00, 0.00, -0.00, -1.00, 111.7, 209.0)">p</text></g></g><image xlink:href="../../37B45055-17AD-4102-A9E8-2800BB567785/assets/E2C35D91EE7F733BAAF83E3EE1912F7D.png" width="102.00" height="54.00" transform="matrix(1.00, 0.00, -0.00, -1.00, 678.4, 529.7)" opacity="0.50"></image><g><clipPath id="clip-40"><path d="M 681.4 528.7 L 777.7 528.7 L 777.7 480.7 L 681.4 480.7 Z M 681.4 528.7 "></path></clipPath><g clip-path="url(#clip-40)"><image xlink:href="../../37B45055-17AD-4102-A9E8-2800BB567785/assets/70BBA00CB67D0473B20A6F63945FCA18.jpeg" width="464.00" height="464.00" transform="matrix(0.65, 0.00, -0.00, -0.65, 681.4, 528.7)"></image><path d="M 681.4 528.7 L 777.7 528.7 L 777.7 480.7 L 681.4 480.7 Z M 681.4 528.7 " fill="#00D026" fill-opacity="0.50"></path></g></g><g><clipPath id="clip-41"><path d="M 677.1 476.4 L 781.9 476.4 L 781.9 532.9 L 677.1 532.9 Z M 677.1 476.4 "></path></clipPath><g clip-path="url(#clip-41)"><text xml:space="preserve" font-family="Helvetica-Light" font-size="33.0" fill="#FEFFFE" transform="matrix(1.00, 0.00, -0.00, -1.00, 685.0, 492.0)">s</text><text xml:space="preserve" font-family="Helvetica-Light" font-size="33.0" fill="#FEFFFE" transform="matrix(1.00, 0.00, -0.00, -1.00, 701.5, 492.0)">i</text><text xml:space="preserve" font-family="Helvetica-Light" font-size="33.0" fill="#FEFFFE" transform="matrix(1.00, 0.00, -0.00, -1.00, 708.8, 492.0)">n</text><text xml:space="preserve" font-family="Helvetica-Light" font-size="33.0" fill="#FEFFFE" transform="matrix(1.00, 0.00, -0.00, -1.00, 727.2, 492.0)">(</text><text xml:space="preserve" font-family="Helvetica-Light" font-size="33.0" fill="#FEFFFE" transform="matrix(1.00, 0.00, -0.00, -1.00, 738.2, 492.0)">)</text></g></g><image xlink:href="../../37B45055-17AD-4102-A9E8-2800BB567785/assets/0A5345F9F79534A889B9F8F9BCA1A9AF.png" width="130.00" height="54.00" transform="matrix(1.00, 0.00, -0.00, -1.00, 679.9, 430.5)" opacity="0.50"></image><g><clipPath id="clip-42"><path d="M 682.9 429.5 L 806.8 429.5 L 806.8 381.5 L 682.9 381.5 Z M 682.9 429.5 "></path></clipPath><g clip-path="url(#clip-42)"><image xlink:href="../../37B45055-17AD-4102-A9E8-2800BB567785/assets/70BBA00CB67D0473B20A6F63945FCA18.jpeg" width="464.00" height="464.00" transform="matrix(0.65, 0.00, -0.00, -0.65, 682.9, 429.5)"></image><path d="M 682.9 429.5 L 806.8 429.5 L 806.8 381.5 L 682.9 381.5 Z M 682.9 429.5 " fill="#00D026" fill-opacity="0.50"></path></g></g><g><clipPath id="clip-43"><path d="M 678.6 377.2 L 811.0 377.2 L 811.0 433.7 L 678.6 433.7 Z M 678.6 377.2 "></path></clipPath><g clip-path="url(#clip-43)"><text xml:space="preserve" font-family="Helvetica-Light" font-size="33.0" fill="#FEFFFE" transform="matrix(1.00, 0.00, -0.00, -1.00, 687.0, 393.0)">s</text><text xml:space="preserve" font-family="Helvetica-Light" font-size="33.0" fill="#FEFFFE" transform="matrix(1.00, 0.00, -0.00, -1.00, 703.5, 393.0)">i</text><text xml:space="preserve" font-family="Helvetica-Light" font-size="33.0" fill="#FEFFFE" transform="matrix(1.00, 0.00, -0.00, -1.00, 710.8, 393.0)">n</text><text xml:space="preserve" font-family="Helvetica-Light" font-size="33.0" fill="#FEFFFE" transform="matrix(1.00, 0.00, -0.00, -1.00, 729.2, 393.0)">(</text><text xml:space="preserve" font-family="Helvetica-Light" font-size="33.0" fill="#FEFFFE" transform="matrix(1.00, 0.00, -0.00, -1.00, 740.2, 393.0)">π</text><text xml:space="preserve" font-family="Helvetica-Light" font-size="33.0" fill="#FEFFFE" transform="matrix(1.00, 0.00, -0.00, -1.00, 758.7, 393.0)">/</text><text xml:space="preserve" font-family="Helvetica-Light" font-size="33.0" fill="#FEFFFE" transform="matrix(1.00, 0.00, -0.00, -1.00, 767.9, 393.0)">2</text><text xml:space="preserve" font-family="Helvetica-Light" font-size="33.0" fill="#FEFFFE" transform="matrix(1.00, 0.00, -0.00, -1.00, 786.2, 393.0)">)</text></g></g><image xlink:href="../../37B45055-17AD-4102-A9E8-2800BB567785/assets/0A5345F9F79534A889B9F8F9BCA1A9AF.png" width="130.00" height="54.00" transform="matrix(1.00, 0.00, -0.00, -1.00, 679.9, 378.8)" opacity="0.50"></image><path d="M 682.9 377.8 L 806.8 377.8 L 806.8 329.8 L 682.9 329.8 Z M 682.9 377.8 " fill="#6FBF40"></path><g><clipPath id="clip-44"><path d="M 678.6 325.6 L 811.0 325.6 L 811.0 382.1 L 678.6 382.1 Z M 678.6 325.6 "></path></clipPath><g clip-path="url(#clip-44)"><text xml:space="preserve" font-family="Helvetica-Light" font-size="33.0" fill="#FEFFFE" transform="matrix(1.00, 0.00, -0.00, -1.00, 687.0, 341.0)">1</text></g></g></g></svg>