<?xml version="1.0" encoding="UTF-8" standalone="no"?><svg xmlns="http://www.w3.org/2000/svg" xmlns:xlink="http://www.w3.org/1999/xlink" clip-rule="evenodd" stroke-miterlimit="4.00" viewBox="0 0 133 61"><desc>SVG generated by Keynote</desc><defs></defs><g transform="matrix(1.00, 0.00, -0.00, -1.00, 0.0, 61.0)"><image xlink:href="0A5345F9F79534A889B9F8F9BCA1A9AF.png" width="130.00" height="54.00" transform="matrix(1.00, 0.00, -0.00, -1.00, 1.9, 55.5)" opacity="0.50"></image><g><clipPath id="clip-29"><path d="M 4.9 54.5 L 128.8 54.5 L 128.8 6.5 L 4.9 6.5 Z M 4.9 54.5 "></path></clipPath><g clip-path="url(#clip-29)"><image xlink:href="../../37B45055-17AD-4102-A9E8-2800BB567785/assets/70BBA00CB67D0473B20A6F63945FCA18.jpeg" width="464.00" height="464.00" transform="matrix(0.65, 0.00, -0.00, -0.65, 4.9, 54.5)"></image><path d="M 4.9 54.5 L 128.8 54.5 L 128.8 6.5 L 4.9 6.5 Z M 4.9 54.5 " fill="#00D026" fill-opacity="0.50"></path></g></g><g><clipPath id="clip-30"><path d="M 0.6 2.2 L 133.0 2.2 L 133.0 58.7 L 0.6 58.7 Z M 0.6 2.2 "></path></clipPath><g clip-path="url(#clip-30)"><text xml:space="preserve" font-family="Helvetica-Light" font-size="33.0" fill="#FEFFFE" transform="matrix(1.00, 0.00, -0.00, -1.00, 9.0, 18.0)">s</text><text xml:space="preserve" font-family="Helvetica-Light" font-size="33.0" fill="#FEFFFE" transform="matrix(1.00, 0.00, -0.00, -1.00, 25.5, 18.0)">i</text><text xml:space="preserve" font-family="Helvetica-Light" font-size="33.0" fill="#FEFFFE" transform="matrix(1.00, 0.00, -0.00, -1.00, 32.8, 18.0)">n</text><text xml:space="preserve" font-family="Helvetica-Light" font-size="33.0" fill="#FEFFFE" transform="matrix(1.00, 0.00, -0.00, -1.00, 51.2, 18.0)">(</text><text xml:space="preserve" font-family="Helvetica-Light" font-size="33.0" fill="#FEFFFE" transform="matrix(1.00, 0.00, -0.00, -1.00, 62.2, 18.0)">π</text><text xml:space="preserve" font-family="Helvetica-Light" font-size="33.0" fill="#FEFFFE" transform="matrix(1.00, 0.00, -0.00, -1.00, 80.7, 18.0)">/</text><text xml:space="preserve" font-family="Helvetica-Light" font-size="33.0" fill="#FEFFFE" transform="matrix(1.00, 0.00, -0.00, -1.00, 89.9, 18.0)">2</text><text xml:space="preserve" font-family="Helvetica-Light" font-size="33.0" fill="#FEFFFE" transform="matrix(1.00, 0.00, -0.00, -1.00, 108.2, 18.0)">)</text></g></g></g></svg>