<?xml version="1.0" encoding="UTF-8" standalone="no"?><svg xmlns="http://www.w3.org/2000/svg" xmlns:xlink="http://www.w3.org/1999/xlink" clip-rule="evenodd" stroke-miterlimit="4.00" viewBox="0 0 1024 768"><desc>SVG generated by Keynote</desc><defs></defs><g transform="matrix(1.00, 0.00, -0.00, -1.00, 0.0, 768.0)"><path d="M 0.0 768.0 L 1024.0 768.0 L 1024.0 0.0 L 0.0 0.0 Z M 0.0 768.0 " fill="#FEFFFF"></path><text xml:space="preserve" font-family="Nunito-Regular" font-size="537.8" fill="#000000" transform="matrix(1.00, 0.00, -0.00, -1.00, 33.0, 238.0)">E</text><text xml:space="preserve" font-family="Nunito-Regular" font-size="537.8" fill="#000000" transform="matrix(1.00, 0.00, -0.00, -1.00, 364.5, 238.0)">l</text><text xml:space="preserve" font-family="Nunito-Regular" font-size="537.8" fill="#000000" transform="matrix(1.00, 0.00, -0.00, -1.00, 498.6, 238.0)">m</text><text xml:space="preserve" font-family="Nunito-Light" font-size="32.0" fill="#000000" transform="matrix(1.00, 0.00, -0.00, -1.00, 92.0, 109.0)">I</text><text xml:space="preserve" font-family="Nunito-Light" font-size="32.0" fill="#000000" transform="matrix(1.00, 0.00, -0.00, -1.00, 101.3, 109.0)">n</text><text xml:space="preserve" font-family="Nunito-Light" font-size="32.0" fill="#000000" transform="matrix(1.00, 0.00, -0.00, -1.00, 119.4, 109.0)">i</text><text xml:space="preserve" font-family="Nunito-Light" font-size="32.0" fill="#000000" transform="matrix(1.00, 0.00, -0.00, -1.00, 126.8, 109.0)">t</text><text xml:space="preserve" font-family="Nunito-Light" font-size="32.0" fill="#000000" transform="matrix(1.00, 0.00, -0.00, -1.00, 137.8, 109.0)">i</text><text xml:space="preserve" font-family="Nunito-Light" font-size="32.0" fill="#000000" transform="matrix(1.00, 0.00, -0.00, -1.00, 145.2, 109.0)">a</text><text xml:space="preserve" font-family="Nunito-Light" font-size="32.0" fill="#000000" transform="matrix(1.00, 0.00, -0.00, -1.00, 161.5, 109.0)">l</text><text xml:space="preserve" font-family="Nunito-Light" font-size="32.0" fill="#000000" transform="matrix(1.00, 0.00, -0.00, -1.00, 168.9, 109.0)"> </text><text xml:space="preserve" font-family="Nunito-Light" font-size="32.0" fill="#000000" transform="matrix(1.00, 0.00, -0.00, -1.00, 178.1, 109.0)">E</text><text xml:space="preserve" font-family="Nunito-Light" font-size="32.0" fill="#000000" transform="matrix(1.00, 0.00, -0.00, -1.00, 197.7, 109.0)">l</text><text xml:space="preserve" font-family="Nunito-Light" font-size="32.0" fill="#000000" transform="matrix(1.00, 0.00, -0.00, -1.00, 205.1, 109.0)">m</text><text xml:space="preserve" font-family="Nunito-Light" font-size="32.0" fill="#000000" transform="matrix(1.00, 0.00, -0.00, -1.00, 233.9, 109.0)"> </text><text xml:space="preserve" font-family="Nunito-Light" font-size="32.0" fill="#000000" transform="matrix(1.00, 0.00, -0.00, -1.00, 243.0, 109.0)">Z</text><text xml:space="preserve" font-family="Nunito-Light" font-size="32.0" fill="#000000" transform="matrix(1.00, 0.00, -0.00, -1.00, 261.2, 109.0)">ü</text><text xml:space="preserve" font-family="Nunito-Light" font-size="32.0" fill="#000000" transform="matrix(1.00, 0.00, -0.00, -1.00, 279.3, 109.0)">r</text><text xml:space="preserve" font-family="Nunito-Light" font-size="32.0" fill="#000000" transform="matrix(1.00, 0.00, -0.00, -1.00, 290.4, 109.0)">i</text><text xml:space="preserve" font-family="Nunito-Light" font-size="32.0" fill="#000000" transform="matrix(1.00, 0.00, -0.00, -1.00, 297.8, 109.0)">c</text><text xml:space="preserve" font-family="Nunito-Light" font-size="32.0" fill="#000000" transform="matrix(1.00, 0.00, -0.00, -1.00, 311.5, 109.0)">h</text><text xml:space="preserve" font-family="Nunito-Light" font-size="32.0" fill="#000000" transform="matrix(1.00, 0.00, -0.00, -1.00, 329.6, 109.0)"> </text><text xml:space="preserve" font-family="Nunito-Light" font-size="32.0" fill="#000000" transform="matrix(1.00, 0.00, -0.00, -1.00, 338.8, 109.0)">-</text><text xml:space="preserve" font-family="Nunito-Light" font-size="32.0" fill="#000000" transform="matrix(1.00, 0.00, -0.00, -1.00, 348.1, 109.0)"> </text><text xml:space="preserve" font-family="Nunito-Light" font-size="32.0" fill="#000000" transform="matrix(1.00, 0.00, -0.00, -1.00, 357.2, 109.0)">1</text><text xml:space="preserve" font-family="Nunito-Light" font-size="32.0" fill="#000000" transform="matrix(1.00, 0.00, -0.00, -1.00, 374.0, 109.0)">9</text><text xml:space="preserve" font-family="Nunito-Light" font-size="32.0" fill="#000000" transform="matrix(1.00, 0.00, -0.00, -1.00, 392.3, 109.0)">t</text><text xml:space="preserve" font-family="Nunito-Light" font-size="32.0" fill="#000000" transform="matrix(1.00, 0.00, -0.00, -1.00, 403.3, 109.0)">h</text><text xml:space="preserve" font-family="Nunito-Light" font-size="32.0" fill="#000000" transform="matrix(1.00, 0.00, -0.00, -1.00, 421.4, 109.0)"> </text><text xml:space="preserve" font-family="Nunito-Light" font-size="32.0" fill="#000000" transform="matrix(1.00, 0.00, -0.00, -1.00, 430.6, 109.0)">M</text><text xml:space="preserve" font-family="Nunito-Light" font-size="32.0" fill="#000000" transform="matrix(1.00, 0.00, -0.00, -1.00, 461.1, 109.0)">a</text><text xml:space="preserve" font-family="Nunito-Light" font-size="32.0" fill="#000000" transform="matrix(1.00, 0.00, -0.00, -1.00, 476.9, 109.0)">y</text><text xml:space="preserve" font-family="Nunito-Light" font-size="32.0" fill="#000000" transform="matrix(1.00, 0.00, -0.00, -1.00, 492.9, 109.0)"> </text><text xml:space="preserve" font-family="Nunito-Light" font-size="32.0" fill="#000000" transform="matrix(1.00, 0.00, -0.00, -1.00, 502.1, 109.0)">2</text><text xml:space="preserve" font-family="Nunito-Light" font-size="32.0" fill="#000000" transform="matrix(1.00, 0.00, -0.00, -1.00, 520.3, 109.0)">0</text><text xml:space="preserve" font-family="Nunito-Light" font-size="32.0" fill="#000000" transform="matrix(1.00, 0.00, -0.00, -1.00, 536.4, 109.0)">1</text><text xml:space="preserve" font-family="Nunito-Light" font-size="32.0" fill="#000000" transform="matrix(1.00, 0.00, -0.00, -1.00, 553.2, 109.0)">6</text></g></svg>