<?xml version="1.0" encoding="UTF-8" standalone="no"?><svg xmlns="http://www.w3.org/2000/svg" xmlns:xlink="http://www.w3.org/1999/xlink" clip-rule="evenodd" stroke-miterlimit="4.00" viewBox="0 0 1024 768"><desc>SVG generated by Keynote</desc><defs></defs><g transform="matrix(1.00, 0.00, -0.00, -1.00, 0.0, 768.0)"><path d="M 0.0 768.0 L 1024.0 768.0 L 1024.0 0.0 L 0.0 0.0 Z M 0.0 768.0 " fill="#FEFFFF"></path><text xml:space="preserve" font-family="Nunito-Regular" font-size="60.0" fill="#000000" transform="matrix(1.00, 0.00, -0.00, -1.00, 96.0, 507.0)">@</text><text xml:space="preserve" font-family="Nunito-Regular" font-size="60.0" fill="#000000" transform="matrix(1.00, 0.00, -0.00, -1.00, 144.0, 507.0)">F</text><text xml:space="preserve" font-family="Nunito-Regular" font-size="60.0" fill="#000000" transform="matrix(1.00, 0.00, -0.00, -1.00, 177.5, 507.0)">a</text><text xml:space="preserve" font-family="Nunito-Regular" font-size="60.0" fill="#000000" transform="matrix(1.00, 0.00, -0.00, -1.00, 209.1, 507.0)">b</text><text xml:space="preserve" font-family="Nunito-Regular" font-size="60.0" fill="#000000" transform="matrix(1.00, 0.00, -0.00, -1.00, 244.4, 507.0)">i</text><text xml:space="preserve" font-family="Nunito-Regular" font-size="60.0" fill="#000000" transform="matrix(1.00, 0.00, -0.00, -1.00, 259.4, 507.0)">o</text><text xml:space="preserve" font-family="Nunito-Regular" font-size="60.0" fill="#000000" transform="matrix(1.00, 0.00, -0.00, -1.00, 294.8, 507.0)">F</text><text xml:space="preserve" font-family="Nunito-Regular" font-size="60.0" fill="#000000" transform="matrix(1.00, 0.00, -0.00, -1.00, 329.2, 507.0)">i</text><text xml:space="preserve" font-family="Nunito-Regular" font-size="60.0" fill="#000000" transform="matrix(1.00, 0.00, -0.00, -1.00, 344.2, 507.0)">l</text><text xml:space="preserve" font-family="Nunito-Regular" font-size="60.0" fill="#000000" transform="matrix(1.00, 0.00, -0.00, -1.00, 359.1, 507.0)">l</text><text xml:space="preserve" font-family="Nunito-Regular" font-size="60.0" fill="#000000" transform="matrix(1.00, 0.00, -0.00, -1.00, 374.1, 507.0)">i</text><text xml:space="preserve" font-family="Nunito-Regular" font-size="60.0" fill="#000000" transform="matrix(1.00, 0.00, -0.00, -1.00, 103.0, 594.0)">f</text><text xml:space="preserve" font-family="Nunito-Regular" font-size="60.0" fill="#000000" transform="matrix(1.00, 0.00, -0.00, -1.00, 123.3, 594.0)">a</text><text xml:space="preserve" font-family="Nunito-Regular" font-size="60.0" fill="#000000" transform="matrix(1.00, 0.00, -0.00, -1.00, 155.0, 594.0)">b</text><text xml:space="preserve" font-family="Nunito-Regular" font-size="60.0" fill="#000000" transform="matrix(1.00, 0.00, -0.00, -1.00, 190.3, 594.0)">i</text><text xml:space="preserve" font-family="Nunito-Regular" font-size="60.0" fill="#000000" transform="matrix(1.00, 0.00, -0.00, -1.00, 205.2, 594.0)">o</text><text xml:space="preserve" font-family="Nunito-Regular" font-size="60.0" fill="#000000" transform="matrix(1.00, 0.00, -0.00, -1.00, 240.1, 594.0)">.</text><text xml:space="preserve" font-family="Nunito-Regular" font-size="60.0" fill="#000000" transform="matrix(1.00, 0.00, -0.00, -1.00, 258.1, 594.0)">f</text><text xml:space="preserve" font-family="Nunito-Regular" font-size="60.0" fill="#000000" transform="matrix(1.00, 0.00, -0.00, -1.00, 279.3, 594.0)">i</text><text xml:space="preserve" font-family="Nunito-Regular" font-size="60.0" fill="#000000" transform="matrix(1.00, 0.00, -0.00, -1.00, 294.2, 594.0)">l</text><text xml:space="preserve" font-family="Nunito-Regular" font-size="60.0" fill="#000000" transform="matrix(1.00, 0.00, -0.00, -1.00, 309.2, 594.0)">l</text><text xml:space="preserve" font-family="Nunito-Regular" font-size="60.0" fill="#000000" transform="matrix(1.00, 0.00, -0.00, -1.00, 324.1, 594.0)">i</text><text xml:space="preserve" font-family="Nunito-Regular" font-size="60.0" fill="#000000" transform="matrix(1.00, 0.00, -0.00, -1.00, 339.0, 594.0)">.</text><text xml:space="preserve" font-family="Nunito-Regular" font-size="60.0" fill="#000000" transform="matrix(1.00, 0.00, -0.00, -1.00, 357.1, 594.0)">i</text><text xml:space="preserve" font-family="Nunito-Regular" font-size="60.0" fill="#000000" transform="matrix(1.00, 0.00, -0.00, -1.00, 372.0, 594.0)">o</text><g><clipPath id="clip-2"><path d="M 101.5 587.0 L 407.0 587.0 L 407.0 592.0 L 101.5 592.0 Z M 101.5 587.0 "></path></clipPath><g clip-path="url(#clip-2)"><path d="M 4.0 67.7 L 308.5 67.7 " fill="none" stroke="#000000" stroke-opacity="0.80" stroke-width="2.99" stroke-miterlimit="0.00" transform="matrix(1.00, 0.00, 0.00, -1.00, 98.5, 657.2)"></path></g></g><text xml:space="preserve" font-family="Nunito-Light" font-size="37.0" fill="#000000" transform="matrix(1.00, 0.00, -0.00, -1.00, 108.0, 138.0)">E</text><text xml:space="preserve" font-family="Nunito-Light" font-size="37.0" fill="#000000" transform="matrix(1.00, 0.00, -0.00, -1.00, 130.7, 138.0)">v</text><text xml:space="preserve" font-family="Nunito-Light" font-size="37.0" fill="#000000" transform="matrix(1.00, 0.00, -0.00, -1.00, 148.6, 138.0)">e</text><text xml:space="preserve" font-family="Nunito-Light" font-size="37.0" fill="#000000" transform="matrix(1.00, 0.00, -0.00, -1.00, 169.0, 138.0)">r</text><text xml:space="preserve" font-family="Nunito-Light" font-size="37.0" fill="#000000" transform="matrix(1.00, 0.00, -0.00, -1.00, 183.2, 138.0)">y</text><text xml:space="preserve" font-family="Nunito-Light" font-size="37.0" fill="#000000" transform="matrix(1.00, 0.00, -0.00, -1.00, 201.1, 138.0)">o</text><text xml:space="preserve" font-family="Nunito-Light" font-size="37.0" fill="#000000" transform="matrix(1.00, 0.00, -0.00, -1.00, 222.1, 138.0)">n</text><text xml:space="preserve" font-family="Nunito-Light" font-size="37.0" fill="#000000" transform="matrix(1.00, 0.00, -0.00, -1.00, 243.0, 138.0)">e</text><text xml:space="preserve" font-family="Nunito-Light" font-size="37.0" fill="#000000" transform="matrix(1.00, 0.00, -0.00, -1.00, 263.5, 138.0)"> </text><text xml:space="preserve" font-family="Nunito-Light" font-size="37.0" fill="#000000" transform="matrix(1.00, 0.00, -0.00, -1.00, 274.0, 138.0)">s</text><text xml:space="preserve" font-family="Nunito-Light" font-size="37.0" fill="#000000" transform="matrix(1.00, 0.00, -0.00, -1.00, 292.5, 138.0)">h</text><text xml:space="preserve" font-family="Nunito-Light" font-size="37.0" fill="#000000" transform="matrix(1.00, 0.00, -0.00, -1.00, 313.5, 138.0)">o</text><text xml:space="preserve" font-family="Nunito-Light" font-size="37.0" fill="#000000" transform="matrix(1.00, 0.00, -0.00, -1.00, 334.5, 138.0)">u</text><text xml:space="preserve" font-family="Nunito-Light" font-size="37.0" fill="#000000" transform="matrix(1.00, 0.00, -0.00, -1.00, 355.4, 138.0)">l</text><text xml:space="preserve" font-family="Nunito-Light" font-size="37.0" fill="#000000" transform="matrix(1.00, 0.00, -0.00, -1.00, 364.0, 138.0)">d</text><text xml:space="preserve" font-family="Nunito-Light" font-size="37.0" fill="#000000" transform="matrix(1.00, 0.00, -0.00, -1.00, 385.0, 138.0)"> </text><text xml:space="preserve" font-family="Nunito-Light" font-size="37.0" fill="#000000" transform="matrix(1.00, 0.00, -0.00, -1.00, 395.6, 138.0)">l</text><text xml:space="preserve" font-family="Nunito-Light" font-size="37.0" fill="#000000" transform="matrix(1.00, 0.00, -0.00, -1.00, 404.1, 138.0)">e</text><text xml:space="preserve" font-family="Nunito-Light" font-size="37.0" fill="#000000" transform="matrix(1.00, 0.00, -0.00, -1.00, 424.6, 138.0)">a</text><text xml:space="preserve" font-family="Nunito-Light" font-size="37.0" fill="#000000" transform="matrix(1.00, 0.00, -0.00, -1.00, 443.4, 138.0)">r</text><text xml:space="preserve" font-family="Nunito-Light" font-size="37.0" fill="#000000" transform="matrix(1.00, 0.00, -0.00, -1.00, 456.3, 138.0)">n</text><text xml:space="preserve" font-family="Nunito-Light" font-size="37.0" fill="#000000" transform="matrix(1.00, 0.00, -0.00, -1.00, 477.3, 138.0)"> </text><text xml:space="preserve" font-family="Nunito-Light" font-size="37.0" fill="#000000" transform="matrix(1.00, 0.00, -0.00, -1.00, 487.8, 138.0)">h</text><text xml:space="preserve" font-family="Nunito-Light" font-size="37.0" fill="#000000" transform="matrix(1.00, 0.00, -0.00, -1.00, 508.8, 138.0)">o</text><text xml:space="preserve" font-family="Nunito-Light" font-size="37.0" fill="#000000" transform="matrix(1.00, 0.00, -0.00, -1.00, 529.1, 138.0)">w</text><text xml:space="preserve" font-family="Nunito-Light" font-size="37.0" fill="#000000" transform="matrix(1.00, 0.00, -0.00, -1.00, 560.1, 138.0)"> </text><text xml:space="preserve" font-family="Nunito-Light" font-size="37.0" fill="#000000" transform="matrix(1.00, 0.00, -0.00, -1.00, 570.7, 138.0)">t</text><text xml:space="preserve" font-family="Nunito-Light" font-size="37.0" fill="#000000" transform="matrix(1.00, 0.00, -0.00, -1.00, 583.4, 138.0)">o</text><text xml:space="preserve" font-family="Nunito-Light" font-size="37.0" fill="#000000" transform="matrix(1.00, 0.00, -0.00, -1.00, 604.4, 138.0)"> </text><text xml:space="preserve" font-family="Nunito-Light" font-size="37.0" fill="#000000" transform="matrix(1.00, 0.00, -0.00, -1.00, 615.0, 138.0)">p</text><text xml:space="preserve" font-family="Nunito-Light" font-size="37.0" fill="#000000" transform="matrix(1.00, 0.00, -0.00, -1.00, 636.0, 138.0)">r</text><text xml:space="preserve" font-family="Nunito-Light" font-size="37.0" fill="#000000" transform="matrix(1.00, 0.00, -0.00, -1.00, 648.7, 138.0)">o</text><text xml:space="preserve" font-family="Nunito-Light" font-size="37.0" fill="#000000" transform="matrix(1.00, 0.00, -0.00, -1.00, 669.8, 138.0)">g</text><text xml:space="preserve" font-family="Nunito-Light" font-size="37.0" fill="#000000" transform="matrix(1.00, 0.00, -0.00, -1.00, 690.8, 138.0)">r</text><text xml:space="preserve" font-family="Nunito-Light" font-size="37.0" fill="#000000" transform="matrix(1.00, 0.00, -0.00, -1.00, 703.6, 138.0)">a</text><text xml:space="preserve" font-family="Nunito-Light" font-size="37.0" fill="#000000" transform="matrix(1.00, 0.00, -0.00, -1.00, 722.4, 138.0)">m</text><text xml:space="preserve" font-family="Nunito-Light" font-size="37.0" fill="#000000" transform="matrix(1.00, 0.00, -0.00, -1.00, 755.7, 138.0)"> </text><text xml:space="preserve" font-family="Nunito-Light" font-size="37.0" fill="#000000" transform="matrix(1.00, 0.00, -0.00, -1.00, 766.2, 138.0)">-</text><text xml:space="preserve" font-family="Nunito-Light" font-size="37.0" fill="#000000" transform="matrix(1.00, 0.00, -0.00, -1.00, 777.0, 138.0)"> </text><text xml:space="preserve" font-family="Nunito-Light" font-size="37.0" fill="#000000" transform="matrix(1.00, 0.00, -0.00, -1.00, 787.6, 138.0)">w</text><text xml:space="preserve" font-family="Nunito-Light" font-size="37.0" fill="#000000" transform="matrix(1.00, 0.00, -0.00, -1.00, 818.6, 138.0)">i</text><text xml:space="preserve" font-family="Nunito-Light" font-size="37.0" fill="#000000" transform="matrix(1.00, 0.00, -0.00, -1.00, 827.2, 138.0)">t</text><text xml:space="preserve" font-family="Nunito-Light" font-size="37.0" fill="#000000" transform="matrix(1.00, 0.00, -0.00, -1.00, 839.9, 138.0)">h</text><text xml:space="preserve" font-family="Nunito-Light" font-size="37.0" fill="#000000" transform="matrix(1.00, 0.00, -0.00, -1.00, 860.9, 138.0)"> </text><text xml:space="preserve" font-family="Nunito-Regular" font-size="37.0" fill="#000000" transform="matrix(1.00, 0.00, -0.00, -1.00, 871.1, 138.0)">E</text><text xml:space="preserve" font-family="Nunito-Regular" font-size="37.0" fill="#000000" transform="matrix(1.00, 0.00, -0.00, -1.00, 893.9, 138.0)">l</text><text xml:space="preserve" font-family="Nunito-Regular" font-size="37.0" fill="#000000" transform="matrix(1.00, 0.00, -0.00, -1.00, 903.1, 138.0)">m</text><text xml:space="preserve" font-family="Nunito-Regular" font-size="40.0" fill="#000000" transform="matrix(1.00, 0.00, -0.00, -1.00, 107.0, 307.0)">F</text><text xml:space="preserve" font-family="Nunito-Regular" font-size="40.0" fill="#000000" transform="matrix(1.00, 0.00, -0.00, -1.00, 129.9, 307.0)">y</text><text xml:space="preserve" font-family="Nunito-Regular" font-size="40.0" fill="#000000" transform="matrix(1.00, 0.00, -0.00, -1.00, 150.0, 307.0)">s</text><text xml:space="preserve" font-family="Nunito-Regular" font-size="40.0" fill="#000000" transform="matrix(1.00, 0.00, -0.00, -1.00, 170.4, 307.0)">i</text><text xml:space="preserve" font-family="Nunito-Regular" font-size="40.0" fill="#000000" transform="matrix(1.00, 0.00, -0.00, -1.00, 180.3, 307.0)"> </text><text xml:space="preserve" font-family="Nunito-Regular" font-size="40.0" fill="#000000" transform="matrix(1.00, 0.00, -0.00, -1.00, 192.4, 307.0)">G</text><text xml:space="preserve" font-family="Nunito-Regular" font-size="40.0" fill="#000000" transform="matrix(1.00, 0.00, -0.00, -1.00, 222.3, 307.0)">m</text><text xml:space="preserve" font-family="Nunito-Regular" font-size="40.0" fill="#000000" transform="matrix(1.00, 0.00, -0.00, -1.00, 258.9, 307.0)">b</text><text xml:space="preserve" font-family="Nunito-Regular" font-size="40.0" fill="#000000" transform="matrix(1.00, 0.00, -0.00, -1.00, 282.4, 307.0)">H</text><text xml:space="preserve" font-family="Nunito-Regular" font-size="40.0" fill="#000000" transform="matrix(1.00, 0.00, -0.00, -1.00, 110.0, 184.0)">I</text><text xml:space="preserve" font-family="Nunito-Regular" font-size="40.0" fill="#000000" transform="matrix(1.00, 0.00, -0.00, -1.00, 122.4, 184.0)"> </text><text xml:space="preserve" font-family="Nunito-Regular" font-size="40.0" fill="#000000" transform="matrix(1.00, 0.00, -0.00, -1.00, 134.5, 184.0)">b</text><text xml:space="preserve" font-family="Nunito-Regular" font-size="40.0" fill="#000000" transform="matrix(1.00, 0.00, -0.00, -1.00, 158.0, 184.0)">e</text><text xml:space="preserve" font-family="Nunito-Regular" font-size="40.0" fill="#000000" transform="matrix(1.00, 0.00, -0.00, -1.00, 180.6, 184.0)">l</text><text xml:space="preserve" font-family="Nunito-Regular" font-size="40.0" fill="#000000" transform="matrix(1.00, 0.00, -0.00, -1.00, 190.6, 184.0)">i</text><text xml:space="preserve" font-family="Nunito-Regular" font-size="40.0" fill="#000000" transform="matrix(1.00, 0.00, -0.00, -1.00, 200.5, 184.0)">e</text><text xml:space="preserve" font-family="Nunito-Regular" font-size="40.0" fill="#000000" transform="matrix(1.00, 0.00, -0.00, -1.00, 222.6, 184.0)">v</text><text xml:space="preserve" font-family="Nunito-Regular" font-size="40.0" fill="#000000" transform="matrix(1.00, 0.00, -0.00, -1.00, 242.9, 184.0)">e</text><text xml:space="preserve" font-family="Nunito-Light" font-size="37.0" fill="#000000" transform="matrix(1.00, 0.00, -0.00, -1.00, 108.0, 258.0)">F</text><text xml:space="preserve" font-family="Nunito-Light" font-size="37.0" fill="#000000" transform="matrix(1.00, 0.00, -0.00, -1.00, 128.8, 258.0)">y</text><text xml:space="preserve" font-family="Nunito-Light" font-size="37.0" fill="#000000" transform="matrix(1.00, 0.00, -0.00, -1.00, 146.7, 258.0)">s</text><text xml:space="preserve" font-family="Nunito-Light" font-size="37.0" fill="#000000" transform="matrix(1.00, 0.00, -0.00, -1.00, 165.2, 258.0)">i</text><text xml:space="preserve" font-family="Nunito-Light" font-size="37.0" fill="#000000" transform="matrix(1.00, 0.00, -0.00, -1.00, 173.8, 258.0)">.</text><text xml:space="preserve" font-family="Nunito-Light" font-size="37.0" fill="#000000" transform="matrix(1.00, 0.00, -0.00, -1.00, 184.3, 258.0)">W</text><text xml:space="preserve" font-family="Nunito-Light" font-size="37.0" fill="#000000" transform="matrix(1.00, 0.00, -0.00, -1.00, 220.0, 258.0)">o</text><text xml:space="preserve" font-family="Nunito-Light" font-size="37.0" fill="#000000" transform="matrix(1.00, 0.00, -0.00, -1.00, 241.0, 258.0)">r</text><text xml:space="preserve" font-family="Nunito-Light" font-size="37.0" fill="#000000" transform="matrix(1.00, 0.00, -0.00, -1.00, 253.9, 258.0)">l</text><text xml:space="preserve" font-family="Nunito-Light" font-size="37.0" fill="#000000" transform="matrix(1.00, 0.00, -0.00, -1.00, 262.4, 258.0)">d</text><text xml:space="preserve" font-family="Nunito-Light" font-size="37.0" fill="#000000" transform="matrix(1.00, 0.00, -0.00, -1.00, 283.4, 258.0)"> </text><text xml:space="preserve" font-family="Nunito-Light" font-size="37.0" fill="#000000" transform="matrix(1.00, 0.00, -0.00, -1.00, 293.9, 258.0)">-</text><text xml:space="preserve" font-family="Nunito-Light" font-size="37.0" fill="#000000" transform="matrix(1.00, 0.00, -0.00, -1.00, 304.7, 258.0)"> </text><text xml:space="preserve" font-family="Nunito-Light" font-size="37.0" fill="#000000" transform="matrix(1.00, 0.00, -0.00, -1.00, 315.2, 258.0)">B</text><text xml:space="preserve" font-family="Nunito-Light" font-size="37.0" fill="#000000" transform="matrix(1.00, 0.00, -0.00, -1.00, 340.3, 258.0)">u</text><text xml:space="preserve" font-family="Nunito-Light" font-size="37.0" fill="#000000" transform="matrix(1.00, 0.00, -0.00, -1.00, 361.2, 258.0)">i</text><text xml:space="preserve" font-family="Nunito-Light" font-size="37.0" fill="#000000" transform="matrix(1.00, 0.00, -0.00, -1.00, 369.8, 258.0)">l</text><text xml:space="preserve" font-family="Nunito-Light" font-size="37.0" fill="#000000" transform="matrix(1.00, 0.00, -0.00, -1.00, 378.4, 258.0)">d</text><text xml:space="preserve" font-family="Nunito-Light" font-size="37.0" fill="#000000" transform="matrix(1.00, 0.00, -0.00, -1.00, 399.4, 258.0)"> </text><text xml:space="preserve" font-family="Nunito-Light" font-size="37.0" fill="#000000" transform="matrix(1.00, 0.00, -0.00, -1.00, 405.8, 258.0)">Y</text><text xml:space="preserve" font-family="Nunito-Light" font-size="37.0" fill="#000000" transform="matrix(1.00, 0.00, -0.00, -1.00, 424.0, 258.0)">o</text><text xml:space="preserve" font-family="Nunito-Light" font-size="37.0" fill="#000000" transform="matrix(1.00, 0.00, -0.00, -1.00, 445.0, 258.0)">u</text><text xml:space="preserve" font-family="Nunito-Light" font-size="37.0" fill="#000000" transform="matrix(1.00, 0.00, -0.00, -1.00, 465.9, 258.0)">r</text><text xml:space="preserve" font-family="Nunito-Light" font-size="37.0" fill="#000000" transform="matrix(1.00, 0.00, -0.00, -1.00, 478.7, 258.0)"> </text><text xml:space="preserve" font-family="Nunito-Light" font-size="37.0" fill="#000000" transform="matrix(1.00, 0.00, -0.00, -1.00, 489.3, 258.0)">o</text><text xml:space="preserve" font-family="Nunito-Light" font-size="37.0" fill="#000000" transform="matrix(1.00, 0.00, -0.00, -1.00, 509.6, 258.0)">w</text><text xml:space="preserve" font-family="Nunito-Light" font-size="37.0" fill="#000000" transform="matrix(1.00, 0.00, -0.00, -1.00, 540.7, 258.0)">n</text><text xml:space="preserve" font-family="Nunito-Light" font-size="37.0" fill="#000000" transform="matrix(1.00, 0.00, -0.00, -1.00, 561.6, 258.0)"> </text><text xml:space="preserve" font-family="Nunito-Light" font-size="37.0" fill="#000000" transform="matrix(1.00, 0.00, -0.00, -1.00, 569.5, 258.0)">W</text><text xml:space="preserve" font-family="Nunito-Light" font-size="37.0" fill="#000000" transform="matrix(1.00, 0.00, -0.00, -1.00, 605.2, 258.0)">o</text><text xml:space="preserve" font-family="Nunito-Light" font-size="37.0" fill="#000000" transform="matrix(1.00, 0.00, -0.00, -1.00, 626.2, 258.0)">r</text><text xml:space="preserve" font-family="Nunito-Light" font-size="37.0" fill="#000000" transform="matrix(1.00, 0.00, -0.00, -1.00, 639.1, 258.0)">l</text><text xml:space="preserve" font-family="Nunito-Light" font-size="37.0" fill="#000000" transform="matrix(1.00, 0.00, -0.00, -1.00, 647.6, 258.0)">d</text><text xml:space="preserve" font-family="Nunito-Light" font-size="37.0" fill="#000000" transform="matrix(1.00, 0.00, -0.00, -1.00, 668.6, 258.0)"> </text><text xml:space="preserve" font-family="Nunito-Light" font-size="37.0" fill="#000000" transform="matrix(1.00, 0.00, -0.00, -1.00, 679.2, 258.0)">o</text><text xml:space="preserve" font-family="Nunito-Light" font-size="37.0" fill="#000000" transform="matrix(1.00, 0.00, -0.00, -1.00, 700.2, 258.0)">n</text><text xml:space="preserve" font-family="Nunito-Light" font-size="37.0" fill="#000000" transform="matrix(1.00, 0.00, -0.00, -1.00, 721.1, 258.0)"> </text><text xml:space="preserve" font-family="Nunito-Light" font-size="37.0" fill="#000000" transform="matrix(1.00, 0.00, -0.00, -1.00, 731.7, 258.0)">t</text><text xml:space="preserve" font-family="Nunito-Light" font-size="37.0" fill="#000000" transform="matrix(1.00, 0.00, -0.00, -1.00, 744.4, 258.0)">h</text><text xml:space="preserve" font-family="Nunito-Light" font-size="37.0" fill="#000000" transform="matrix(1.00, 0.00, -0.00, -1.00, 765.4, 258.0)">e</text><text xml:space="preserve" font-family="Nunito-Light" font-size="37.0" fill="#000000" transform="matrix(1.00, 0.00, -0.00, -1.00, 785.8, 258.0)"> </text><text xml:space="preserve" font-family="Nunito-Light" font-size="37.0" fill="#000000" transform="matrix(1.00, 0.00, -0.00, -1.00, 796.4, 258.0)">I</text><text xml:space="preserve" font-family="Nunito-Light" font-size="37.0" fill="#000000" transform="matrix(1.00, 0.00, -0.00, -1.00, 807.1, 258.0)">n</text><text xml:space="preserve" font-family="Nunito-Light" font-size="37.0" fill="#000000" transform="matrix(1.00, 0.00, -0.00, -1.00, 828.0, 258.0)">t</text><text xml:space="preserve" font-family="Nunito-Light" font-size="37.0" fill="#000000" transform="matrix(1.00, 0.00, -0.00, -1.00, 840.8, 258.0)">e</text><text xml:space="preserve" font-family="Nunito-Light" font-size="37.0" fill="#000000" transform="matrix(1.00, 0.00, -0.00, -1.00, 861.2, 258.0)">r</text><text xml:space="preserve" font-family="Nunito-Light" font-size="37.0" fill="#000000" transform="matrix(1.00, 0.00, -0.00, -1.00, 874.1, 258.0)">n</text><text xml:space="preserve" font-family="Nunito-Light" font-size="37.0" fill="#000000" transform="matrix(1.00, 0.00, -0.00, -1.00, 895.0, 258.0)">e</text><text xml:space="preserve" font-family="Nunito-Light" font-size="37.0" fill="#000000" transform="matrix(1.00, 0.00, -0.00, -1.00, 915.5, 258.0)">t</text><g><clipPath id="clip-3"><path d="M 107.3 252.8 L 283.6 252.8 L 283.6 256.7 L 107.3 256.7 Z M 107.3 252.8 "></path></clipPath><g clip-path="url(#clip-3)"><path d="M 4.0 42.4 L 179.4 42.4 " fill="none" stroke="#000000" stroke-opacity="0.80" stroke-width="1.84" stroke-miterlimit="0.00" transform="matrix(1.00, 0.00, 0.00, -1.00, 104.3, 297.1)"></path></g></g></g></svg>