<?xml version="1.0" encoding="UTF-8" standalone="no"?><svg xmlns="http://www.w3.org/2000/svg" xmlns:xlink="http://www.w3.org/1999/xlink" clip-rule="evenodd" stroke-miterlimit="4.00" viewBox="0 0 1024 768"><desc>SVG generated by Keynote</desc><defs></defs><g transform="matrix(1.00, 0.00, -0.00, -1.00, 0.0, 768.0)"><path d="M 0.0 768.0 L 1024.0 768.0 L 1024.0 0.0 L 0.0 0.0 Z M 0.0 768.0 " fill="#FEFFFF"></path><text xml:space="preserve" font-family="Nunito-Regular" font-size="73.0" fill="#000000" transform="matrix(1.00, 0.00, -0.00, -1.00, 435.0, 644.0)">u</text><text xml:space="preserve" font-family="Nunito-Regular" font-size="73.0" fill="#000000" transform="matrix(1.00, 0.00, -0.00, -1.00, 477.6, 644.0)">f</text><text xml:space="preserve" font-family="Nunito-Regular" font-size="73.0" fill="#000000" transform="matrix(1.00, 0.00, -0.00, -1.00, 500.7, 644.0)">f</text><text xml:space="preserve" font-family="Nunito-Regular" font-size="73.0" fill="#000000" transform="matrix(1.00, 0.00, -0.00, -1.00, 523.7, 644.0)">f</text><text xml:space="preserve" font-family="Nunito-Regular" font-size="73.0" fill="#000000" transform="matrix(1.00, 0.00, -0.00, -1.00, 545.0, 644.0)">.</text><text xml:space="preserve" font-family="Nunito-Regular" font-size="73.0" fill="#000000" transform="matrix(1.00, 0.00, -0.00, -1.00, 566.9, 644.0)">.</text><text xml:space="preserve" font-family="Nunito-Regular" font-size="169.0" fill="#000000" transform="matrix(1.00, 0.00, -0.00, -1.00, 126.0, 469.0)">f</text><text xml:space="preserve" font-family="Nunito-Regular" font-size="169.0" fill="#000000" transform="matrix(1.00, 0.00, -0.00, -1.00, 185.7, 469.0)">u</text><text xml:space="preserve" font-family="Nunito-Regular" font-size="169.0" fill="#000000" transform="matrix(1.00, 0.00, -0.00, -1.00, 284.4, 469.0)">n</text><text xml:space="preserve" font-family="Nunito-Regular" font-size="169.0" fill="#000000" transform="matrix(1.00, 0.00, -0.00, -1.00, 383.1, 469.0)">c</text><text xml:space="preserve" font-family="Nunito-Regular" font-size="169.0" fill="#000000" transform="matrix(1.00, 0.00, -0.00, -1.00, 465.5, 469.0)">t</text><text xml:space="preserve" font-family="Nunito-Regular" font-size="169.0" fill="#000000" transform="matrix(1.00, 0.00, -0.00, -1.00, 526.7, 469.0)">i</text><text xml:space="preserve" font-family="Nunito-Regular" font-size="169.0" fill="#000000" transform="matrix(1.00, 0.00, -0.00, -1.00, 568.8, 469.0)">o</text><text xml:space="preserve" font-family="Nunito-Regular" font-size="169.0" fill="#000000" transform="matrix(1.00, 0.00, -0.00, -1.00, 668.5, 469.0)">n</text><text xml:space="preserve" font-family="Nunito-Regular" font-size="169.0" fill="#000000" transform="matrix(1.00, 0.00, -0.00, -1.00, 767.2, 469.0)">a</text><text xml:space="preserve" font-family="Nunito-Regular" font-size="169.0" fill="#000000" transform="matrix(1.00, 0.00, -0.00, -1.00, 856.4, 469.0)">l</text><text xml:space="preserve" font-family="Nunito-Regular" font-size="45.0" fill="#000000" transform="matrix(1.00, 0.00, -0.00, -1.00, 370.0, 420.0)">p</text><text xml:space="preserve" font-family="Nunito-Regular" font-size="45.0" fill="#000000" transform="matrix(1.00, 0.00, -0.00, -1.00, 396.5, 420.0)">r</text><text xml:space="preserve" font-family="Nunito-Regular" font-size="45.0" fill="#000000" transform="matrix(1.00, 0.00, -0.00, -1.00, 413.1, 420.0)">o</text><text xml:space="preserve" font-family="Nunito-Regular" font-size="45.0" fill="#000000" transform="matrix(1.00, 0.00, -0.00, -1.00, 439.6, 420.0)">g</text><text xml:space="preserve" font-family="Nunito-Regular" font-size="45.0" fill="#000000" transform="matrix(1.00, 0.00, -0.00, -1.00, 466.1, 420.0)">r</text><text xml:space="preserve" font-family="Nunito-Regular" font-size="45.0" fill="#000000" transform="matrix(1.00, 0.00, -0.00, -1.00, 482.9, 420.0)">a</text><text xml:space="preserve" font-family="Nunito-Regular" font-size="45.0" fill="#000000" transform="matrix(1.00, 0.00, -0.00, -1.00, 506.6, 420.0)">m</text><text xml:space="preserve" font-family="Nunito-Regular" font-size="45.0" fill="#000000" transform="matrix(1.00, 0.00, -0.00, -1.00, 547.8, 420.0)">m</text><text xml:space="preserve" font-family="Nunito-Regular" font-size="45.0" fill="#000000" transform="matrix(1.00, 0.00, -0.00, -1.00, 589.0, 420.0)">i</text><text xml:space="preserve" font-family="Nunito-Regular" font-size="45.0" fill="#000000" transform="matrix(1.00, 0.00, -0.00, -1.00, 600.2, 420.0)">n</text><text xml:space="preserve" font-family="Nunito-Regular" font-size="45.0" fill="#000000" transform="matrix(1.00, 0.00, -0.00, -1.00, 626.5, 420.0)">g</text><text xml:space="preserve" font-family="Nunito-Light" font-size="36.0" fill="#000000" transform="matrix(1.00, 0.00, -0.00, -1.00, 270.0, 216.0)">d</text><text xml:space="preserve" font-family="Nunito-Light" font-size="36.0" fill="#000000" transform="matrix(1.00, 0.00, -0.00, -1.00, 290.4, 216.0)">i</text><text xml:space="preserve" font-family="Nunito-Light" font-size="36.0" fill="#000000" transform="matrix(1.00, 0.00, -0.00, -1.00, 298.8, 216.0)">f</text><text xml:space="preserve" font-family="Nunito-Light" font-size="36.0" fill="#000000" transform="matrix(1.00, 0.00, -0.00, -1.00, 309.5, 216.0)">f</text><text xml:space="preserve" font-family="Nunito-Light" font-size="36.0" fill="#000000" transform="matrix(1.00, 0.00, -0.00, -1.00, 321.7, 216.0)">i</text><text xml:space="preserve" font-family="Nunito-Light" font-size="36.0" fill="#000000" transform="matrix(1.00, 0.00, -0.00, -1.00, 330.0, 216.0)">c</text><text xml:space="preserve" font-family="Nunito-Light" font-size="36.0" fill="#000000" transform="matrix(1.00, 0.00, -0.00, -1.00, 347.1, 216.0)">u</text><text xml:space="preserve" font-family="Nunito-Light" font-size="36.0" fill="#000000" transform="matrix(1.00, 0.00, -0.00, -1.00, 367.5, 216.0)">l</text><text xml:space="preserve" font-family="Nunito-Light" font-size="36.0" fill="#000000" transform="matrix(1.00, 0.00, -0.00, -1.00, 375.8, 216.0)">t</text><text xml:space="preserve" font-family="Nunito-Light" font-size="36.0" fill="#000000" transform="matrix(1.00, 0.00, -0.00, -1.00, 388.2, 216.0)">.</text><text xml:space="preserve" font-family="Nunito-Light" font-size="36.0" fill="#000000" transform="matrix(1.00, 0.00, -0.00, -1.00, 398.5, 216.0)">.</text><text xml:space="preserve" font-family="Nunito-Light" font-size="36.0" fill="#000000" transform="matrix(1.00, 0.00, -0.00, -1.00, 469.0, 250.0)">f</text><text xml:space="preserve" font-family="Nunito-Light" font-size="36.0" fill="#000000" transform="matrix(1.00, 0.00, -0.00, -1.00, 480.6, 250.0)">o</text><text xml:space="preserve" font-family="Nunito-Light" font-size="36.0" fill="#000000" transform="matrix(1.00, 0.00, -0.00, -1.00, 501.0, 250.0)">r</text><text xml:space="preserve" font-family="Nunito-Light" font-size="36.0" fill="#000000" transform="matrix(1.00, 0.00, -0.00, -1.00, 513.5, 250.0)"> </text><text xml:space="preserve" font-family="Nunito-Light" font-size="36.0" fill="#000000" transform="matrix(1.00, 0.00, -0.00, -1.00, 523.7, 250.0)">a</text><text xml:space="preserve" font-family="Nunito-Light" font-size="36.0" fill="#000000" transform="matrix(1.00, 0.00, -0.00, -1.00, 542.1, 250.0)">c</text><text xml:space="preserve" font-family="Nunito-Light" font-size="36.0" fill="#000000" transform="matrix(1.00, 0.00, -0.00, -1.00, 559.2, 250.0)">a</text><text xml:space="preserve" font-family="Nunito-Light" font-size="36.0" fill="#000000" transform="matrix(1.00, 0.00, -0.00, -1.00, 577.5, 250.0)">d</text><text xml:space="preserve" font-family="Nunito-Light" font-size="36.0" fill="#000000" transform="matrix(1.00, 0.00, -0.00, -1.00, 598.0, 250.0)">e</text><text xml:space="preserve" font-family="Nunito-Light" font-size="36.0" fill="#000000" transform="matrix(1.00, 0.00, -0.00, -1.00, 617.9, 250.0)">m</text><text xml:space="preserve" font-family="Nunito-Light" font-size="36.0" fill="#000000" transform="matrix(1.00, 0.00, -0.00, -1.00, 650.3, 250.0)">i</text><text xml:space="preserve" font-family="Nunito-Light" font-size="36.0" fill="#000000" transform="matrix(1.00, 0.00, -0.00, -1.00, 658.6, 250.0)">c</text><text xml:space="preserve" font-family="Nunito-Light" font-size="36.0" fill="#000000" transform="matrix(1.00, 0.00, -0.00, -1.00, 675.7, 250.0)">s</text><text xml:space="preserve" font-family="Nunito-Light" font-size="36.0" fill="#000000" transform="matrix(1.00, 0.00, -0.00, -1.00, 693.4, 250.0)">.</text><text xml:space="preserve" font-family="Nunito-Light" font-size="36.0" fill="#000000" transform="matrix(1.00, 0.00, -0.00, -1.00, 703.7, 250.0)">.</text><text xml:space="preserve" font-family="Nunito-Light" font-size="36.0" fill="#000000" transform="matrix(1.00, 0.00, -0.00, -1.00, 526.0, 206.0)">w</text><text xml:space="preserve" font-family="Nunito-Light" font-size="36.0" fill="#000000" transform="matrix(1.00, 0.00, -0.00, -1.00, 556.2, 206.0)">i</text><text xml:space="preserve" font-family="Nunito-Light" font-size="36.0" fill="#000000" transform="matrix(1.00, 0.00, -0.00, -1.00, 564.5, 206.0)">t</text><text xml:space="preserve" font-family="Nunito-Light" font-size="36.0" fill="#000000" transform="matrix(1.00, 0.00, -0.00, -1.00, 576.9, 206.0)">h</text><text xml:space="preserve" font-family="Nunito-Light" font-size="36.0" fill="#000000" transform="matrix(1.00, 0.00, -0.00, -1.00, 597.3, 206.0)"> </text><text xml:space="preserve" font-family="Nunito-Light" font-size="36.0" fill="#000000" transform="matrix(1.00, 0.00, -0.00, -1.00, 607.6, 206.0)">a</text><text xml:space="preserve" font-family="Nunito-Light" font-size="36.0" fill="#000000" transform="matrix(1.00, 0.00, -0.00, -1.00, 625.9, 206.0)"> </text><text xml:space="preserve" font-family="Nunito-Light" font-size="36.0" fill="#000000" transform="matrix(1.00, 0.00, -0.00, -1.00, 636.2, 206.0)">P</text><text xml:space="preserve" font-family="Nunito-Light" font-size="36.0" fill="#000000" transform="matrix(1.00, 0.00, -0.00, -1.00, 658.7, 206.0)">H</text><text xml:space="preserve" font-family="Nunito-Light" font-size="36.0" fill="#000000" transform="matrix(1.00, 0.00, -0.00, -1.00, 684.9, 206.0)">D</text><text xml:space="preserve" font-family="Nunito-Light" font-size="36.0" fill="#000000" transform="matrix(1.00, 0.00, -0.00, -1.00, 711.2, 206.0)"> </text><text xml:space="preserve" font-family="Nunito-Light" font-size="36.0" fill="#000000" transform="matrix(1.00, 0.00, -0.00, -1.00, 721.5, 206.0)">i</text><text xml:space="preserve" font-family="Nunito-Light" font-size="36.0" fill="#000000" transform="matrix(1.00, 0.00, -0.00, -1.00, 729.8, 206.0)">n</text><text xml:space="preserve" font-family="Nunito-Light" font-size="36.0" fill="#000000" transform="matrix(1.00, 0.00, -0.00, -1.00, 750.2, 206.0)"> </text><text xml:space="preserve" font-family="Nunito-Light" font-size="36.0" fill="#000000" transform="matrix(1.00, 0.00, -0.00, -1.00, 760.5, 206.0)">M</text><text xml:space="preserve" font-family="Nunito-Light" font-size="36.0" fill="#000000" transform="matrix(1.00, 0.00, -0.00, -1.00, 794.9, 206.0)">a</text><text xml:space="preserve" font-family="Nunito-Light" font-size="36.0" fill="#000000" transform="matrix(1.00, 0.00, -0.00, -1.00, 813.2, 206.0)">t</text><text xml:space="preserve" font-family="Nunito-Light" font-size="36.0" fill="#000000" transform="matrix(1.00, 0.00, -0.00, -1.00, 825.6, 206.0)">h</text><text xml:space="preserve" font-family="Nunito-Light" font-size="36.0" fill="#000000" transform="matrix(1.00, 0.00, -0.00, -1.00, 845.9, 206.0)">.</text><text xml:space="preserve" font-family="Nunito-Light" font-size="36.0" fill="#000000" transform="matrix(1.00, 0.00, -0.00, -1.00, 856.1, 206.0)">.</text></g></svg>