<?xml version="1.0" encoding="UTF-8" standalone="no"?><svg xmlns="http://www.w3.org/2000/svg" xmlns:xlink="http://www.w3.org/1999/xlink" clip-rule="evenodd" stroke-miterlimit="4.00" viewBox="0 0 1024 768"><desc>SVG generated by Keynote</desc><defs></defs><g transform="matrix(1.00, 0.00, -0.00, -1.00, 0.0, 768.0)"><path d="M 0.0 768.0 L 1024.0 768.0 L 1024.0 0.0 L 0.0 0.0 Z M 0.0 768.0 " fill="#FEFFFF"></path><text xml:space="preserve" font-family="Nunito-Regular" font-size="60.0" fill="#000000" transform="matrix(1.00, 0.00, -0.00, -1.00, 243.0, 492.0)">b</text><text xml:space="preserve" font-family="Nunito-Regular" font-size="60.0" fill="#000000" transform="matrix(1.00, 0.00, -0.00, -1.00, 278.3, 492.0)">u</text><text xml:space="preserve" font-family="Nunito-Regular" font-size="60.0" fill="#000000" transform="matrix(1.00, 0.00, -0.00, -1.00, 313.3, 492.0)">t</text><text xml:space="preserve" font-family="Nunito-Regular" font-size="60.0" fill="#000000" transform="matrix(1.00, 0.00, -0.00, -1.00, 335.0, 492.0)"> </text><text xml:space="preserve" font-family="Nunito-Regular" font-size="60.0" fill="#000000" transform="matrix(1.00, 0.00, -0.00, -1.00, 353.1, 492.0)">t</text><text xml:space="preserve" font-family="Nunito-Regular" font-size="60.0" fill="#000000" transform="matrix(1.00, 0.00, -0.00, -1.00, 374.8, 492.0)">h</text><text xml:space="preserve" font-family="Nunito-Regular" font-size="60.0" fill="#000000" transform="matrix(1.00, 0.00, -0.00, -1.00, 409.8, 492.0)">e</text><text xml:space="preserve" font-family="Nunito-Regular" font-size="60.0" fill="#000000" transform="matrix(1.00, 0.00, -0.00, -1.00, 443.8, 492.0)">r</text><text xml:space="preserve" font-family="Nunito-Regular" font-size="60.0" fill="#000000" transform="matrix(1.00, 0.00, -0.00, -1.00, 465.8, 492.0)">e</text><text xml:space="preserve" font-family="Nunito-Regular" font-size="60.0" fill="#000000" transform="matrix(1.00, 0.00, -0.00, -1.00, 499.8, 492.0)"> </text><text xml:space="preserve" font-family="Nunito-Regular" font-size="60.0" fill="#000000" transform="matrix(1.00, 0.00, -0.00, -1.00, 517.8, 492.0)">i</text><text xml:space="preserve" font-family="Nunito-Regular" font-size="60.0" fill="#000000" transform="matrix(1.00, 0.00, -0.00, -1.00, 532.7, 492.0)">s</text><text xml:space="preserve" font-family="Nunito-Regular" font-size="60.0" fill="#000000" transform="matrix(1.00, 0.00, -0.00, -1.00, 563.3, 492.0)"> </text><text xml:space="preserve" font-family="Nunito-Regular" font-size="60.0" fill="#000000" transform="matrix(1.00, 0.00, -0.00, -1.00, 581.4, 492.0)">a</text><text xml:space="preserve" font-family="Nunito-Regular" font-size="60.0" fill="#000000" transform="matrix(1.00, 0.00, -0.00, -1.00, 613.0, 492.0)">l</text><text xml:space="preserve" font-family="Nunito-Regular" font-size="60.0" fill="#000000" transform="matrix(1.00, 0.00, -0.00, -1.00, 628.0, 492.0)">r</text><text xml:space="preserve" font-family="Nunito-Regular" font-size="60.0" fill="#000000" transform="matrix(1.00, 0.00, -0.00, -1.00, 650.0, 492.0)">e</text><text xml:space="preserve" font-family="Nunito-Regular" font-size="60.0" fill="#000000" transform="matrix(1.00, 0.00, -0.00, -1.00, 684.0, 492.0)">a</text><text xml:space="preserve" font-family="Nunito-Regular" font-size="60.0" fill="#000000" transform="matrix(1.00, 0.00, -0.00, -1.00, 715.6, 492.0)">d</text><text xml:space="preserve" font-family="Nunito-Regular" font-size="60.0" fill="#000000" transform="matrix(1.00, 0.00, -0.00, -1.00, 751.0, 492.0)">y</text><text xml:space="preserve" font-family="Nunito-Regular" font-size="169.0" fill="#000000" transform="matrix(1.00, 0.00, -0.00, -1.00, 107.0, 328.0)">J</text><text xml:space="preserve" font-family="Nunito-Regular" font-size="169.0" fill="#000000" transform="matrix(1.00, 0.00, -0.00, -1.00, 197.5, 328.0)">a</text><text xml:space="preserve" font-family="Nunito-Regular" font-size="169.0" fill="#000000" transform="matrix(1.00, 0.00, -0.00, -1.00, 284.3, 328.0)">v</text><text xml:space="preserve" font-family="Nunito-Regular" font-size="169.0" fill="#000000" transform="matrix(1.00, 0.00, -0.00, -1.00, 370.1, 328.0)">a</text><text xml:space="preserve" font-family="Nunito-Regular" font-size="169.0" fill="#000000" transform="matrix(1.00, 0.00, -0.00, -1.00, 459.3, 328.0)">S</text><text xml:space="preserve" font-family="Nunito-Regular" font-size="169.0" fill="#000000" transform="matrix(1.00, 0.00, -0.00, -1.00, 568.1, 328.0)">c</text><text xml:space="preserve" font-family="Nunito-Regular" font-size="169.0" fill="#000000" transform="matrix(1.00, 0.00, -0.00, -1.00, 650.5, 328.0)">r</text><text xml:space="preserve" font-family="Nunito-Regular" font-size="169.0" fill="#000000" transform="matrix(1.00, 0.00, -0.00, -1.00, 713.4, 328.0)">i</text><text xml:space="preserve" font-family="Nunito-Regular" font-size="169.0" fill="#000000" transform="matrix(1.00, 0.00, -0.00, -1.00, 755.5, 328.0)">p</text><text xml:space="preserve" font-family="Nunito-Regular" font-size="169.0" fill="#000000" transform="matrix(1.00, 0.00, -0.00, -1.00, 855.2, 328.0)">t</text></g></svg>