<?xml version="1.0" encoding="UTF-8" standalone="no"?><svg xmlns="http://www.w3.org/2000/svg" xmlns:xlink="http://www.w3.org/1999/xlink" clip-rule="evenodd" stroke-miterlimit="4.00" viewBox="0 0 382 33"><desc>SVG generated by Keynote</desc><defs></defs><g transform="matrix(1.00, 0.00, -0.00, -1.00, 0.0, 33.0)"><text xml:space="preserve" font-family="Nunito-Bold" font-weight="bold" font-size="40.0" fill="#000000" transform="matrix(1.00, 0.00, -0.00, -1.00, -1.0, 2.0)">E</text><text xml:space="preserve" font-family="Nunito-Bold" font-weight="bold" font-size="40.0" fill="#000000" transform="matrix(1.00, 0.00, -0.00, -1.00, 23.8, 2.0)">l</text><text xml:space="preserve" font-family="Nunito-Bold" font-weight="bold" font-size="40.0" fill="#000000" transform="matrix(1.00, 0.00, -0.00, -1.00, 34.6, 2.0)">m</text><text xml:space="preserve" font-family="Nunito-Bold" font-weight="bold" font-size="40.0" fill="#000000" transform="matrix(1.00, 0.00, -0.00, -1.00, 72.1, 2.0)">’</text><text xml:space="preserve" font-family="Nunito-Bold" font-weight="bold" font-size="40.0" fill="#000000" transform="matrix(1.00, 0.00, -0.00, -1.00, 81.2, 2.0)">s</text><text xml:space="preserve" font-family="Nunito-Regular" font-size="40.0" fill="#000000" transform="matrix(1.00, 0.00, -0.00, -1.00, 102.2, 2.0)"> </text><text xml:space="preserve" font-family="Nunito-Regular" font-size="40.0" fill="#000000" transform="matrix(1.00, 0.00, -0.00, -1.00, 114.2, 2.0)">a</text><text xml:space="preserve" font-family="Nunito-Regular" font-size="40.0" fill="#000000" transform="matrix(1.00, 0.00, -0.00, -1.00, 134.8, 2.0)">w</text><text xml:space="preserve" font-family="Nunito-Regular" font-size="40.0" fill="#000000" transform="matrix(1.00, 0.00, -0.00, -1.00, 168.2, 2.0)">e</text><text xml:space="preserve" font-family="Nunito-Regular" font-size="40.0" fill="#000000" transform="matrix(1.00, 0.00, -0.00, -1.00, 190.8, 2.0)">s</text><text xml:space="preserve" font-family="Nunito-Regular" font-size="40.0" fill="#000000" transform="matrix(1.00, 0.00, -0.00, -1.00, 211.2, 2.0)">o</text><text xml:space="preserve" font-family="Nunito-Regular" font-size="40.0" fill="#000000" transform="matrix(1.00, 0.00, -0.00, -1.00, 234.8, 2.0)">m</text><text xml:space="preserve" font-family="Nunito-Regular" font-size="40.0" fill="#000000" transform="matrix(1.00, 0.00, -0.00, -1.00, 271.4, 2.0)">e</text><text xml:space="preserve" font-family="Nunito-Regular" font-size="40.0" fill="#000000" transform="matrix(1.00, 0.00, -0.00, -1.00, 294.1, 2.0)">n</text><text xml:space="preserve" font-family="Nunito-Regular" font-size="40.0" fill="#000000" transform="matrix(1.00, 0.00, -0.00, -1.00, 317.4, 2.0)">e</text><text xml:space="preserve" font-family="Nunito-Regular" font-size="40.0" fill="#000000" transform="matrix(1.00, 0.00, -0.00, -1.00, 340.0, 2.0)">s</text><text xml:space="preserve" font-family="Nunito-Regular" font-size="40.0" fill="#000000" transform="matrix(1.00, 0.00, -0.00, -1.00, 360.4, 2.0)">s</text></g></svg>