<?xml version="1.0" encoding="UTF-8" standalone="no"?><svg xmlns="http://www.w3.org/2000/svg" xmlns:xlink="http://www.w3.org/1999/xlink" clip-rule="evenodd" stroke-miterlimit="4.00" viewBox="0 0 339 30"><desc>SVG generated by Keynote</desc><defs></defs><g transform="matrix(1.00, 0.00, -0.00, -1.00, 0.0, 30.0)"><text xml:space="preserve" font-family="Nunito-Bold" font-weight="bold" font-size="36.0" fill="#000000" transform="matrix(1.00, 0.00, -0.00, -1.00, -1.0, 2.0)">N</text><text xml:space="preserve" font-family="Nunito-Bold" font-weight="bold" font-size="36.0" fill="#000000" transform="matrix(1.00, 0.00, -0.00, -1.00, 27.1, 2.0)">o</text><text xml:space="preserve" font-family="Nunito-Regular" font-size="36.0" fill="#000000" transform="matrix(1.00, 0.00, -0.00, -1.00, 49.2, 2.0)"> </text><text xml:space="preserve" font-family="Nunito-Regular" font-size="36.0" fill="#000000" transform="matrix(1.00, 0.00, -0.00, -1.00, 58.4, 2.0)">“</text><text xml:space="preserve" font-family="Nunito-Regular" font-size="36.0" fill="#000000" transform="matrix(1.00, 0.00, -0.00, -1.00, 78.8, 2.0)">r</text><text xml:space="preserve" font-family="Nunito-Regular" font-size="36.0" fill="#000000" transform="matrix(1.00, 0.00, -0.00, -1.00, 91.6, 2.0)">u</text><text xml:space="preserve" font-family="Nunito-Regular" font-size="36.0" fill="#000000" transform="matrix(1.00, 0.00, -0.00, -1.00, 112.6, 2.0)">n</text><text xml:space="preserve" font-family="Nunito-Regular" font-size="36.0" fill="#000000" transform="matrix(1.00, 0.00, -0.00, -1.00, 133.6, 2.0)">t</text><text xml:space="preserve" font-family="Nunito-Regular" font-size="36.0" fill="#000000" transform="matrix(1.00, 0.00, -0.00, -1.00, 146.7, 2.0)">i</text><text xml:space="preserve" font-family="Nunito-Regular" font-size="36.0" fill="#000000" transform="matrix(1.00, 0.00, -0.00, -1.00, 155.6, 2.0)">m</text><text xml:space="preserve" font-family="Nunito-Regular" font-size="36.0" fill="#000000" transform="matrix(1.00, 0.00, -0.00, -1.00, 188.6, 2.0)">e</text><text xml:space="preserve" font-family="Nunito-Regular" font-size="36.0" fill="#000000" transform="matrix(1.00, 0.00, -0.00, -1.00, 209.0, 2.0)"> </text><text xml:space="preserve" font-family="Nunito-Regular" font-size="36.0" fill="#000000" transform="matrix(1.00, 0.00, -0.00, -1.00, 219.8, 2.0)">e</text><text xml:space="preserve" font-family="Nunito-Regular" font-size="36.0" fill="#000000" transform="matrix(1.00, 0.00, -0.00, -1.00, 240.2, 2.0)">r</text><text xml:space="preserve" font-family="Nunito-Regular" font-size="36.0" fill="#000000" transform="matrix(1.00, 0.00, -0.00, -1.00, 253.3, 2.0)">r</text><text xml:space="preserve" font-family="Nunito-Regular" font-size="36.0" fill="#000000" transform="matrix(1.00, 0.00, -0.00, -1.00, 266.5, 2.0)">o</text><text xml:space="preserve" font-family="Nunito-Regular" font-size="36.0" fill="#000000" transform="matrix(1.00, 0.00, -0.00, -1.00, 287.7, 2.0)">r</text><text xml:space="preserve" font-family="Nunito-Regular" font-size="36.0" fill="#000000" transform="matrix(1.00, 0.00, -0.00, -1.00, 301.1, 2.0)">s</text><text xml:space="preserve" font-family="Nunito-Regular" font-size="36.0" fill="#000000" transform="matrix(1.00, 0.00, -0.00, -1.00, 319.5, 2.0)">”</text></g></svg>