<?xml version="1.0" encoding="UTF-8" standalone="no"?><svg xmlns="http://www.w3.org/2000/svg" xmlns:xlink="http://www.w3.org/1999/xlink" clip-rule="evenodd" stroke-miterlimit="4.00" viewBox="0 0 1024 768"><desc>SVG generated by Keynote</desc><defs></defs><g transform="matrix(1.00, 0.00, -0.00, -1.00, 0.0, 768.0)"><path d="M 0.0 768.0 L 1024.0 768.0 L 1024.0 0.0 L 0.0 0.0 Z M 0.0 768.0 " fill="#FEFFFF"></path><text xml:space="preserve" font-family="Nunito-Bold" font-weight="bold" font-size="36.0" fill="#000000" transform="matrix(1.00, 0.00, -0.00, -1.00, 234.0, 612.0)">N</text><text xml:space="preserve" font-family="Nunito-Bold" font-weight="bold" font-size="36.0" fill="#000000" transform="matrix(1.00, 0.00, -0.00, -1.00, 262.1, 612.0)">o</text><text xml:space="preserve" font-family="Nunito-Regular" font-size="36.0" fill="#000000" transform="matrix(1.00, 0.00, -0.00, -1.00, 284.2, 612.0)"> </text><text xml:space="preserve" font-family="Nunito-Regular" font-size="36.0" fill="#000000" transform="matrix(1.00, 0.00, -0.00, -1.00, 293.4, 612.0)">“</text><text xml:space="preserve" font-family="Nunito-Regular" font-size="36.0" fill="#000000" transform="matrix(1.00, 0.00, -0.00, -1.00, 313.8, 612.0)">r</text><text xml:space="preserve" font-family="Nunito-Regular" font-size="36.0" fill="#000000" transform="matrix(1.00, 0.00, -0.00, -1.00, 326.6, 612.0)">u</text><text xml:space="preserve" font-family="Nunito-Regular" font-size="36.0" fill="#000000" transform="matrix(1.00, 0.00, -0.00, -1.00, 347.6, 612.0)">n</text><text xml:space="preserve" font-family="Nunito-Regular" font-size="36.0" fill="#000000" transform="matrix(1.00, 0.00, -0.00, -1.00, 368.6, 612.0)">t</text><text xml:space="preserve" font-family="Nunito-Regular" font-size="36.0" fill="#000000" transform="matrix(1.00, 0.00, -0.00, -1.00, 381.7, 612.0)">i</text><text xml:space="preserve" font-family="Nunito-Regular" font-size="36.0" fill="#000000" transform="matrix(1.00, 0.00, -0.00, -1.00, 390.6, 612.0)">m</text><text xml:space="preserve" font-family="Nunito-Regular" font-size="36.0" fill="#000000" transform="matrix(1.00, 0.00, -0.00, -1.00, 423.6, 612.0)">e</text><text xml:space="preserve" font-family="Nunito-Regular" font-size="36.0" fill="#000000" transform="matrix(1.00, 0.00, -0.00, -1.00, 444.0, 612.0)"> </text><text xml:space="preserve" font-family="Nunito-Regular" font-size="36.0" fill="#000000" transform="matrix(1.00, 0.00, -0.00, -1.00, 454.8, 612.0)">e</text><text xml:space="preserve" font-family="Nunito-Regular" font-size="36.0" fill="#000000" transform="matrix(1.00, 0.00, -0.00, -1.00, 475.2, 612.0)">r</text><text xml:space="preserve" font-family="Nunito-Regular" font-size="36.0" fill="#000000" transform="matrix(1.00, 0.00, -0.00, -1.00, 488.3, 612.0)">r</text><text xml:space="preserve" font-family="Nunito-Regular" font-size="36.0" fill="#000000" transform="matrix(1.00, 0.00, -0.00, -1.00, 501.5, 612.0)">o</text><text xml:space="preserve" font-family="Nunito-Regular" font-size="36.0" fill="#000000" transform="matrix(1.00, 0.00, -0.00, -1.00, 522.7, 612.0)">r</text><text xml:space="preserve" font-family="Nunito-Regular" font-size="36.0" fill="#000000" transform="matrix(1.00, 0.00, -0.00, -1.00, 536.1, 612.0)">s</text><text xml:space="preserve" font-family="Nunito-Regular" font-size="36.0" fill="#000000" transform="matrix(1.00, 0.00, -0.00, -1.00, 554.5, 612.0)">”</text><text xml:space="preserve" font-family="Nunito-Bold" font-weight="bold" font-size="36.0" fill="#000000" transform="matrix(1.00, 0.00, -0.00, -1.00, 234.0, 496.0)">N</text><text xml:space="preserve" font-family="Nunito-Bold" font-weight="bold" font-size="36.0" fill="#000000" transform="matrix(1.00, 0.00, -0.00, -1.00, 262.1, 496.0)">o</text><text xml:space="preserve" font-family="Nunito-Regular" font-size="36.0" fill="#000000" transform="matrix(1.00, 0.00, -0.00, -1.00, 284.2, 496.0)"> </text><text xml:space="preserve" font-family="Nunito-Regular" font-size="36.0" fill="#000000" transform="matrix(1.00, 0.00, -0.00, -1.00, 293.4, 496.0)">“</text><text xml:space="preserve" font-family="Nunito-Regular" font-size="36.0" fill="#000000" transform="matrix(1.00, 0.00, -0.00, -1.00, 313.8, 496.0)">u</text><text xml:space="preserve" font-family="Nunito-Regular" font-size="36.0" fill="#000000" transform="matrix(1.00, 0.00, -0.00, -1.00, 334.8, 496.0)">n</text><text xml:space="preserve" font-family="Nunito-Regular" font-size="36.0" fill="#000000" transform="matrix(1.00, 0.00, -0.00, -1.00, 355.8, 496.0)">d</text><text xml:space="preserve" font-family="Nunito-Regular" font-size="36.0" fill="#000000" transform="matrix(1.00, 0.00, -0.00, -1.00, 377.1, 496.0)">e</text><text xml:space="preserve" font-family="Nunito-Regular" font-size="36.0" fill="#000000" transform="matrix(1.00, 0.00, -0.00, -1.00, 397.4, 496.0)">f</text><text xml:space="preserve" font-family="Nunito-Regular" font-size="36.0" fill="#000000" transform="matrix(1.00, 0.00, -0.00, -1.00, 410.1, 496.0)">i</text><text xml:space="preserve" font-family="Nunito-Regular" font-size="36.0" fill="#000000" transform="matrix(1.00, 0.00, -0.00, -1.00, 419.1, 496.0)">n</text><text xml:space="preserve" font-family="Nunito-Regular" font-size="36.0" fill="#000000" transform="matrix(1.00, 0.00, -0.00, -1.00, 440.1, 496.0)">e</text><text xml:space="preserve" font-family="Nunito-Regular" font-size="36.0" fill="#000000" transform="matrix(1.00, 0.00, -0.00, -1.00, 460.5, 496.0)">d</text><text xml:space="preserve" font-family="Nunito-Regular" font-size="36.0" fill="#000000" transform="matrix(1.00, 0.00, -0.00, -1.00, 481.7, 496.0)"> </text><text xml:space="preserve" font-family="Nunito-Regular" font-size="36.0" fill="#000000" transform="matrix(1.00, 0.00, -0.00, -1.00, 492.5, 496.0)">i</text><text xml:space="preserve" font-family="Nunito-Regular" font-size="36.0" fill="#000000" transform="matrix(1.00, 0.00, -0.00, -1.00, 501.5, 496.0)">s</text><text xml:space="preserve" font-family="Nunito-Regular" font-size="36.0" fill="#000000" transform="matrix(1.00, 0.00, -0.00, -1.00, 519.9, 496.0)"> </text><text xml:space="preserve" font-family="Nunito-Regular" font-size="36.0" fill="#000000" transform="matrix(1.00, 0.00, -0.00, -1.00, 530.7, 496.0)">n</text><text xml:space="preserve" font-family="Nunito-Regular" font-size="36.0" fill="#000000" transform="matrix(1.00, 0.00, -0.00, -1.00, 551.7, 496.0)">o</text><text xml:space="preserve" font-family="Nunito-Regular" font-size="36.0" fill="#000000" transform="matrix(1.00, 0.00, -0.00, -1.00, 573.0, 496.0)">t</text><text xml:space="preserve" font-family="Nunito-Regular" font-size="36.0" fill="#000000" transform="matrix(1.00, 0.00, -0.00, -1.00, 586.0, 496.0)"> </text><text xml:space="preserve" font-family="Nunito-Regular" font-size="36.0" fill="#000000" transform="matrix(1.00, 0.00, -0.00, -1.00, 596.8, 496.0)">a</text><text xml:space="preserve" font-family="Nunito-Regular" font-size="36.0" fill="#000000" transform="matrix(1.00, 0.00, -0.00, -1.00, 615.8, 496.0)"> </text><text xml:space="preserve" font-family="Nunito-Regular" font-size="36.0" fill="#000000" transform="matrix(1.00, 0.00, -0.00, -1.00, 626.7, 496.0)">f</text><text xml:space="preserve" font-family="Nunito-Regular" font-size="36.0" fill="#000000" transform="matrix(1.00, 0.00, -0.00, -1.00, 639.4, 496.0)">u</text><text xml:space="preserve" font-family="Nunito-Regular" font-size="36.0" fill="#000000" transform="matrix(1.00, 0.00, -0.00, -1.00, 660.4, 496.0)">n</text><text xml:space="preserve" font-family="Nunito-Regular" font-size="36.0" fill="#000000" transform="matrix(1.00, 0.00, -0.00, -1.00, 681.4, 496.0)">c</text><text xml:space="preserve" font-family="Nunito-Regular" font-size="36.0" fill="#000000" transform="matrix(1.00, 0.00, -0.00, -1.00, 699.0, 496.0)">t</text><text xml:space="preserve" font-family="Nunito-Regular" font-size="36.0" fill="#000000" transform="matrix(1.00, 0.00, -0.00, -1.00, 712.0, 496.0)">i</text><text xml:space="preserve" font-family="Nunito-Regular" font-size="36.0" fill="#000000" transform="matrix(1.00, 0.00, -0.00, -1.00, 721.0, 496.0)">o</text><text xml:space="preserve" font-family="Nunito-Regular" font-size="36.0" fill="#000000" transform="matrix(1.00, 0.00, -0.00, -1.00, 742.2, 496.0)">n</text><text xml:space="preserve" font-family="Nunito-Regular" font-size="36.0" fill="#000000" transform="matrix(1.00, 0.00, -0.00, -1.00, 761.3, 496.0)">”</text><text xml:space="preserve" font-family="Nunito-Bold" font-weight="bold" font-size="36.0" fill="#000000" transform="matrix(1.00, 0.00, -0.00, -1.00, 234.0, 555.0)">N</text><text xml:space="preserve" font-family="Nunito-Bold" font-weight="bold" font-size="36.0" fill="#000000" transform="matrix(1.00, 0.00, -0.00, -1.00, 262.1, 555.0)">o</text><text xml:space="preserve" font-family="Nunito-Regular" font-size="36.0" fill="#000000" transform="matrix(1.00, 0.00, -0.00, -1.00, 284.2, 555.0)"> </text><text xml:space="preserve" font-family="Nunito-Regular" font-size="36.0" fill="#000000" transform="matrix(1.00, 0.00, -0.00, -1.00, 293.4, 555.0)">“</text><text xml:space="preserve" font-family="Nunito-Regular" font-size="36.0" fill="#000000" transform="matrix(1.00, 0.00, -0.00, -1.00, 313.8, 555.0)">n</text><text xml:space="preserve" font-family="Nunito-Regular" font-size="36.0" fill="#000000" transform="matrix(1.00, 0.00, -0.00, -1.00, 334.8, 555.0)">u</text><text xml:space="preserve" font-family="Nunito-Regular" font-size="36.0" fill="#000000" transform="matrix(1.00, 0.00, -0.00, -1.00, 355.8, 555.0)">l</text><text xml:space="preserve" font-family="Nunito-Regular" font-size="36.0" fill="#000000" transform="matrix(1.00, 0.00, -0.00, -1.00, 364.8, 555.0)">l</text><text xml:space="preserve" font-family="Nunito-Regular" font-size="36.0" fill="#000000" transform="matrix(1.00, 0.00, -0.00, -1.00, 373.8, 555.0)">”</text><text xml:space="preserve" font-family="Nunito-Regular" font-size="36.0" fill="#000000" transform="matrix(1.00, 0.00, -0.00, -1.00, 393.7, 555.0)"> </text><text xml:space="preserve" font-family="Nunito-Bold" font-weight="bold" font-size="36.0" fill="#000000" transform="matrix(1.00, 0.00, -0.00, -1.00, 234.0, 438.0)">W</text><text xml:space="preserve" font-family="Nunito-Bold" font-weight="bold" font-size="36.0" fill="#000000" transform="matrix(1.00, 0.00, -0.00, -1.00, 269.3, 438.0)">e</text><text xml:space="preserve" font-family="Nunito-Bold" font-weight="bold" font-size="36.0" fill="#000000" transform="matrix(1.00, 0.00, -0.00, -1.00, 290.1, 438.0)">l</text><text xml:space="preserve" font-family="Nunito-Bold" font-weight="bold" font-size="36.0" fill="#000000" transform="matrix(1.00, 0.00, -0.00, -1.00, 299.9, 438.0)">l</text><text xml:space="preserve" font-family="Nunito-Bold" font-weight="bold" font-size="36.0" fill="#000000" transform="matrix(1.00, 0.00, -0.00, -1.00, 309.6, 438.0)">-</text><text xml:space="preserve" font-family="Nunito-Bold" font-weight="bold" font-size="36.0" fill="#000000" transform="matrix(1.00, 0.00, -0.00, -1.00, 322.1, 438.0)">O</text><text xml:space="preserve" font-family="Nunito-Bold" font-weight="bold" font-size="36.0" fill="#000000" transform="matrix(1.00, 0.00, -0.00, -1.00, 350.4, 438.0)">r</text><text xml:space="preserve" font-family="Nunito-Bold" font-weight="bold" font-size="36.0" fill="#000000" transform="matrix(1.00, 0.00, -0.00, -1.00, 364.9, 438.0)">g</text><text xml:space="preserve" font-family="Nunito-Bold" font-weight="bold" font-size="36.0" fill="#000000" transform="matrix(1.00, 0.00, -0.00, -1.00, 387.0, 438.0)">a</text><text xml:space="preserve" font-family="Nunito-Bold" font-weight="bold" font-size="36.0" fill="#000000" transform="matrix(1.00, 0.00, -0.00, -1.00, 406.8, 438.0)">n</text><text xml:space="preserve" font-family="Nunito-Bold" font-weight="bold" font-size="36.0" fill="#000000" transform="matrix(1.00, 0.00, -0.00, -1.00, 428.6, 438.0)">i</text><text xml:space="preserve" font-family="Nunito-Bold" font-weight="bold" font-size="36.0" fill="#000000" transform="matrix(1.00, 0.00, -0.00, -1.00, 438.3, 438.0)">s</text><text xml:space="preserve" font-family="Nunito-Bold" font-weight="bold" font-size="36.0" fill="#000000" transform="matrix(1.00, 0.00, -0.00, -1.00, 457.1, 438.0)">e</text><text xml:space="preserve" font-family="Nunito-Bold" font-weight="bold" font-size="36.0" fill="#000000" transform="matrix(1.00, 0.00, -0.00, -1.00, 478.0, 438.0)">d</text><text xml:space="preserve" font-family="Nunito-Bold" font-weight="bold" font-size="36.0" fill="#000000" transform="matrix(1.00, 0.00, -0.00, -1.00, 500.1, 438.0)"> </text><text xml:space="preserve" font-family="Nunito-Regular" font-size="36.0" fill="#000000" transform="matrix(1.00, 0.00, -0.00, -1.00, 511.5, 438.0)">C</text><text xml:space="preserve" font-family="Nunito-Regular" font-size="36.0" fill="#000000" transform="matrix(1.00, 0.00, -0.00, -1.00, 536.5, 438.0)">o</text><text xml:space="preserve" font-family="Nunito-Regular" font-size="36.0" fill="#000000" transform="matrix(1.00, 0.00, -0.00, -1.00, 557.7, 438.0)">d</text><text xml:space="preserve" font-family="Nunito-Regular" font-size="36.0" fill="#000000" transform="matrix(1.00, 0.00, -0.00, -1.00, 578.9, 438.0)">e</text><text xml:space="preserve" font-family="Nunito-Bold" font-weight="bold" font-size="36.0" fill="#000000" transform="matrix(1.00, 0.00, -0.00, -1.00, 234.0, 380.0)">A</text><text xml:space="preserve" font-family="Nunito-Bold" font-weight="bold" font-size="36.0" fill="#000000" transform="matrix(1.00, 0.00, -0.00, -1.00, 259.0, 380.0)">w</text><text xml:space="preserve" font-family="Nunito-Bold" font-weight="bold" font-size="36.0" fill="#000000" transform="matrix(1.00, 0.00, -0.00, -1.00, 289.6, 380.0)">e</text><text xml:space="preserve" font-family="Nunito-Bold" font-weight="bold" font-size="36.0" fill="#000000" transform="matrix(1.00, 0.00, -0.00, -1.00, 310.4, 380.0)">s</text><text xml:space="preserve" font-family="Nunito-Bold" font-weight="bold" font-size="36.0" fill="#000000" transform="matrix(1.00, 0.00, -0.00, -1.00, 329.3, 380.0)">o</text><text xml:space="preserve" font-family="Nunito-Bold" font-weight="bold" font-size="36.0" fill="#000000" transform="matrix(1.00, 0.00, -0.00, -1.00, 351.4, 380.0)">m</text><text xml:space="preserve" font-family="Nunito-Bold" font-weight="bold" font-size="36.0" fill="#000000" transform="matrix(1.00, 0.00, -0.00, -1.00, 385.1, 380.0)">e</text><text xml:space="preserve" font-family="Nunito-Bold" font-weight="bold" font-size="36.0" fill="#000000" transform="matrix(1.00, 0.00, -0.00, -1.00, 406.0, 380.0)"> </text><text xml:space="preserve" font-family="Nunito-Regular" font-size="36.0" fill="#000000" transform="matrix(1.00, 0.00, -0.00, -1.00, 417.4, 380.0)">E</text><text xml:space="preserve" font-family="Nunito-Regular" font-size="36.0" fill="#000000" transform="matrix(1.00, 0.00, -0.00, -1.00, 439.6, 380.0)">r</text><text xml:space="preserve" font-family="Nunito-Regular" font-size="36.0" fill="#000000" transform="matrix(1.00, 0.00, -0.00, -1.00, 452.7, 380.0)">r</text><text xml:space="preserve" font-family="Nunito-Regular" font-size="36.0" fill="#000000" transform="matrix(1.00, 0.00, -0.00, -1.00, 465.9, 380.0)">o</text><text xml:space="preserve" font-family="Nunito-Regular" font-size="36.0" fill="#000000" transform="matrix(1.00, 0.00, -0.00, -1.00, 487.2, 380.0)">r</text><text xml:space="preserve" font-family="Nunito-Regular" font-size="36.0" fill="#000000" transform="matrix(1.00, 0.00, -0.00, -1.00, 500.6, 380.0)"> </text><text xml:space="preserve" font-family="Nunito-Regular" font-size="36.0" fill="#000000" transform="matrix(1.00, 0.00, -0.00, -1.00, 511.4, 380.0)">M</text><text xml:space="preserve" font-family="Nunito-Regular" font-size="36.0" fill="#000000" transform="matrix(1.00, 0.00, -0.00, -1.00, 546.6, 380.0)">e</text><text xml:space="preserve" font-family="Nunito-Regular" font-size="36.0" fill="#000000" transform="matrix(1.00, 0.00, -0.00, -1.00, 567.0, 380.0)">s</text><text xml:space="preserve" font-family="Nunito-Regular" font-size="36.0" fill="#000000" transform="matrix(1.00, 0.00, -0.00, -1.00, 585.4, 380.0)">s</text><text xml:space="preserve" font-family="Nunito-Regular" font-size="36.0" fill="#000000" transform="matrix(1.00, 0.00, -0.00, -1.00, 603.7, 380.0)">a</text><text xml:space="preserve" font-family="Nunito-Regular" font-size="36.0" fill="#000000" transform="matrix(1.00, 0.00, -0.00, -1.00, 622.7, 380.0)">g</text><text xml:space="preserve" font-family="Nunito-Regular" font-size="36.0" fill="#000000" transform="matrix(1.00, 0.00, -0.00, -1.00, 644.0, 380.0)">e</text><text xml:space="preserve" font-family="Nunito-Regular" font-size="36.0" fill="#000000" transform="matrix(1.00, 0.00, -0.00, -1.00, 664.4, 380.0)">s</text><text xml:space="preserve" font-family="Nunito-Bold" font-weight="bold" font-size="36.0" fill="#000000" transform="matrix(1.00, 0.00, -0.00, -1.00, 234.0, 325.0)">F</text><text xml:space="preserve" font-family="Nunito-Bold" font-weight="bold" font-size="36.0" fill="#000000" transform="matrix(1.00, 0.00, -0.00, -1.00, 254.5, 325.0)">a</text><text xml:space="preserve" font-family="Nunito-Bold" font-weight="bold" font-size="36.0" fill="#000000" transform="matrix(1.00, 0.00, -0.00, -1.00, 274.3, 325.0)">s</text><text xml:space="preserve" font-family="Nunito-Bold" font-weight="bold" font-size="36.0" fill="#000000" transform="matrix(1.00, 0.00, -0.00, -1.00, 293.1, 325.0)">t</text><text xml:space="preserve" font-family="Nunito-Bold" font-weight="bold" font-size="36.0" fill="#000000" transform="matrix(1.00, 0.00, -0.00, -1.00, 306.9, 325.0)"> </text><text xml:space="preserve" font-family="Nunito-Regular" font-size="36.0" fill="#000000" transform="matrix(1.00, 0.00, -0.00, -1.00, 318.3, 325.0)">H</text><text xml:space="preserve" font-family="Nunito-Regular" font-size="36.0" fill="#000000" transform="matrix(1.00, 0.00, -0.00, -1.00, 344.0, 325.0)">T</text><text xml:space="preserve" font-family="Nunito-Regular" font-size="36.0" fill="#000000" transform="matrix(1.00, 0.00, -0.00, -1.00, 365.0, 325.0)">M</text><text xml:space="preserve" font-family="Nunito-Regular" font-size="36.0" fill="#000000" transform="matrix(1.00, 0.00, -0.00, -1.00, 400.2, 325.0)">L</text><text xml:space="preserve" font-family="Nunito-Bold" font-weight="bold" font-size="36.0" fill="#000000" transform="matrix(1.00, 0.00, -0.00, -1.00, 420.8, 325.0)"> </text><text xml:space="preserve" font-family="Nunito-Regular" font-size="36.0" fill="#000000" transform="matrix(1.00, 0.00, -0.00, -1.00, 432.2, 325.0)">r</text><text xml:space="preserve" font-family="Nunito-Regular" font-size="36.0" fill="#000000" transform="matrix(1.00, 0.00, -0.00, -1.00, 445.4, 325.0)">e</text><text xml:space="preserve" font-family="Nunito-Regular" font-size="36.0" fill="#000000" transform="matrix(1.00, 0.00, -0.00, -1.00, 465.7, 325.0)">n</text><text xml:space="preserve" font-family="Nunito-Regular" font-size="36.0" fill="#000000" transform="matrix(1.00, 0.00, -0.00, -1.00, 486.8, 325.0)">d</text><text xml:space="preserve" font-family="Nunito-Regular" font-size="36.0" fill="#000000" transform="matrix(1.00, 0.00, -0.00, -1.00, 508.0, 325.0)">e</text><text xml:space="preserve" font-family="Nunito-Regular" font-size="36.0" fill="#000000" transform="matrix(1.00, 0.00, -0.00, -1.00, 528.3, 325.0)">r</text><text xml:space="preserve" font-family="Nunito-Regular" font-size="36.0" fill="#000000" transform="matrix(1.00, 0.00, -0.00, -1.00, 541.7, 325.0)">i</text><text xml:space="preserve" font-family="Nunito-Regular" font-size="36.0" fill="#000000" transform="matrix(1.00, 0.00, -0.00, -1.00, 550.7, 325.0)">n</text><text xml:space="preserve" font-family="Nunito-Regular" font-size="36.0" fill="#000000" transform="matrix(1.00, 0.00, -0.00, -1.00, 571.7, 325.0)">g</text><text xml:space="preserve" font-family="Nunito-Regular" font-size="36.0" fill="#000000" transform="matrix(1.00, 0.00, -0.00, -1.00, 233.0, 204.0)">J</text><text xml:space="preserve" font-family="Nunito-Regular" font-size="36.0" fill="#000000" transform="matrix(1.00, 0.00, -0.00, -1.00, 252.3, 204.0)">a</text><text xml:space="preserve" font-family="Nunito-Regular" font-size="36.0" fill="#000000" transform="matrix(1.00, 0.00, -0.00, -1.00, 270.8, 204.0)">v</text><text xml:space="preserve" font-family="Nunito-Regular" font-size="36.0" fill="#000000" transform="matrix(1.00, 0.00, -0.00, -1.00, 289.0, 204.0)">a</text><text xml:space="preserve" font-family="Nunito-Regular" font-size="36.0" fill="#000000" transform="matrix(1.00, 0.00, -0.00, -1.00, 308.0, 204.0)">S</text><text xml:space="preserve" font-family="Nunito-Regular" font-size="36.0" fill="#000000" transform="matrix(1.00, 0.00, -0.00, -1.00, 331.2, 204.0)">c</text><text xml:space="preserve" font-family="Nunito-Regular" font-size="36.0" fill="#000000" transform="matrix(1.00, 0.00, -0.00, -1.00, 348.8, 204.0)">r</text><text xml:space="preserve" font-family="Nunito-Regular" font-size="36.0" fill="#000000" transform="matrix(1.00, 0.00, -0.00, -1.00, 362.2, 204.0)">i</text><text xml:space="preserve" font-family="Nunito-Regular" font-size="36.0" fill="#000000" transform="matrix(1.00, 0.00, -0.00, -1.00, 371.1, 204.0)">p</text><text xml:space="preserve" font-family="Nunito-Regular" font-size="36.0" fill="#000000" transform="matrix(1.00, 0.00, -0.00, -1.00, 392.4, 204.0)">t</text><text xml:space="preserve" font-family="Nunito-Bold" font-weight="bold" font-size="36.0" fill="#000000" transform="matrix(1.00, 0.00, -0.00, -1.00, 405.4, 204.0)"> </text><text xml:space="preserve" font-family="Nunito-Bold" font-weight="bold" font-size="36.0" fill="#000000" transform="matrix(1.00, 0.00, -0.00, -1.00, 416.8, 204.0)">i</text><text xml:space="preserve" font-family="Nunito-Bold" font-weight="bold" font-size="36.0" fill="#000000" transform="matrix(1.00, 0.00, -0.00, -1.00, 426.6, 204.0)">n</text><text xml:space="preserve" font-family="Nunito-Bold" font-weight="bold" font-size="36.0" fill="#000000" transform="matrix(1.00, 0.00, -0.00, -1.00, 448.3, 204.0)">t</text><text xml:space="preserve" font-family="Nunito-Bold" font-weight="bold" font-size="36.0" fill="#000000" transform="matrix(1.00, 0.00, -0.00, -1.00, 462.2, 204.0)">e</text><text xml:space="preserve" font-family="Nunito-Bold" font-weight="bold" font-size="36.0" fill="#000000" transform="matrix(1.00, 0.00, -0.00, -1.00, 483.0, 204.0)">r</text><text xml:space="preserve" font-family="Nunito-Bold" font-weight="bold" font-size="36.0" fill="#000000" transform="matrix(1.00, 0.00, -0.00, -1.00, 497.3, 204.0)">o</text><text xml:space="preserve" font-family="Nunito-Bold" font-weight="bold" font-size="36.0" fill="#000000" transform="matrix(1.00, 0.00, -0.00, -1.00, 519.4, 204.0)">p</text><text xml:space="preserve" font-family="Nunito-Bold" font-weight="bold" font-size="36.0" fill="#000000" transform="matrix(1.00, 0.00, -0.00, -1.00, 541.6, 204.0)">e</text><text xml:space="preserve" font-family="Nunito-Bold" font-weight="bold" font-size="36.0" fill="#000000" transform="matrix(1.00, 0.00, -0.00, -1.00, 562.4, 204.0)">r</text><text xml:space="preserve" font-family="Nunito-Bold" font-weight="bold" font-size="36.0" fill="#000000" transform="matrix(1.00, 0.00, -0.00, -1.00, 576.9, 204.0)">a</text><text xml:space="preserve" font-family="Nunito-Bold" font-weight="bold" font-size="36.0" fill="#000000" transform="matrix(1.00, 0.00, -0.00, -1.00, 596.7, 204.0)">b</text><text xml:space="preserve" font-family="Nunito-Bold" font-weight="bold" font-size="36.0" fill="#000000" transform="matrix(1.00, 0.00, -0.00, -1.00, 618.7, 204.0)">l</text><text xml:space="preserve" font-family="Nunito-Bold" font-weight="bold" font-size="36.0" fill="#000000" transform="matrix(1.00, 0.00, -0.00, -1.00, 628.4, 204.0)">e</text><text xml:space="preserve" font-family="Nunito-Regular" font-size="36.0" fill="#000000" transform="matrix(1.00, 0.00, -0.00, -1.00, 234.0, 264.0)">L</text><text xml:space="preserve" font-family="Nunito-Regular" font-size="36.0" fill="#000000" transform="matrix(1.00, 0.00, -0.00, -1.00, 254.6, 264.0)">i</text><text xml:space="preserve" font-family="Nunito-Regular" font-size="36.0" fill="#000000" transform="matrix(1.00, 0.00, -0.00, -1.00, 263.6, 264.0)">b</text><text xml:space="preserve" font-family="Nunito-Regular" font-size="36.0" fill="#000000" transform="matrix(1.00, 0.00, -0.00, -1.00, 284.7, 264.0)">r</text><text xml:space="preserve" font-family="Nunito-Regular" font-size="36.0" fill="#000000" transform="matrix(1.00, 0.00, -0.00, -1.00, 298.1, 264.0)">a</text><text xml:space="preserve" font-family="Nunito-Regular" font-size="36.0" fill="#000000" transform="matrix(1.00, 0.00, -0.00, -1.00, 317.1, 264.0)">r</text><text xml:space="preserve" font-family="Nunito-Regular" font-size="36.0" fill="#000000" transform="matrix(1.00, 0.00, -0.00, -1.00, 330.5, 264.0)">i</text><text xml:space="preserve" font-family="Nunito-Regular" font-size="36.0" fill="#000000" transform="matrix(1.00, 0.00, -0.00, -1.00, 339.5, 264.0)">e</text><text xml:space="preserve" font-family="Nunito-Regular" font-size="36.0" fill="#000000" transform="matrix(1.00, 0.00, -0.00, -1.00, 359.8, 264.0)">s</text><text xml:space="preserve" font-family="Nunito-Regular" font-size="36.0" fill="#000000" transform="matrix(1.00, 0.00, -0.00, -1.00, 378.2, 264.0)"> </text><text xml:space="preserve" font-family="Nunito-Regular" font-size="36.0" fill="#000000" transform="matrix(1.00, 0.00, -0.00, -1.00, 389.0, 264.0)">w</text><text xml:space="preserve" font-family="Nunito-Regular" font-size="36.0" fill="#000000" transform="matrix(1.00, 0.00, -0.00, -1.00, 419.6, 264.0)">i</text><text xml:space="preserve" font-family="Nunito-Regular" font-size="36.0" fill="#000000" transform="matrix(1.00, 0.00, -0.00, -1.00, 428.6, 264.0)">t</text><text xml:space="preserve" font-family="Nunito-Regular" font-size="36.0" fill="#000000" transform="matrix(1.00, 0.00, -0.00, -1.00, 441.6, 264.0)">h</text><text xml:space="preserve" font-family="Nunito-Regular" font-size="36.0" fill="#000000" transform="matrix(1.00, 0.00, -0.00, -1.00, 462.6, 264.0)"> </text><text xml:space="preserve" font-family="Nunito-Bold" font-weight="bold" font-size="36.0" fill="#000000" transform="matrix(1.00, 0.00, -0.00, -1.00, 473.6, 264.0)">s</text><text xml:space="preserve" font-family="Nunito-Bold" font-weight="bold" font-size="36.0" fill="#000000" transform="matrix(1.00, 0.00, -0.00, -1.00, 492.4, 264.0)">e</text><text xml:space="preserve" font-family="Nunito-Bold" font-weight="bold" font-size="36.0" fill="#000000" transform="matrix(1.00, 0.00, -0.00, -1.00, 513.2, 264.0)">m</text><text xml:space="preserve" font-family="Nunito-Bold" font-weight="bold" font-size="36.0" fill="#000000" transform="matrix(1.00, 0.00, -0.00, -1.00, 547.0, 264.0)">a</text><text xml:space="preserve" font-family="Nunito-Bold" font-weight="bold" font-size="36.0" fill="#000000" transform="matrix(1.00, 0.00, -0.00, -1.00, 566.7, 264.0)">n</text><text xml:space="preserve" font-family="Nunito-Bold" font-weight="bold" font-size="36.0" fill="#000000" transform="matrix(1.00, 0.00, -0.00, -1.00, 588.5, 264.0)">t</text><text xml:space="preserve" font-family="Nunito-Bold" font-weight="bold" font-size="36.0" fill="#000000" transform="matrix(1.00, 0.00, -0.00, -1.00, 602.3, 264.0)">i</text><text xml:space="preserve" font-family="Nunito-Bold" font-weight="bold" font-size="36.0" fill="#000000" transform="matrix(1.00, 0.00, -0.00, -1.00, 612.0, 264.0)">c</text><text xml:space="preserve" font-family="Nunito-Regular" font-size="36.0" fill="#000000" transform="matrix(1.00, 0.00, -0.00, -1.00, 630.1, 264.0)"> </text><text xml:space="preserve" font-family="Nunito-Bold" font-weight="bold" font-size="36.0" fill="#000000" transform="matrix(1.00, 0.00, -0.00, -1.00, 641.0, 264.0)">v</text><text xml:space="preserve" font-family="Nunito-Bold" font-weight="bold" font-size="36.0" fill="#000000" transform="matrix(1.00, 0.00, -0.00, -1.00, 660.1, 264.0)">e</text><text xml:space="preserve" font-family="Nunito-Bold" font-weight="bold" font-size="36.0" fill="#000000" transform="matrix(1.00, 0.00, -0.00, -1.00, 680.9, 264.0)">r</text><text xml:space="preserve" font-family="Nunito-Bold" font-weight="bold" font-size="36.0" fill="#000000" transform="matrix(1.00, 0.00, -0.00, -1.00, 695.4, 264.0)">s</text><text xml:space="preserve" font-family="Nunito-Bold" font-weight="bold" font-size="36.0" fill="#000000" transform="matrix(1.00, 0.00, -0.00, -1.00, 714.3, 264.0)">i</text><text xml:space="preserve" font-family="Nunito-Bold" font-weight="bold" font-size="36.0" fill="#000000" transform="matrix(1.00, 0.00, -0.00, -1.00, 724.0, 264.0)">o</text><text xml:space="preserve" font-family="Nunito-Bold" font-weight="bold" font-size="36.0" fill="#000000" transform="matrix(1.00, 0.00, -0.00, -1.00, 746.1, 264.0)">n</text><text xml:space="preserve" font-family="Nunito-Bold" font-weight="bold" font-size="36.0" fill="#000000" transform="matrix(1.00, 0.00, -0.00, -1.00, 767.8, 264.0)">i</text><text xml:space="preserve" font-family="Nunito-Bold" font-weight="bold" font-size="36.0" fill="#000000" transform="matrix(1.00, 0.00, -0.00, -1.00, 777.6, 264.0)">n</text><text xml:space="preserve" font-family="Nunito-Bold" font-weight="bold" font-size="36.0" fill="#000000" transform="matrix(1.00, 0.00, -0.00, -1.00, 799.3, 264.0)">g</text><text xml:space="preserve" font-family="Nunito-Bold" font-weight="bold" font-size="36.0" fill="#000000" transform="matrix(1.00, 0.00, -0.00, -1.00, 231.0, 143.0)">L</text><text xml:space="preserve" font-family="Nunito-Bold" font-weight="bold" font-size="36.0" fill="#000000" transform="matrix(1.00, 0.00, -0.00, -1.00, 252.1, 143.0)">i</text><text xml:space="preserve" font-family="Nunito-Bold" font-weight="bold" font-size="36.0" fill="#000000" transform="matrix(1.00, 0.00, -0.00, -1.00, 261.8, 143.0)">v</text><text xml:space="preserve" font-family="Nunito-Bold" font-weight="bold" font-size="36.0" fill="#000000" transform="matrix(1.00, 0.00, -0.00, -1.00, 280.9, 143.0)">e</text><text xml:space="preserve" font-family="Nunito-Regular" font-size="36.0" fill="#000000" transform="matrix(1.00, 0.00, -0.00, -1.00, 301.8, 143.0)"> </text><text xml:space="preserve" font-family="Nunito-Regular" font-size="36.0" fill="#000000" transform="matrix(1.00, 0.00, -0.00, -1.00, 312.6, 143.0)">D</text><text xml:space="preserve" font-family="Nunito-Regular" font-size="36.0" fill="#000000" transform="matrix(1.00, 0.00, -0.00, -1.00, 339.4, 143.0)">e</text><text xml:space="preserve" font-family="Nunito-Regular" font-size="36.0" fill="#000000" transform="matrix(1.00, 0.00, -0.00, -1.00, 359.8, 143.0)">b</text><text xml:space="preserve" font-family="Nunito-Regular" font-size="36.0" fill="#000000" transform="matrix(1.00, 0.00, -0.00, -1.00, 380.9, 143.0)">u</text><text xml:space="preserve" font-family="Nunito-Regular" font-size="36.0" fill="#000000" transform="matrix(1.00, 0.00, -0.00, -1.00, 401.9, 143.0)">g</text><text xml:space="preserve" font-family="Nunito-Regular" font-size="36.0" fill="#000000" transform="matrix(1.00, 0.00, -0.00, -1.00, 423.2, 143.0)">g</text><text xml:space="preserve" font-family="Nunito-Regular" font-size="36.0" fill="#000000" transform="matrix(1.00, 0.00, -0.00, -1.00, 444.4, 143.0)">e</text><text xml:space="preserve" font-family="Nunito-Regular" font-size="36.0" fill="#000000" transform="matrix(1.00, 0.00, -0.00, -1.00, 464.8, 143.0)">r</text><text xml:space="preserve" font-family="Nunito-Regular" font-size="36.0" fill="#000000" transform="matrix(1.00, 0.00, -0.00, -1.00, 231.0, 91.0)">…</text><text xml:space="preserve" font-family="Nunito-Bold" font-weight="bold" font-size="40.0" fill="#000000" transform="matrix(1.00, 0.00, -0.00, -1.00, 233.0, 680.0)">E</text><text xml:space="preserve" font-family="Nunito-Bold" font-weight="bold" font-size="40.0" fill="#000000" transform="matrix(1.00, 0.00, -0.00, -1.00, 257.8, 680.0)">l</text><text xml:space="preserve" font-family="Nunito-Bold" font-weight="bold" font-size="40.0" fill="#000000" transform="matrix(1.00, 0.00, -0.00, -1.00, 268.6, 680.0)">m</text><text xml:space="preserve" font-family="Nunito-Bold" font-weight="bold" font-size="40.0" fill="#000000" transform="matrix(1.00, 0.00, -0.00, -1.00, 306.1, 680.0)">’</text><text xml:space="preserve" font-family="Nunito-Bold" font-weight="bold" font-size="40.0" fill="#000000" transform="matrix(1.00, 0.00, -0.00, -1.00, 315.2, 680.0)">s</text><text xml:space="preserve" font-family="Nunito-Regular" font-size="40.0" fill="#000000" transform="matrix(1.00, 0.00, -0.00, -1.00, 336.2, 680.0)"> </text><text xml:space="preserve" font-family="Nunito-Regular" font-size="40.0" fill="#000000" transform="matrix(1.00, 0.00, -0.00, -1.00, 348.2, 680.0)">a</text><text xml:space="preserve" font-family="Nunito-Regular" font-size="40.0" fill="#000000" transform="matrix(1.00, 0.00, -0.00, -1.00, 368.8, 680.0)">w</text><text xml:space="preserve" font-family="Nunito-Regular" font-size="40.0" fill="#000000" transform="matrix(1.00, 0.00, -0.00, -1.00, 402.2, 680.0)">e</text><text xml:space="preserve" font-family="Nunito-Regular" font-size="40.0" fill="#000000" transform="matrix(1.00, 0.00, -0.00, -1.00, 424.8, 680.0)">s</text><text xml:space="preserve" font-family="Nunito-Regular" font-size="40.0" fill="#000000" transform="matrix(1.00, 0.00, -0.00, -1.00, 445.2, 680.0)">o</text><text xml:space="preserve" font-family="Nunito-Regular" font-size="40.0" fill="#000000" transform="matrix(1.00, 0.00, -0.00, -1.00, 468.8, 680.0)">m</text><text xml:space="preserve" font-family="Nunito-Regular" font-size="40.0" fill="#000000" transform="matrix(1.00, 0.00, -0.00, -1.00, 505.4, 680.0)">e</text><text xml:space="preserve" font-family="Nunito-Regular" font-size="40.0" fill="#000000" transform="matrix(1.00, 0.00, -0.00, -1.00, 528.1, 680.0)">n</text><text xml:space="preserve" font-family="Nunito-Regular" font-size="40.0" fill="#000000" transform="matrix(1.00, 0.00, -0.00, -1.00, 551.4, 680.0)">e</text><text xml:space="preserve" font-family="Nunito-Regular" font-size="40.0" fill="#000000" transform="matrix(1.00, 0.00, -0.00, -1.00, 574.0, 680.0)">s</text><text xml:space="preserve" font-family="Nunito-Regular" font-size="40.0" fill="#000000" transform="matrix(1.00, 0.00, -0.00, -1.00, 594.4, 680.0)">s</text></g></svg>