<?xml version="1.0" encoding="UTF-8" standalone="no"?><svg xmlns="http://www.w3.org/2000/svg" xmlns:xlink="http://www.w3.org/1999/xlink" clip-rule="evenodd" stroke-miterlimit="4.00" viewBox="0 0 166 35"><desc>SVG generated by Keynote</desc><defs></defs><g transform="matrix(1.00, 0.00, -0.00, -1.00, 0.0, 35.0)"><text xml:space="preserve" font-family="Nunito-Regular" font-size="36.0" fill="#000000" transform="matrix(1.00, 0.00, -0.00, -1.00, -1.0, 7.0)">M</text><text xml:space="preserve" font-family="Nunito-Regular" font-size="36.0" fill="#000000" transform="matrix(1.00, 0.00, -0.00, -1.00, 34.2, 7.0)">L</text><text xml:space="preserve" font-family="Nunito-Regular" font-size="36.0" fill="#000000" transform="matrix(1.00, 0.00, -0.00, -1.00, 54.8, 7.0)"> </text><text xml:space="preserve" font-family="Nunito-Light" font-size="36.0" fill="#000000" transform="matrix(1.00, 0.00, -0.00, -1.00, 65.6, 7.0)">(</text><text xml:space="preserve" font-family="Nunito-Light" font-size="36.0" fill="#000000" transform="matrix(1.00, 0.00, -0.00, -1.00, 76.0, 7.0)">1</text><text xml:space="preserve" font-family="Nunito-Light" font-size="36.0" fill="#000000" transform="matrix(1.00, 0.00, -0.00, -1.00, 94.9, 7.0)">9</text><text xml:space="preserve" font-family="Nunito-Light" font-size="36.0" fill="#000000" transform="matrix(1.00, 0.00, -0.00, -1.00, 115.5, 7.0)">7</text><text xml:space="preserve" font-family="Nunito-Light" font-size="36.0" fill="#000000" transform="matrix(1.00, 0.00, -0.00, -1.00, 136.1, 7.0)">3</text><text xml:space="preserve" font-family="Nunito-Light" font-size="36.0" fill="#000000" transform="matrix(1.00, 0.00, -0.00, -1.00, 156.6, 7.0)">)</text></g></svg>